# Blender v3.4.1 OBJ File: 'Tiny_Treats_Bakery_Building_ASSETS_EXPORT.blend'
# www.blender.org
mtllib awning_yellow.mtl
o awning_yellow
v -2.863615 2.974643 3.634358
v -2.863615 3.509571 3.634358
v -2.863615 4.044500 2.216109
v -2.342958 4.044500 2.216109
v -1.822300 4.044500 2.216109
v -1.301643 4.044500 2.216109
v -2.342958 2.974643 3.634358
v -1.822300 2.974643 3.634358
v -1.301643 3.509571 3.634358
v -1.822300 3.509571 3.634358
v -2.342958 3.509571 3.634358
v -1.301643 2.974643 3.634358
v -0.780986 2.974643 3.634358
v -2.603286 2.974643 3.634358
v -2.082629 2.974643 3.634358
v -1.561972 2.974643 3.634358
v -1.041315 2.974643 3.634358
v -2.565420 2.703734 3.634358
v -2.641152 2.703734 3.634358
v -2.044763 2.703734 3.634358
v -2.120495 2.703734 3.634358
v -1.524106 2.703734 3.634358
v -1.599838 2.703734 3.634358
v -1.003449 2.703734 3.634358
v -1.079181 2.703734 3.634358
v -2.863615 2.974643 3.334358
v -2.863615 3.338928 3.387618
v -2.863615 3.763802 2.110237
v -1.301643 3.763802 2.110237
v -1.301643 3.338928 3.387618
v -1.822300 3.763802 2.110237
v -1.822300 3.338928 3.387618
v -2.342958 3.763802 2.110237
v -2.342958 3.338928 3.387618
v -1.822300 2.974643 3.334358
v -2.342958 2.974643 3.334358
v -0.780986 2.974643 3.334358
v -1.301643 2.974643 3.334358
v -1.041315 2.974643 3.334358
v -2.082629 2.974643 3.334358
v -1.561972 2.974643 3.334358
v -2.641152 2.703734 3.334358
v -2.565420 2.703734 3.334358
v -2.044763 2.703734 3.334358
v -2.603286 2.974643 3.334358
v -2.120495 2.703734 3.334358
v -1.524106 2.703734 3.334358
v -1.599838 2.703734 3.334358
v -1.003449 2.703734 3.334358
v -1.079181 2.703734 3.334358
v -1.514702 2.629475 3.484358
v -1.609242 2.629475 3.484358
v -1.301643 2.897773 3.484358
v -1.822300 2.897773 3.484358
v -2.035359 2.629475 3.484358
v -2.556016 2.629475 3.484358
v -2.650556 2.629475 3.484358
v -2.895119 2.936185 3.484358
v -2.900000 3.424250 3.510988
v -2.900000 3.904151 2.163173
v -0.994044 2.629475 3.484358
v -1.088585 2.629475 3.484358
v -2.129899 2.629475 3.484358
v -2.342958 2.897771 3.484358
v -0.780986 2.897773 3.484358
v 2.863615 2.974643 3.634358
v 2.863615 3.509571 3.634358
v 2.863615 4.044500 2.216109
v 2.342957 4.044500 2.216109
v 2.603286 2.974643 3.634358
v 2.641152 2.703734 3.634358
v 2.565420 2.703734 3.634358
v 2.863615 3.763802 2.110237
v 2.863615 3.338928 3.387618
v 2.863615 2.974643 3.334358
v 2.342957 3.338928 3.387618
v 2.603286 2.974643 3.334358
v 2.641152 2.703734 3.334358
v 2.565420 2.703734 3.334358
v 2.900000 3.904151 2.163173
v 2.895118 2.936185 3.484358
v 2.650556 2.629475 3.484358
v 2.900000 3.424250 3.510988
v 2.556016 2.629475 3.484358
v -0.780986 4.044500 2.216109
v -0.260329 4.044500 2.216109
v -0.260329 3.509571 3.634358
v -0.780986 3.509571 3.634358
v -0.260329 2.974643 3.634358
v 0.260328 2.974643 3.634358
v -0.520657 2.974643 3.634358
v -0.000000 2.974643 3.634358
v -0.482791 2.703734 3.634358
v -0.558523 2.703734 3.634358
v 0.037866 2.703734 3.634358
v -0.037866 2.703734 3.634358
v -0.260329 3.763802 2.110237
v -0.260329 3.338928 3.387618
v -0.780986 3.763802 2.110237
v -0.780986 3.338928 3.387618
v 0.260328 2.974643 3.334358
v -0.260329 2.974643 3.334358
v -0.000000 2.974643 3.334358
v -0.520657 2.974643 3.334358
v -0.482791 2.703734 3.334358
v -0.558523 2.703734 3.334358
v 0.037866 2.703734 3.334358
v -0.037866 2.703734 3.334358
v -0.473387 2.629475 3.484358
v -0.567928 2.629475 3.484358
v -0.260329 2.897773 3.484358
v 0.047270 2.629475 3.484358
v -0.047270 2.629475 3.484358
v 0.260328 4.044500 2.216109
v 0.780986 4.044500 2.216109
v 1.301643 4.044500 2.216109
v 1.301643 3.509571 3.634358
v 0.780986 3.509571 3.634358
v 0.260328 3.509571 3.634358
v 0.780986 2.974643 3.634358
v 0.520657 2.974643 3.634358
v 1.041314 2.974643 3.634358
v 0.558523 2.703734 3.634358
v 0.482791 2.703734 3.634358
v 1.079180 2.703734 3.634358
v 1.003448 2.703734 3.634358
v 1.301643 3.763802 2.110237
v 1.301643 3.338928 3.387618
v 0.780986 3.763802 2.110237
v 0.780986 3.338928 3.387618
v 0.260328 3.763802 2.110237
v 0.260328 3.338928 3.387618
v 1.301643 2.974643 3.334358
v 0.780986 2.974643 3.334358
v 1.041314 2.974643 3.334358
v 0.520657 2.974643 3.334358
v 0.558523 2.703734 3.334358
v 0.482791 2.703734 3.334358
v 1.079180 2.703734 3.334358
v 1.003448 2.703734 3.334358
v 0.567927 2.629475 3.484358
v 0.473387 2.629475 3.484358
v 0.780986 2.897773 3.484358
v 0.260328 2.897773 3.484358
v 1.088584 2.629475 3.484358
v 0.994044 2.629475 3.484358
v 1.822300 4.044500 2.216109
v 1.301643 2.974643 3.634358
v 2.342957 3.509571 3.634358
v 1.822300 3.509571 3.634358
v 1.822300 2.974643 3.634358
v 2.342957 2.974643 3.634358
v 1.561972 2.974643 3.634358
v 2.082628 2.974643 3.634358
v 1.599838 2.703734 3.634358
v 1.524106 2.703734 3.634358
v 2.120495 2.703734 3.634358
v 2.044763 2.703734 3.634358
v 2.342957 3.763802 2.110237
v 1.822300 3.763802 2.110237
v 1.822300 3.338928 3.387618
v 2.342957 2.974643 3.334358
v 1.822300 2.974643 3.334358
v 2.082628 2.974643 3.334358
v 1.561972 2.974643 3.334358
v 1.599838 2.703734 3.334358
v 1.524106 2.703734 3.334358
v 2.120495 2.703734 3.334358
v 2.044763 2.703734 3.334358
v 1.609242 2.629475 3.484358
v 1.514701 2.629475 3.484358
v 1.822300 2.897773 3.484358
v 1.301643 2.897773 3.484358
v 2.129899 2.629475 3.484358
v 2.035358 2.629475 3.484358
v 2.342957 2.897773 3.484358
vt 0.187500 0.355630
vt 0.179977 0.355630
vt 0.186406 0.339302
vt 0.429977 0.855630
vt 0.422453 0.855630
vt 0.423548 0.839302
vt 0.460070 0.855630
vt 0.452547 0.855630
vt 0.453641 0.839302
vt 0.195024 0.355630
vt 0.188594 0.339302
vt 0.164930 0.355630
vt 0.157407 0.355630
vt 0.158501 0.339302
vt 0.414930 0.855630
vt 0.421359 0.839302
vt 0.414930 0.887871
vt 0.429977 0.887871
vt 0.429977 0.920112
vt 0.414930 0.920112
vt 0.179977 0.387871
vt 0.195024 0.387871
vt 0.195024 0.420112
vt 0.179977 0.420112
vt 0.445024 0.855630
vt 0.451452 0.839302
vt 0.445024 0.887871
vt 0.460070 0.887871
vt 0.460070 0.920112
vt 0.445024 0.920112
vt 0.149883 0.355630
vt 0.156312 0.339302
vt 0.164930 0.387871
vt 0.149883 0.387871
vt 0.164930 0.420112
vt 0.149883 0.420112
vt 0.187500 0.355630
vt 0.186406 0.339302
vt 0.179977 0.355630
vt 0.429977 0.855630
vt 0.423548 0.839302
vt 0.422453 0.855630
vt 0.460070 0.855630
vt 0.453641 0.839302
vt 0.452547 0.855630
vt 0.195024 0.355630
vt 0.188594 0.339302
vt 0.164930 0.355630
vt 0.158501 0.339302
vt 0.157407 0.355630
vt 0.421359 0.839302
vt 0.414930 0.855630
vt 0.414930 0.887871
vt 0.414930 0.920112
vt 0.429977 0.920112
vt 0.429977 0.887871
vt 0.179977 0.387871
vt 0.179977 0.420112
vt 0.195024 0.420112
vt 0.195024 0.387871
vt 0.451452 0.839302
vt 0.445024 0.855630
vt 0.445024 0.887871
vt 0.445024 0.920112
vt 0.460070 0.920112
vt 0.460070 0.887871
vt 0.156312 0.339302
vt 0.149883 0.355630
vt 0.164930 0.387871
vt 0.149883 0.387871
vt 0.164930 0.420112
vt 0.149883 0.420112
vt 0.186406 0.339302
vt 0.188594 0.339302
vt 0.195024 0.355630
vt 0.423548 0.839302
vt 0.429977 0.855630
vt 0.156312 0.339302
vt 0.158501 0.339302
vt 0.149883 0.387871
vt 0.149883 0.355630
vt 0.149883 0.420112
vt 0.451452 0.839302
vt 0.453641 0.839302
vt 0.414930 0.855630
vt 0.421359 0.839302
vt 0.164930 0.355630
vt 0.445024 0.855630
vt 0.460070 0.855630
vt 0.179977 0.355630
vt 0.225117 0.355630
vt 0.217593 0.355630
vt 0.218688 0.339302
vt 0.210070 0.387871
vt 0.225117 0.387871
vt 0.225117 0.420112
vt 0.210070 0.420112
vt 0.210070 0.355630
vt 0.216499 0.339302
vt 0.225117 0.355630
vt 0.218688 0.339302
vt 0.217593 0.355630
vt 0.210070 0.387871
vt 0.225117 0.387871
vt 0.210070 0.420112
vt 0.225117 0.420112
vt 0.216499 0.339302
vt 0.210070 0.355630
vt 0.218688 0.339302
vt 0.225117 0.355630
vt 0.225117 0.387871
vt 0.225117 0.420112
vt 0.210070 0.355630
vt 0.216499 0.339302
vt 0.187500 0.355630
vt 0.179977 0.355630
vt 0.186406 0.339302
vt 0.460070 0.855630
vt 0.452547 0.855630
vt 0.453641 0.839302
vt 0.195024 0.355630
vt 0.188594 0.339302
vt 0.179977 0.387871
vt 0.195024 0.387871
vt 0.195024 0.420112
vt 0.179977 0.420112
vt 0.445024 0.855630
vt 0.451452 0.839302
vt 0.445024 0.887871
vt 0.460070 0.887871
vt 0.460070 0.920112
vt 0.445024 0.920112
vt 0.187500 0.355630
vt 0.186406 0.339302
vt 0.179977 0.355630
vt 0.460070 0.855630
vt 0.453641 0.839302
vt 0.452547 0.855630
vt 0.195024 0.355630
vt 0.188594 0.339302
vt 0.179977 0.387871
vt 0.179977 0.420112
vt 0.195024 0.420112
vt 0.195024 0.387871
vt 0.451452 0.839302
vt 0.445024 0.855630
vt 0.445024 0.887871
vt 0.445024 0.920112
vt 0.460070 0.920112
vt 0.460070 0.887871
vt 0.186406 0.339302
vt 0.188594 0.339302
vt 0.195024 0.355630
vt 0.451452 0.839302
vt 0.453641 0.839302
vt 0.445024 0.855630
vt 0.460070 0.855630
vt 0.179977 0.355630
vt 0.187500 0.355630
vt 0.179977 0.355630
vt 0.186406 0.339302
vt 0.460070 0.855630
vt 0.452547 0.855630
vt 0.453641 0.839302
vt 0.195024 0.355630
vt 0.188594 0.339302
vt 0.179977 0.387871
vt 0.195024 0.387871
vt 0.195024 0.420112
vt 0.179977 0.420112
vt 0.445024 0.855630
vt 0.451452 0.839302
vt 0.445024 0.887871
vt 0.460070 0.887871
vt 0.460070 0.920112
vt 0.445024 0.920112
vt 0.187500 0.355630
vt 0.186406 0.339302
vt 0.179977 0.355630
vt 0.460070 0.855630
vt 0.453641 0.839302
vt 0.452547 0.855630
vt 0.195024 0.355630
vt 0.188594 0.339302
vt 0.179977 0.387871
vt 0.179977 0.420112
vt 0.195024 0.420112
vt 0.195024 0.387871
vt 0.451452 0.839302
vt 0.445024 0.855630
vt 0.445024 0.887871
vt 0.445024 0.920112
vt 0.460070 0.920112
vt 0.460070 0.887871
vt 0.186406 0.339302
vt 0.188594 0.339302
vt 0.195024 0.355630
vt 0.451452 0.839302
vt 0.453641 0.839302
vt 0.445024 0.855630
vt 0.460070 0.855630
vt 0.179977 0.355630
vt 0.187500 0.355630
vt 0.179977 0.355630
vt 0.186406 0.339302
vt 0.460070 0.855630
vt 0.452547 0.855630
vt 0.453641 0.839302
vt 0.195024 0.355630
vt 0.188594 0.339302
vt 0.179977 0.387871
vt 0.195024 0.387871
vt 0.195024 0.420112
vt 0.179977 0.420112
vt 0.445024 0.855630
vt 0.451452 0.839302
vt 0.445024 0.887871
vt 0.460070 0.887871
vt 0.460070 0.920112
vt 0.445024 0.920112
vt 0.187500 0.355630
vt 0.186406 0.339302
vt 0.179977 0.355630
vt 0.460070 0.855630
vt 0.453641 0.839302
vt 0.452547 0.855630
vt 0.195024 0.355630
vt 0.188594 0.339302
vt 0.179977 0.387871
vt 0.179977 0.420112
vt 0.195024 0.420112
vt 0.195024 0.387871
vt 0.451452 0.839302
vt 0.445024 0.855630
vt 0.445024 0.887871
vt 0.445024 0.920112
vt 0.460070 0.920112
vt 0.460070 0.887871
vt 0.186406 0.339302
vt 0.188594 0.339302
vt 0.195024 0.355630
vt 0.451452 0.839302
vt 0.453641 0.839302
vt 0.445024 0.855630
vt 0.460070 0.855630
vt 0.179977 0.355630
vn 0.0000 0.0000 1.0000
vn 0.0000 0.9357 0.3529
vn 0.0000 0.0725 -0.9974
vn 0.0000 0.0000 -1.0000
vn 0.0000 0.0928 -0.9957
vn 0.0000 -0.9489 -0.3156
vn 0.0000 0.1447 -0.9895
vn -0.4019 -0.9157 -0.0000
vn -0.4312 -0.8019 -0.4135
vn 0.4312 -0.8019 -0.4135
vn 0.4019 -0.9157 -0.0000
vn 0.7363 -0.5947 -0.3227
vn 0.7779 -0.6283 -0.0000
vn -0.4017 -0.9158 -0.0000
vn -0.4308 -0.8018 -0.4141
vn -0.9965 0.0461 0.0700
vn -0.9794 -0.1124 -0.1679
vn -0.9096 -0.2890 -0.2984
vn -0.9320 -0.3625 -0.0044
vn -1.0000 -0.0046 0.0012
vn -0.9657 -0.2454 -0.0846
vn -0.7779 -0.6283 -0.0000
vn -0.7363 -0.5947 -0.3227
vn -0.7363 -0.5947 0.3227
vn -0.4312 -0.8019 0.4135
vn 0.4312 -0.8019 0.4135
vn 0.7363 -0.5947 0.3227
vn -0.9098 -0.2908 0.2963
vn -0.4308 -0.8018 0.4141
vn -0.9662 0.2421 0.0888
vn -0.9786 0.1169 0.1692
vn 0.4017 -0.9158 -0.0000
vn 0.4308 -0.8018 -0.4141
vn 0.9096 -0.2890 -0.2984
vn 0.9320 -0.3625 -0.0044
vn 0.9965 0.0461 0.0700
vn 0.9794 -0.1124 -0.1679
vn 0.9657 -0.2454 -0.0846
vn 1.0000 -0.0046 0.0012
vn 0.4308 -0.8018 0.4141
vn 0.9098 -0.2908 0.2963
vn 0.9786 0.1169 0.1692
vn 0.9662 0.2421 0.0888
usemtl tiny_treats_1
s 1
f 16/1/1 8/2/1 23/3/1
f 8/4/1 15/5/1 20/6/1
f 13/7/1 17/8/1 24/9/1
f 12/10/1 16/1/1 22/11/1
f 7/12/1 14/13/1 18/14/1
f 15/5/1 7/15/1 21/16/1
f 11/17/2 10/18/2 5/19/2 4/20/2
f 10/21/2 9/22/2 6/23/2 5/24/2
f 17/8/1 12/25/1 25/26/1
f 9/27/2 88/28/2 85/29/2 6/30/2
f 14/13/1 1/31/1 19/32/1
f 10/21/1 16/1/1 9/22/1
f 9/27/1 17/8/1 88/28/1
f 11/17/1 15/5/1 10/18/1
f 11/33/1 2/34/1 14/13/1
f 4/35/2 3/36/2 2/34/2 11/33/2
f 18/14/1 14/13/1 19/32/1
f 20/6/1 15/5/1 21/16/1
f 22/11/1 16/1/1 23/3/1
f 24/9/1 17/8/1 25/26/1
f 1/31/1 14/13/1 2/34/1
f 7/12/1 11/33/1 14/13/1
f 7/15/1 15/5/1 11/17/1
f 8/4/1 10/18/1 15/5/1
f 8/2/1 16/1/1 10/21/1
f 12/10/1 9/22/1 16/1/1
f 12/25/1 17/8/1 9/27/1
f 13/7/1 88/28/1 17/8/1
f 41/37/3 48/38/4 35/39/5
f 35/40/5 44/41/4 40/42/3
f 37/43/5 49/44/4 39/45/3
f 38/46/5 47/47/4 41/37/3
f 36/48/5 43/49/4 45/50/3
f 40/42/3 46/51/4 36/52/5
f 34/53/6 33/54/6 31/55/6 32/56/6
f 32/57/6 31/58/6 29/59/6 30/60/6
f 39/45/3 50/61/4 38/62/5
f 30/63/6 29/64/6 99/65/6 100/66/6
f 45/50/3 42/67/4 26/68/5
f 32/57/7 30/60/7 41/37/3
f 30/63/7 100/66/7 39/45/3
f 34/53/7 32/56/7 40/42/3
f 34/69/7 45/50/3 27/70/7
f 33/71/6 34/69/6 27/70/6 28/72/6
f 43/49/4 42/67/4 45/50/3
f 44/41/4 46/51/4 40/42/3
f 47/47/4 48/38/4 41/37/3
f 49/44/4 50/61/4 39/45/3
f 26/68/5 27/70/7 45/50/3
f 36/48/5 45/50/3 34/69/7
f 36/52/5 34/53/7 40/42/3
f 35/40/5 40/42/3 32/56/7
f 35/39/5 32/57/7 41/37/3
f 38/46/5 41/37/3 30/60/7
f 38/62/5 30/63/7 39/45/3
f 37/43/5 39/45/3 100/66/7
f 52/73/8 48/38/9 47/47/10 51/74/11
f 51/74/11 47/47/10 38/46/12 53/75/13
f 55/76/11 44/41/10 35/40/12 54/77/13
f 57/78/14 42/67/15 43/49/10 56/79/11
f 59/80/16 27/70/17 26/68/18 58/81/19
f 60/82/20 28/72/21 27/70/17 59/80/16
f 62/83/8 50/61/9 49/44/10 61/84/11
f 64/85/22 36/52/23 46/51/9 63/86/8
f 63/86/8 46/51/9 44/41/10 55/76/11
f 56/79/11 43/49/10 36/48/12 64/87/13
f 53/88/22 38/62/23 50/61/9 62/83/8
f 58/81/19 26/68/18 42/67/15 57/78/14
f 61/84/11 49/44/10 37/43/12 65/89/13
f 54/90/22 35/39/23 48/38/9 52/73/8
f 8/2/24 54/90/22 52/73/8 23/3/25
f 24/9/26 61/84/11 65/89/13 13/7/27
f 1/31/28 58/81/19 57/78/14 19/32/29
f 12/25/24 53/88/22 62/83/8 25/26/25
f 18/14/26 56/79/11 64/87/13 7/12/27
f 21/16/25 63/86/8 55/76/11 20/6/26
f 7/15/24 64/85/22 63/86/8 21/16/25
f 25/26/25 62/83/8 61/84/11 24/9/26
f 3/36/30 60/82/20 59/80/16 2/34/31
f 2/34/31 59/80/16 58/81/19 1/31/28
f 19/32/29 57/78/14 56/79/11 18/14/26
f 20/6/26 55/76/11 54/77/13 8/4/27
f 22/11/26 51/74/11 53/75/13 12/10/27
f 23/3/25 52/73/8 51/74/11 22/11/26
f 66/91/1 70/92/1 71/93/1
f 149/94/1 70/92/1 67/95/1
f 149/94/2 67/95/2 68/96/2 69/97/2
f 70/92/1 152/98/1 72/99/1
f 71/93/1 70/92/1 72/99/1
f 152/98/1 70/92/1 149/94/1
f 66/91/1 67/95/1 70/92/1
f 75/100/5 78/101/4 77/102/3
f 76/103/7 74/104/7 77/102/3
f 76/103/6 159/105/6 73/106/6 74/104/6
f 77/102/3 79/107/4 162/108/5
f 78/101/4 79/107/4 77/102/3
f 162/108/5 76/103/7 77/102/3
f 75/100/5 77/102/3 74/104/7
f 82/109/32 78/101/33 75/100/34 81/110/35
f 83/111/36 74/104/37 73/106/38 80/112/39
f 176/113/22 162/108/23 79/107/9 84/114/8
f 81/110/35 75/100/34 74/104/37 83/111/36
f 84/114/8 79/107/9 78/101/33 82/109/32
f 72/99/25 84/114/8 82/109/32 71/93/40
f 66/91/41 81/110/35 83/111/36 67/95/42
f 152/98/24 176/113/22 84/114/8 72/99/25
f 67/95/42 83/111/36 80/112/39 68/96/43
f 71/93/40 82/109/32 81/110/35 66/91/41
f 91/115/1 13/116/1 94/117/1
f 90/118/1 92/119/1 95/120/1
f 89/121/1 91/115/1 93/122/1
f 88/123/2 87/124/2 86/125/2 85/126/2
f 92/119/1 89/127/1 96/128/1
f 87/129/2 119/130/2 114/131/2 86/132/2
f 88/123/1 91/115/1 87/124/1
f 87/129/1 92/119/1 119/130/1
f 93/122/1 91/115/1 94/117/1
f 95/120/1 92/119/1 96/128/1
f 13/116/1 91/115/1 88/123/1
f 89/121/1 87/124/1 91/115/1
f 89/127/1 92/119/1 87/129/1
f 90/118/1 119/130/1 92/119/1
f 104/133/3 106/134/4 37/135/5
f 101/136/5 107/137/4 103/138/3
f 102/139/5 105/140/4 104/133/3
f 100/141/6 99/142/6 97/143/6 98/144/6
f 103/138/3 108/145/4 102/146/5
f 98/147/6 97/148/6 131/149/6 132/150/6
f 100/141/7 98/144/7 104/133/3
f 98/147/7 132/150/7 103/138/3
f 105/140/4 106/134/4 104/133/3
f 107/137/4 108/145/4 103/138/3
f 37/135/5 100/141/7 104/133/3
f 102/139/5 104/133/3 98/144/7
f 102/146/5 98/147/7 103/138/3
f 101/136/5 103/138/3 132/150/7
f 110/151/8 106/134/9 105/140/10 109/152/11
f 109/152/11 105/140/10 102/139/12 111/153/13
f 113/154/8 108/145/9 107/137/10 112/155/11
f 111/156/22 102/146/23 108/145/9 113/154/8
f 112/155/11 107/137/10 101/136/12 144/157/13
f 65/158/22 37/135/23 106/134/9 110/151/8
f 13/116/24 65/158/22 110/151/8 94/117/25
f 95/120/26 112/155/11 144/157/13 90/118/27
f 89/127/24 111/156/22 113/154/8 96/128/25
f 96/128/25 113/154/8 112/155/11 95/120/26
f 93/122/26 109/152/11 111/153/13 89/121/27
f 94/117/25 110/151/8 109/152/11 93/122/26
f 121/159/1 90/160/1 124/161/1
f 148/162/1 122/163/1 125/164/1
f 120/165/1 121/159/1 123/166/1
f 119/167/2 118/168/2 115/169/2 114/170/2
f 122/163/1 120/171/1 126/172/1
f 118/173/2 117/174/2 116/175/2 115/176/2
f 119/167/1 121/159/1 118/168/1
f 118/173/1 122/163/1 117/174/1
f 123/166/1 121/159/1 124/161/1
f 125/164/1 122/163/1 126/172/1
f 90/160/1 121/159/1 119/167/1
f 120/165/1 118/168/1 121/159/1
f 120/171/1 122/163/1 118/173/1
f 148/162/1 117/174/1 122/163/1
f 136/177/3 138/178/4 101/179/5
f 133/180/5 139/181/4 135/182/3
f 134/183/5 137/184/4 136/177/3
f 132/185/6 131/186/6 129/187/6 130/188/6
f 135/182/3 140/189/4 134/190/5
f 130/191/6 129/192/6 127/193/6 128/194/6
f 132/185/7 130/188/7 136/177/3
f 130/191/7 128/194/7 135/182/3
f 137/184/4 138/178/4 136/177/3
f 139/181/4 140/189/4 135/182/3
f 101/179/5 132/185/7 136/177/3
f 134/183/5 136/177/3 130/188/7
f 134/190/5 130/191/7 135/182/3
f 133/180/5 135/182/3 128/194/7
f 142/195/8 138/178/9 137/184/10 141/196/11
f 141/196/11 137/184/10 134/183/12 143/197/13
f 146/198/8 140/189/9 139/181/10 145/199/11
f 143/200/22 134/190/23 140/189/9 146/198/8
f 145/199/11 139/181/10 133/180/12 173/201/13
f 144/202/22 101/179/23 138/178/9 142/195/8
f 90/160/24 144/202/22 142/195/8 124/161/25
f 125/164/26 145/199/11 173/201/13 148/162/27
f 120/171/24 143/200/22 146/198/8 126/172/25
f 126/172/25 146/198/8 145/199/11 125/164/26
f 123/166/26 141/196/11 143/197/13 120/165/27
f 124/161/25 142/195/8 141/196/11 123/166/26
f 153/203/1 148/204/1 156/205/1
f 152/206/1 154/207/1 157/208/1
f 151/209/1 153/203/1 155/210/1
f 117/211/2 150/212/2 147/213/2 116/214/2
f 154/207/1 151/215/1 158/216/1
f 150/217/2 149/218/2 69/219/2 147/220/2
f 117/211/1 153/203/1 150/212/1
f 150/217/1 154/207/1 149/218/1
f 155/210/1 153/203/1 156/205/1
f 157/208/1 154/207/1 158/216/1
f 148/204/1 153/203/1 117/211/1
f 151/209/1 150/212/1 153/203/1
f 151/215/1 154/207/1 150/217/1
f 152/206/1 149/218/1 154/207/1
f 165/221/3 167/222/4 133/223/5
f 162/224/5 168/225/4 164/226/3
f 163/227/5 166/228/4 165/221/3
f 128/229/6 127/230/6 160/231/6 161/232/6
f 164/226/3 169/233/4 163/234/5
f 161/235/6 160/236/6 159/237/6 76/238/6
f 128/229/7 161/232/7 165/221/3
f 161/235/7 76/238/7 164/226/3
f 166/228/4 167/222/4 165/221/3
f 168/225/4 169/233/4 164/226/3
f 133/223/5 128/229/7 165/221/3
f 163/227/5 165/221/3 161/232/7
f 163/234/5 161/235/7 164/226/3
f 162/224/5 164/226/3 76/238/7
f 171/239/8 167/222/9 166/228/10 170/240/11
f 170/240/11 166/228/10 163/227/12 172/241/13
f 175/242/8 169/233/9 168/225/10 174/243/11
f 172/244/22 163/234/23 169/233/9 175/242/8
f 174/243/11 168/225/10 162/224/12 176/245/13
f 173/246/22 133/223/23 167/222/9 171/239/8
f 148/204/24 173/246/22 171/239/8 156/205/25
f 157/208/26 174/243/11 176/245/13 152/206/27
f 151/215/24 172/244/22 175/242/8 158/216/25
f 158/216/25 175/242/8 174/243/11 157/208/26
f 155/210/26 170/240/11 172/241/13 151/209/27
f 156/205/25 171/239/8 170/240/11 155/210/26
