# Blender v3.4.1 OBJ File: 'Tiny_Treats_Bakery_Building_ASSETS_EXPORT.blend'
# www.blender.org
mtllib bakery_B_door.mtl
o bakery_B_door
v -2.400028 0.300000 1.737500
v -2.400012 2.800000 1.737500
v -1.000012 0.300000 1.737500
v -1.000012 2.800000 1.737500
v -2.100026 0.700000 2.012500
v -2.100014 2.400001 2.012500
v -1.300012 2.400001 2.012500
v -1.300012 0.700000 2.012500
v -1.000012 2.800000 2.062500
v -1.000012 0.300000 2.062500
v -2.400028 0.300000 2.062500
v -2.400012 2.800000 2.062500
v -1.150012 2.550000 2.062500
v -1.150012 0.550000 2.062500
v -2.250027 0.550000 2.062500
v -2.250014 2.550000 2.062500
v -1.150012 2.550000 2.092500
v -1.170012 2.530000 2.112500
v -1.170012 0.570000 2.112500
v -1.150012 0.550000 2.092500
v -2.250027 0.550000 2.092500
v -2.230026 0.570000 2.112500
v -2.230014 2.530000 2.112500
v -2.250014 2.550000 2.092500
v -1.280012 2.420001 2.112500
v -1.300012 2.400001 2.092500
v -1.300012 0.700000 2.092500
v -1.280012 0.680000 2.112500
v -2.120026 0.680000 2.112500
v -2.100026 0.700000 2.092500
v -2.100014 2.400001 2.092500
v -2.120014 2.420001 2.112500
v -2.250005 1.359264 2.185337
v -2.141165 1.442410 2.266189
v -2.291577 1.442410 2.316160
v -2.384537 1.442410 2.185337
v -2.291577 1.442410 2.054513
v -2.141165 1.442410 2.104484
v -2.208432 1.576946 2.316160
v -2.358844 1.576946 2.266189
v -2.358844 1.576946 2.104484
v -2.208432 1.576946 2.054513
v -2.115472 1.576945 2.185337
v -2.250005 1.660091 2.185337
v -2.274440 1.381728 2.262232
v -2.186031 1.381728 2.232860
v -2.210466 1.430600 2.309756
v -2.122057 1.430600 2.185337
v -2.186031 1.381728 2.137813
v -2.329081 1.381728 2.185337
v -2.353516 1.430600 2.262232
v -2.274440 1.381728 2.108441
v -2.353516 1.430600 2.108441
v -2.210466 1.430600 2.060917
v -2.106954 1.509678 2.232860
v -2.106954 1.509678 2.137813
v -2.250005 1.509678 2.339128
v -2.161595 1.509678 2.309757
v -2.393055 1.509678 2.232860
v -2.338414 1.509678 2.309757
v -2.338414 1.509678 2.060916
v -2.393055 1.509678 2.137813
v -2.161595 1.509678 2.060916
v -2.250005 1.509678 2.031545
v -2.146493 1.588755 2.262232
v -2.289543 1.588756 2.309756
v -2.377952 1.588755 2.185337
v -2.289543 1.588756 2.060917
v -2.146493 1.588755 2.108441
v -2.225569 1.637627 2.262232
v -2.170928 1.637627 2.185337
v -2.313978 1.637627 2.232860
v -2.313978 1.637627 2.137813
v -2.225569 1.637627 2.108441
vt 0.515820 0.693370
vt 0.609894 0.693370
vt 0.609894 0.693370
vt 0.515820 0.693370
vt 0.609894 0.525380
vt 0.609894 0.525380
vt 0.515819 0.525380
vt 0.515819 0.525380
vt 0.991297 0.241297
vt 0.758703 0.241297
vt 0.758703 0.008703
vt 0.991297 0.008703
vt 0.599816 0.683291
vt 0.599816 0.535459
vt 0.525899 0.535459
vt 0.525900 0.683291
vt 0.284636 0.924555
vt 0.341080 0.924555
vt 0.348471 0.931947
vt 0.277243 0.931947
vt 0.285978 0.795539
vt 0.285978 0.923211
vt 0.285978 0.923211
vt 0.285978 0.795539
vt 0.349816 0.785459
vt 0.349816 0.933291
vt 0.349816 0.933291
vt 0.349816 0.785459
vt 0.275899 0.785459
vt 0.275899 0.785459
vt 0.339735 0.923211
vt 0.339735 0.795539
vt 0.339735 0.795539
vt 0.339735 0.923211
vt 0.341080 0.794195
vt 0.348471 0.786803
vt 0.275900 0.933291
vt 0.275900 0.933291
vt 0.284634 0.794195
vt 0.277242 0.786803
vt 0.168183 0.337121
vt 0.172753 0.339095
vt 0.166437 0.339095
vt 0.175958 0.344430
vt 0.177323 0.343392
vt 0.162534 0.339095
vt 0.166437 0.339095
vt 0.172753 0.339095
vt 0.178402 0.350344
vt 0.165213 0.344430
vt 0.171007 0.343392
vt 0.168183 0.350344
vt 0.158572 0.344430
vt 0.160788 0.343392
vt 0.157964 0.350344
vt 0.165213 0.344430
vt 0.160788 0.343392
vt 0.161867 0.350344
vt 0.175958 0.344430
vt 0.171007 0.343392
vt 0.174498 0.350344
vt 0.174498 0.350344
vt 0.161867 0.350344
vt 0.157964 0.350344
vt 0.168183 0.350344
vt 0.178402 0.350344
vt 0.171152 0.356257
vt 0.175577 0.357296
vt 0.169928 0.361592
vt 0.160408 0.356257
vt 0.165358 0.357296
vt 0.163613 0.361592
vt 0.160408 0.356257
vt 0.159043 0.357296
vt 0.163613 0.361592
vt 0.171152 0.356257
vt 0.165358 0.357296
vt 0.169928 0.361592
vt 0.177793 0.356257
vt 0.175577 0.357296
vt 0.173832 0.361592
vt 0.168183 0.363567
vn 0.0000 1.0000 0.0000
vn 1.0000 0.0000 0.0000
vn -1.0000 0.0000 -0.0000
vn 0.0000 -1.0000 0.0000
vn -0.0000 0.0000 1.0000
vn 0.0000 0.0000 -1.0000
vn 0.1101 -0.1101 0.9878
vn -0.1100 -0.1101 0.9878
vn 0.3002 0.3002 0.9054
vn -0.3002 0.3002 0.9054
vn 0.8959 -0.0000 0.4444
vn 0.9576 0.0000 0.2880
vn 0.0000 -0.9576 0.2880
vn -0.8959 0.0000 0.4444
vn -0.1100 0.1100 0.9878
vn 0.3002 -0.3002 0.9054
vn -0.9576 0.0000 0.2880
vn 0.1100 0.1100 0.9878
vn -0.3002 -0.3002 0.9054
vn -0.0000 0.8959 0.4444
vn 0.0000 -0.8959 0.4443
vn 0.0000 0.9576 0.2880
vn 0.4259 -0.8521 0.3042
vn -0.1630 -0.8545 0.4933
vn 0.7272 -0.4494 0.5189
vn 0.8507 -0.5257 -0.0000
vn -0.5257 -0.8506 -0.0000
vn -0.1630 -0.8545 -0.4933
vn 0.4259 -0.8521 -0.3042
vn 0.9526 0.0002 0.3042
vn -0.2800 -0.4530 0.8464
vn 0.2661 -0.5315 0.8042
vn -0.8944 -0.4472 -0.0000
vn -0.6914 -0.5279 0.4933
vn -0.9526 -0.0002 0.3042
vn -0.2800 -0.4530 -0.8464
vn -0.6914 -0.5279 -0.4933
vn -0.5944 0.0003 -0.8042
vn 0.7272 -0.4494 -0.5189
vn 0.2661 -0.5315 -0.8042
vn 0.5944 -0.0003 -0.8042
vn 0.5944 -0.0003 0.8042
vn -0.5944 0.0003 0.8042
vn -0.9526 -0.0002 -0.3042
vn 0.9526 0.0002 -0.3042
vn 0.2800 0.4530 0.8464
vn 0.6914 0.5279 0.4933
vn 0.1630 0.8545 0.4933
vn -0.7272 0.4494 0.5189
vn -0.2661 0.5315 0.8042
vn -0.4259 0.8521 0.3042
vn -0.7272 0.4494 -0.5189
vn -0.8507 0.5257 -0.0000
vn -0.4259 0.8521 -0.3042
vn 0.2800 0.4530 -0.8464
vn -0.2661 0.5315 -0.8042
vn 0.1630 0.8545 -0.4933
vn 0.8944 0.4472 -0.0000
vn 0.6914 0.5279 -0.4933
vn 0.5257 0.8506 0.0000
usemtl tiny_treats_1
s 1
f 12/1/1 9/2/1 4/3/1 2/4/1
f 10/5/2 3/6/2 4/3/2 9/2/2
f 11/7/3 12/1/3 2/4/3 1/8/3
f 1/8/4 3/6/4 10/5/4 11/7/4
f 7/9/5 6/10/5 5/11/5 8/12/5
f 2/4/6 4/3/6 3/6/6 1/8/6
f 13/13/5 14/14/5 10/5/5 9/2/5
f 15/15/5 16/16/5 12/1/5 11/7/5
f 16/16/5 13/13/5 9/2/5 12/1/5
f 14/14/5 15/15/5 11/7/5 10/5/5
f 32/17/7 25/18/8 18/19/9 23/20/10
f 5/21/2 6/22/2 31/23/11 30/24/11
f 14/25/2 13/26/2 17/27/12 20/28/12
f 15/29/4 14/25/4 20/28/13 21/30/13
f 7/31/3 8/32/3 27/33/14 26/34/14
f 25/18/8 28/35/15 19/36/16 18/19/9
f 16/37/3 15/29/3 21/30/17 24/38/17
f 28/35/15 29/39/18 22/40/19 19/36/16
f 29/39/18 32/17/7 23/20/10 22/40/19
f 8/32/1 5/21/1 30/24/20 27/33/20
f 6/22/4 7/31/4 26/34/21 31/23/21
f 18/19/9 19/36/16 20/28/12 17/27/12
f 22/40/19 23/20/10 24/38/17 21/30/17
f 23/20/10 18/19/9 17/27/22 24/38/22
f 21/30/13 20/28/13 19/36/16 22/40/19
f 26/34/14 27/33/14 28/35/15 25/18/8
f 30/24/11 31/23/11 32/17/7 29/39/18
f 31/23/21 26/34/21 25/18/8 32/17/7
f 29/39/18 28/35/15 27/33/20 30/24/20
f 13/26/1 16/37/1 24/38/22 17/27/22
f 33/41/4 46/42/23 45/43/24
f 34/44/25 46/42/23 48/45/26
f 33/41/4 45/43/24 50/46/27
f 33/41/4 50/46/27 52/47/28
f 33/41/4 52/47/28 49/48/29
f 34/44/25 48/45/26 55/49/30
f 35/50/31 47/51/32 57/52/5
f 36/53/33 51/54/34 59/55/35
f 37/56/36 53/57/37 61/58/38
f 38/59/39 54/60/40 63/61/41
f 34/44/25 55/49/30 58/62/42
f 35/50/31 57/52/5 60/63/43
f 36/53/33 59/55/35 62/64/44
f 37/56/36 61/58/38 64/65/6
f 38/59/39 63/61/41 56/66/45
f 39/67/46 65/68/47 70/69/48
f 40/70/49 66/71/50 72/72/51
f 41/73/52 67/74/53 73/75/54
f 42/76/55 68/77/56 74/78/57
f 43/79/58 69/80/59 71/81/60
f 71/81/60 74/78/57 44/82/1
f 71/81/60 69/80/59 74/78/57
f 69/80/59 42/76/55 74/78/57
f 74/78/57 73/75/54 44/82/1
f 74/78/57 68/77/56 73/75/54
f 68/77/56 41/73/52 73/75/54
f 73/75/54 72/72/51 44/82/1
f 73/75/54 67/74/53 72/72/51
f 67/74/53 40/70/49 72/72/51
f 72/72/51 70/69/48 44/82/1
f 72/72/51 66/71/50 70/69/48
f 66/71/50 39/67/46 70/69/48
f 70/69/48 71/81/60 44/82/1
f 70/69/48 65/68/47 71/81/60
f 65/68/47 43/79/58 71/81/60
f 56/66/45 69/80/59 43/79/58
f 56/66/45 63/61/41 69/80/59
f 63/61/41 42/76/55 69/80/59
f 64/65/6 68/77/56 42/76/55
f 64/65/6 61/58/38 68/77/56
f 61/58/38 41/73/52 68/77/56
f 62/64/44 67/74/53 41/73/52
f 62/64/44 59/55/35 67/74/53
f 59/55/35 40/70/49 67/74/53
f 60/63/43 66/71/50 40/70/49
f 60/63/43 57/52/5 66/71/50
f 57/52/5 39/67/46 66/71/50
f 58/62/42 65/68/47 39/67/46
f 58/62/42 55/49/30 65/68/47
f 55/49/30 43/79/58 65/68/47
f 63/61/41 64/65/6 42/76/55
f 63/61/41 54/60/40 64/65/6
f 54/60/40 37/56/36 64/65/6
f 61/58/38 62/64/44 41/73/52
f 61/58/38 53/57/37 62/64/44
f 53/57/37 36/53/33 62/64/44
f 59/55/35 60/63/43 40/70/49
f 59/55/35 51/54/34 60/63/43
f 51/54/34 35/50/31 60/63/43
f 57/52/5 58/62/42 39/67/46
f 57/52/5 47/51/32 58/62/42
f 47/51/32 34/44/25 58/62/42
f 55/49/30 56/66/45 43/79/58
f 55/49/30 48/45/26 56/66/45
f 48/45/26 38/59/39 56/66/45
f 49/48/29 54/60/40 38/59/39
f 49/48/29 52/47/28 54/60/40
f 52/47/28 37/56/36 54/60/40
f 52/47/28 53/57/37 37/56/36
f 52/47/28 50/46/27 53/57/37
f 50/46/27 36/53/33 53/57/37
f 50/46/27 51/54/34 36/53/33
f 50/46/27 45/43/24 51/54/34
f 45/43/24 35/50/31 51/54/34
f 48/45/26 49/48/29 38/59/39
f 48/45/26 46/42/23 49/48/29
f 46/42/23 33/41/4 49/48/29
f 45/43/24 47/51/32 35/50/31
f 45/43/24 46/42/23 47/51/32
f 46/42/23 34/44/25 47/51/32
