# Blender v3.4.1 OBJ File: 'Tiny_Treats_Bakery_Building_ASSETS_EXPORT.blend'
# www.blender.org
mtllib coffee_cup_takeaway.mtl
o coffee_cup_takeaway
v 0.108966 0.340000 -0.108966
v 0.148851 0.340000 -0.039884
v 0.148851 0.340000 0.039884
v 0.108966 0.340000 0.108966
v 0.039884 0.340000 0.148851
v -0.039884 0.340000 0.148851
v -0.108966 0.340000 0.108966
v -0.148851 0.340000 0.039884
v -0.148851 0.340000 -0.039885
v -0.108966 0.340000 -0.108966
v -0.039885 0.340000 -0.148851
v 0.039884 0.340000 -0.148851
v 0.099159 0.050000 -0.099159
v 0.135454 0.050000 -0.036295
v 0.135454 0.050000 0.036295
v 0.099159 0.050000 0.099159
v 0.036295 0.050000 0.135454
v -0.036295 0.050000 0.135454
v -0.099159 0.050000 0.099159
v -0.135454 0.050000 0.036295
v -0.135454 0.050000 -0.036295
v -0.099159 0.050000 -0.099159
v -0.036295 0.050000 -0.135454
v 0.036295 0.050000 -0.135454
v 0.162914 0.420000 -0.043653
v 0.119261 0.420000 -0.119261
v 0.162914 0.420000 0.043653
v 0.119261 0.420000 0.119261
v 0.043653 0.420000 0.162914
v -0.043653 0.420000 0.162914
v -0.119261 0.420000 0.119261
v -0.162914 0.420000 0.043653
v -0.162914 0.420000 -0.043653
v -0.119261 0.420000 -0.119261
v -0.043653 0.420000 -0.162914
v 0.043653 0.420000 -0.162914
v -0.000000 0.470000 -0.000000
v 0.200000 0.354813 -0.053590
v 0.187455 0.340000 -0.050228
v 0.137227 0.340000 -0.137227
v 0.146410 0.354813 -0.146410
v 0.200000 0.354813 0.053590
v 0.187455 0.340000 0.050228
v 0.146410 0.354813 0.146410
v 0.137227 0.340000 0.137227
v 0.053590 0.354813 0.200000
v 0.050228 0.340000 0.187455
v -0.053590 0.354813 0.200000
v -0.050228 0.340000 0.187455
v -0.146410 0.354813 0.146410
v -0.137227 0.340000 0.137227
v -0.200000 0.354813 0.053590
v -0.187455 0.340000 0.050228
v -0.200000 0.354813 -0.053590
v -0.187455 0.340000 -0.050228
v -0.146410 0.354813 -0.146410
v -0.137227 0.340000 -0.137227
v -0.053590 0.354813 -0.200000
v -0.050229 0.340000 -0.187455
v 0.053590 0.354813 -0.200000
v 0.050228 0.340000 -0.187455
v 0.173236 0.420000 -0.046419
v 0.190462 0.405187 -0.051034
v 0.139428 0.405187 -0.139428
v 0.126818 0.420000 -0.126818
v 0.173236 0.420000 0.046419
v 0.190462 0.405187 0.051034
v 0.126818 0.420000 0.126818
v 0.139428 0.405187 0.139428
v 0.046419 0.420000 0.173236
v 0.051034 0.405187 0.190462
v -0.046419 0.420000 0.173236
v -0.051034 0.405187 0.190462
v -0.126818 0.420000 0.126818
v -0.139428 0.405187 0.139428
v -0.173236 0.420000 0.046419
v -0.190462 0.405187 0.051034
v -0.173236 0.420000 -0.046419
v -0.190462 0.405187 -0.051034
v -0.126818 0.420000 -0.126818
v -0.139428 0.405187 -0.139428
v -0.046419 0.420000 -0.173236
v -0.051034 0.405187 -0.190462
v 0.046419 0.420000 -0.173236
v 0.051034 0.405187 -0.190462
v 0.095263 0.485402 -0.025526
v 0.113571 0.500000 -0.030431
v 0.083140 0.500000 -0.083140
v 0.069737 0.485402 -0.069737
v 0.095263 0.485402 0.025526
v 0.113571 0.500000 0.030431
v 0.069737 0.485402 0.069737
v 0.083140 0.500000 0.083140
v 0.025526 0.485402 0.095263
v 0.030431 0.500000 0.113571
v -0.025526 0.485402 0.095263
v -0.030431 0.500000 0.113571
v -0.069737 0.485402 0.069737
v -0.083140 0.500000 0.083139
v -0.095263 0.485402 0.025526
v -0.113571 0.500000 0.030431
v -0.095263 0.485402 -0.025526
v -0.113571 0.500000 -0.030431
v -0.069737 0.485402 -0.069737
v -0.083140 0.500000 -0.083140
v -0.025526 0.485402 -0.095263
v -0.030431 0.500000 -0.113571
v 0.025526 0.485402 -0.095263
v 0.030431 0.500000 -0.113571
v 0.131737 0.500000 -0.035299
v 0.150021 0.485396 -0.040198
v 0.109823 0.485396 -0.109823
v 0.096438 0.500000 -0.096438
v 0.131737 0.500000 0.035299
v 0.150021 0.485396 0.040198
v 0.096438 0.500000 0.096438
v 0.109823 0.485396 0.109823
v 0.035299 0.500000 0.131737
v 0.040198 0.485396 0.150021
v -0.035299 0.500000 0.131737
v -0.040198 0.485396 0.150021
v -0.096438 0.500000 0.096438
v -0.109823 0.485396 0.109823
v -0.131737 0.500000 0.035299
v -0.150021 0.485396 0.040198
v -0.131737 0.500000 -0.035299
v -0.150021 0.485396 -0.040198
v -0.096438 0.500000 -0.096438
v -0.109823 0.485396 -0.109823
v -0.035299 0.500000 -0.131737
v -0.040198 0.485396 -0.150021
v 0.035299 0.500000 -0.131737
v 0.040198 0.485396 -0.150021
v -0.000000 0.000000 -0.000000
v 0.098397 0.014993 -0.098397
v 0.134412 0.014993 -0.036016
v 0.134412 0.014993 0.036016
v 0.098397 0.014993 0.098397
v 0.036016 0.014993 0.134412
v -0.036016 0.014993 0.134412
v -0.098397 0.014993 0.098397
v -0.134412 0.014993 0.036016
v -0.134412 0.014993 -0.036016
v -0.098397 0.014993 -0.098397
v -0.036016 0.014993 -0.134412
v 0.036016 0.014993 -0.134412
v 0.091652 0.470000 -0.024558
v 0.067094 0.470000 -0.067094
v 0.091652 0.470000 0.024558
v 0.067094 0.470000 0.067094
v 0.024558 0.470000 0.091652
v -0.024558 0.470000 0.091652
v -0.067094 0.470000 0.067094
v -0.091652 0.470000 0.024558
v -0.091652 0.470000 -0.024558
v -0.067094 0.470000 -0.067094
v -0.024558 0.470000 -0.091652
v 0.024558 0.470000 -0.091652
v 0.119081 0.000000 -0.031908
v 0.087173 0.000000 -0.087173
v 0.119081 0.000000 0.031908
v 0.087173 0.000000 0.087173
v 0.031908 0.000000 0.119081
v -0.031908 0.000000 0.119081
v -0.087173 0.000000 0.087173
v -0.119081 0.000000 0.031908
v -0.119081 0.000000 -0.031908
v -0.087173 0.000000 -0.087173
v -0.031908 0.000000 -0.119081
v 0.031908 0.000000 -0.119081
vt 0.701503 0.783122
vt 0.702886 0.886271
vt 0.708521 0.886271
vt 0.706631 0.783122
vt 0.708521 0.886271
vt 0.706631 0.783122
vt 0.702886 0.886271
vt 0.701503 0.783122
vt 0.693129 0.886271
vt 0.692619 0.783122
vt 0.681863 0.886271
vt 0.682373 0.783122
vt 0.672106 0.886271
vt 0.673490 0.783122
vt 0.666471 0.886271
vt 0.668361 0.783122
vt 0.666471 0.886271
vt 0.668361 0.783122
vt 0.672106 0.886271
vt 0.673490 0.783122
vt 0.681863 0.886271
vt 0.682373 0.783122
vt 0.409248 0.888347
vt 0.409248 0.888347
vt 0.410593 0.895408
vt 0.410593 0.895408
vt 0.693129 0.886271
vt 0.692619 0.783122
vt 0.442584 0.871965
vt 0.442619 0.783122
vt 0.451503 0.783122
vt 0.451393 0.871965
vt 0.456479 0.871965
vt 0.456631 0.783122
vt 0.456631 0.783122
vt 0.456479 0.871965
vt 0.432408 0.871965
vt 0.432373 0.783122
vt 0.423599 0.871965
vt 0.423490 0.783122
vt 0.418514 0.871965
vt 0.418361 0.783122
vt 0.418514 0.871965
vt 0.418361 0.783122
vt 0.423599 0.871965
vt 0.423490 0.783122
vt 0.432408 0.871965
vt 0.432373 0.783122
vt 0.442584 0.871965
vt 0.442619 0.783122
vt 0.451393 0.871965
vt 0.451503 0.783122
vt 0.416815 0.888347
vt 0.429924 0.888347
vt 0.430288 0.895408
vt 0.417802 0.895408
vt 0.445068 0.888347
vt 0.444704 0.895408
vt 0.431863 0.855021
vt 0.443129 0.855021
vt 0.444594 0.855021
vt 0.430398 0.855021
vt 0.458178 0.888347
vt 0.465744 0.888347
vt 0.464399 0.895408
vt 0.457190 0.895408
vt 0.465744 0.888347
vt 0.464399 0.895408
vt 0.454341 0.928734
vt 0.460510 0.928734
vt 0.461964 0.928734
vt 0.455410 0.928734
vt 0.458521 0.855021
vt 0.452886 0.855021
vt 0.456879 0.855021
vt 0.463975 0.855021
vt 0.445068 0.888347
vt 0.429924 0.888347
vt 0.430288 0.895408
vt 0.444704 0.895408
vt 0.416815 0.888347
vt 0.417802 0.895408
vt 0.443660 0.897484
vt 0.431333 0.897484
vt 0.431821 0.906651
vt 0.443171 0.906651
vt 0.443129 0.855021
vt 0.444594 0.855021
vt 0.458178 0.888347
vt 0.457190 0.895408
vt 0.422106 0.855021
vt 0.416471 0.855021
vt 0.411017 0.855021
vt 0.418114 0.855021
vt 0.422106 0.855021
vt 0.418114 0.855021
vt 0.452886 0.855021
vt 0.458521 0.855021
vt 0.463975 0.855021
vt 0.456879 0.855021
vt 0.431863 0.855021
vt 0.430398 0.855021
vt 0.416471 0.855021
vt 0.411017 0.855021
vt 0.460510 0.928734
vt 0.461964 0.928734
vt 0.443660 0.928734
vt 0.444052 0.928734
vt 0.454341 0.928734
vt 0.443660 0.928734
vt 0.444052 0.928734
vt 0.455410 0.928734
vt 0.431333 0.928734
vt 0.430940 0.928734
vt 0.420651 0.928734
vt 0.419582 0.928734
vt 0.414482 0.928734
vt 0.413028 0.928734
vt 0.414482 0.928734
vt 0.413028 0.928734
vt 0.420651 0.928734
vt 0.419582 0.928734
vt 0.431333 0.928734
vt 0.430940 0.928734
vt 0.450954 0.906652
vt 0.447348 0.906652
vt 0.446972 0.904493
vt 0.450441 0.904493
vt 0.427645 0.906652
vt 0.433891 0.906652
vt 0.434026 0.904493
vt 0.428020 0.904493
vt 0.414482 0.897484
vt 0.414482 0.897484
vt 0.416305 0.906651
vt 0.416305 0.906651
vt 0.431333 0.897484
vt 0.443660 0.897484
vt 0.443171 0.906651
vt 0.431821 0.906651
vt 0.460510 0.897484
vt 0.460510 0.897484
vt 0.458687 0.906651
vt 0.458687 0.906651
vt 0.420651 0.897484
vt 0.421986 0.906651
vt 0.420651 0.897484
vt 0.421986 0.906651
vt 0.454341 0.897484
vt 0.453007 0.906651
vt 0.454341 0.897484
vt 0.453007 0.906651
vt 0.450954 0.906652
vt 0.450441 0.904493
vt 0.449237 0.939948
vt 0.453538 0.939948
vt 0.456104 0.939948
vt 0.451117 0.939948
vt 0.441101 0.906652
vt 0.447348 0.906652
vt 0.446972 0.904493
vt 0.440966 0.904493
vt 0.441794 0.939948
vt 0.433198 0.939948
vt 0.432508 0.939948
vt 0.442485 0.939948
vt 0.424038 0.906652
vt 0.424551 0.904493
vt 0.424038 0.906652
vt 0.424551 0.904493
vt 0.427645 0.906652
vt 0.428020 0.904493
vt 0.433891 0.906652
vt 0.434026 0.904493
vt 0.441101 0.906652
vt 0.440966 0.904493
vt 0.441794 0.939948
vt 0.442485 0.939948
vt 0.421455 0.939948
vt 0.425755 0.939948
vt 0.423875 0.939948
vt 0.418889 0.939948
vt 0.425755 0.939948
vt 0.423875 0.939948
vt 0.453538 0.939948
vt 0.449237 0.939948
vt 0.451117 0.939948
vt 0.456104 0.939948
vt 0.433198 0.939948
vt 0.432508 0.939948
vt 0.421455 0.939948
vt 0.418889 0.939948
vt 0.458178 0.857097
vt 0.465744 0.857097
vt 0.465744 0.857097
vt 0.458178 0.857097
vt 0.445068 0.857097
vt 0.429924 0.857097
vt 0.416815 0.857097
vt 0.409248 0.857097
vt 0.409248 0.857097
vt 0.416815 0.857097
vt 0.429924 0.857097
vt 0.445068 0.857097
vt 0.464399 0.926658
vt 0.457190 0.926658
vt 0.464399 0.926658
vt 0.457190 0.926658
vt 0.444704 0.926658
vt 0.430288 0.926658
vt 0.417802 0.926658
vt 0.410593 0.926658
vt 0.410593 0.926658
vt 0.417802 0.926658
vt 0.430288 0.926658
vt 0.444704 0.926658
vt 0.458687 0.937901
vt 0.453007 0.937901
vt 0.458687 0.937901
vt 0.453007 0.937901
vt 0.443171 0.937901
vt 0.431821 0.937901
vt 0.421986 0.937901
vt 0.416305 0.937901
vt 0.416305 0.937901
vt 0.421986 0.937901
vt 0.431821 0.937901
vt 0.443171 0.937901
vt 0.447348 0.937902
vt 0.450954 0.937902
vt 0.450954 0.937902
vt 0.447348 0.937902
vt 0.441101 0.937902
vt 0.433891 0.937902
vt 0.427645 0.937902
vt 0.424038 0.937902
vt 0.424038 0.937902
vt 0.427645 0.937902
vt 0.433891 0.937902
vt 0.441101 0.937902
vt 0.451393 0.840715
vt 0.456479 0.840715
vt 0.454316 0.807363
vt 0.449811 0.807363
vt 0.456479 0.840715
vt 0.454316 0.807363
vt 0.451393 0.840715
vt 0.449811 0.807363
vt 0.442584 0.840715
vt 0.442003 0.807363
vt 0.432408 0.840715
vt 0.432989 0.807363
vt 0.423599 0.840715
vt 0.425181 0.807363
vt 0.418514 0.840715
vt 0.420676 0.807363
vt 0.418514 0.840715
vt 0.420676 0.807363
vt 0.423599 0.840715
vt 0.425181 0.807363
vt 0.432408 0.840715
vt 0.432989 0.807363
vt 0.442584 0.840715
vt 0.442003 0.807363
vt 0.437498 0.935743
vt 0.450441 0.935743
vt 0.446972 0.935743
vt 0.450441 0.935743
vt 0.446972 0.935743
vt 0.440966 0.935743
vt 0.434026 0.935743
vt 0.428020 0.935743
vt 0.424551 0.935743
vt 0.424551 0.935743
vt 0.428020 0.935743
vt 0.434026 0.935743
vt 0.440966 0.935743
vt 0.437498 0.807363
vn 0.7066 -0.0393 -0.7066
vn 0.7063 -0.0478 -0.7063
vn 0.9648 -0.0478 -0.2585
vn 0.9652 -0.0393 -0.2586
vn 0.9648 -0.0478 0.2585
vn 0.9652 -0.0393 0.2586
vn 0.7063 -0.0478 0.7063
vn 0.7066 -0.0393 0.7066
vn 0.2585 -0.0478 0.9648
vn 0.2586 -0.0393 0.9652
vn -0.2585 -0.0478 0.9648
vn -0.2586 -0.0393 0.9652
vn -0.7063 -0.0478 0.7063
vn -0.7066 -0.0393 0.7066
vn -0.9648 -0.0478 0.2585
vn -0.9652 -0.0393 0.2586
vn -0.9648 -0.0478 -0.2585
vn -0.9652 -0.0393 -0.2586
vn -0.7063 -0.0478 -0.7063
vn -0.7066 -0.0393 -0.7066
vn -0.2585 -0.0478 -0.9648
vn -0.2586 -0.0393 -0.9652
vn -0.9369 -0.2435 -0.2510
vn -0.9369 -0.2435 0.2510
vn -0.8434 0.4875 0.2260
vn -0.8434 0.4875 -0.2260
vn 0.2585 -0.0478 -0.9648
vn 0.2586 -0.0393 -0.9652
vn 0.2385 -0.3881 -0.8902
vn 0.6517 -0.3881 -0.6517
vn 0.8902 -0.3881 -0.2385
vn 0.8902 -0.3881 0.2385
vn -0.2385 -0.3881 -0.8902
vn -0.6517 -0.3881 -0.6517
vn -0.8902 -0.3881 -0.2385
vn -0.8902 -0.3881 0.2385
vn -0.6517 -0.3881 0.6517
vn -0.2385 -0.3881 0.8902
vn 0.2385 -0.3881 0.8902
vn 0.6517 -0.3881 0.6517
vn -0.6858 -0.2435 0.6858
vn -0.2510 -0.2435 0.9369
vn -0.2260 0.4875 0.8434
vn -0.6174 0.4875 0.6174
vn 0.2510 -0.2435 0.9369
vn 0.2260 0.4875 0.8434
vn 0.0000 -1.0000 -0.0000
vn 0.1207 -0.8845 0.4506
vn -0.1207 -0.8845 0.4506
vn 0.6858 -0.2435 0.6858
vn 0.9369 -0.2435 0.2510
vn 0.8434 0.4875 0.2260
vn 0.6174 0.4875 0.6174
vn 0.9369 -0.2435 -0.2510
vn 0.8434 0.4875 -0.2260
vn 0.0000 1.0000 0.0000
vn 0.3745 0.9218 -0.1004
vn 0.2742 0.9218 -0.2742
vn 0.3299 -0.8845 -0.3299
vn 0.4506 -0.8845 -0.1207
vn 0.2510 -0.2435 -0.9369
vn -0.2510 -0.2435 -0.9369
vn -0.2260 0.4875 -0.8434
vn 0.2260 0.4875 -0.8434
vn -0.6858 -0.2435 -0.6858
vn -0.6174 0.4875 -0.6174
vn 0.2536 0.2000 -0.9464
vn -0.2536 0.2000 -0.9464
vn -0.2234 0.5047 -0.8339
vn 0.2234 0.5047 -0.8339
vn 0.1207 -0.8845 -0.4506
vn 0.6858 -0.2435 -0.6858
vn 0.6174 0.4875 -0.6174
vn -0.4506 -0.8845 -0.1207
vn -0.3299 -0.8845 -0.3299
vn -0.3299 -0.8845 0.3299
vn 0.4506 -0.8845 0.1207
vn 0.3299 -0.8845 0.3299
vn -0.1207 -0.8845 -0.4506
vn -0.4506 -0.8845 0.1207
vn 0.3745 0.9218 0.1004
vn 0.1004 0.9218 -0.3745
vn 0.1004 0.9218 0.3745
vn 0.2742 0.9218 0.2742
vn -0.1004 0.9218 0.3745
vn -0.2742 0.9218 0.2742
vn -0.3745 0.9218 0.1004
vn -0.3745 0.9218 -0.1004
vn -0.2742 0.9218 -0.2742
vn -0.1004 0.9218 -0.3745
vn -0.7926 0.5715 0.2124
vn -0.5802 0.5715 0.5802
vn -0.6872 0.2359 0.6872
vn -0.9387 0.2359 0.2515
vn 0.5802 0.5715 -0.5802
vn 0.2124 0.5715 -0.7926
vn 0.2515 0.2359 -0.9387
vn 0.6872 0.2359 -0.6872
vn -0.9464 0.2000 -0.2536
vn -0.9464 0.2000 0.2536
vn -0.8339 0.5047 0.2234
vn -0.8339 0.5047 -0.2234
vn -0.2536 0.2000 0.9464
vn 0.2536 0.2000 0.9464
vn 0.2234 0.5047 0.8339
vn -0.2234 0.5047 0.8339
vn 0.9464 0.2000 0.2536
vn 0.9464 0.2000 -0.2536
vn 0.8339 0.5047 -0.2234
vn 0.8339 0.5047 0.2234
vn -0.6928 0.2000 -0.6928
vn -0.6104 0.5047 -0.6104
vn -0.6928 0.2000 0.6928
vn -0.6104 0.5047 0.6104
vn 0.6928 0.2000 0.6928
vn 0.6104 0.5047 0.6104
vn 0.6928 0.2000 -0.6928
vn 0.6104 0.5047 -0.6104
vn -0.7926 0.5715 -0.2124
vn -0.9387 0.2359 -0.2515
vn -0.1928 0.9621 0.1928
vn -0.2633 0.9621 0.0706
vn 0.3565 0.9294 -0.0955
vn 0.2610 0.9294 -0.2610
vn -0.2124 0.5715 -0.7926
vn -0.5802 0.5715 -0.5802
vn -0.6872 0.2359 -0.6872
vn -0.2515 0.2359 -0.9387
vn -0.0706 0.9621 -0.2633
vn 0.0706 0.9621 -0.2633
vn -0.0955 0.9294 0.3565
vn 0.0955 0.9294 0.3565
vn 0.7926 0.5715 -0.2124
vn 0.9387 0.2359 -0.2515
vn 0.7926 0.5715 0.2124
vn 0.9387 0.2359 0.2515
vn 0.5802 0.5715 0.5802
vn 0.6872 0.2359 0.6872
vn 0.2124 0.5715 0.7926
vn 0.2515 0.2359 0.9387
vn -0.2124 0.5715 0.7926
vn -0.2515 0.2359 0.9387
vn -0.0706 0.9621 0.2633
vn 0.0955 0.9294 -0.3565
vn 0.2633 0.9621 0.0706
vn 0.1928 0.9621 0.1928
vn -0.2610 0.9294 -0.2610
vn -0.3565 0.9294 -0.0955
vn 0.1928 0.9621 -0.1928
vn -0.2610 0.9294 0.2610
vn -0.2633 0.9621 -0.0706
vn -0.1928 0.9621 -0.1928
vn 0.2610 0.9294 0.2610
vn 0.3565 0.9294 0.0955
vn 0.0706 0.9621 0.2633
vn -0.0955 0.9294 -0.3565
vn 0.2633 0.9621 -0.0706
vn -0.3565 0.9294 0.0955
vn 0.4058 -0.9075 -0.1087
vn 0.2971 -0.9075 -0.2971
vn 0.4058 -0.9075 0.1087
vn 0.2971 -0.9075 0.2971
vn 0.1087 -0.9075 0.4058
vn -0.1087 -0.9075 0.4058
vn -0.2971 -0.9075 0.2971
vn -0.4058 -0.9075 0.1087
vn -0.4058 -0.9075 -0.1087
vn -0.2971 -0.9075 -0.2971
vn -0.1087 -0.9075 -0.4058
vn 0.1087 -0.9075 -0.4058
usemtl tiny_treats_1
s 1
f 13/1/1 1/2/2 2/3/3 14/4/4
f 14/4/4 2/3/3 3/5/5 15/6/6
f 15/6/6 3/5/5 4/7/7 16/8/8
f 16/8/8 4/7/7 5/9/9 17/10/10
f 17/10/10 5/9/9 6/11/11 18/12/12
f 18/12/12 6/11/11 7/13/13 19/14/14
f 19/14/14 7/13/13 8/15/15 20/16/16
f 20/16/16 8/15/15 9/17/17 21/18/18
f 21/18/18 9/17/17 10/19/19 22/20/20
f 22/20/20 10/19/19 11/21/21 23/22/22
f 54/23/23 52/24/24 77/25/25 79/26/26
f 23/22/22 11/21/21 12/27/27 24/28/28
f 24/28/28 12/27/27 1/2/2 13/1/1
f 146/29/29 24/30/28 13/31/1 135/32/30
f 136/33/31 14/34/4 15/35/6 137/36/32
f 145/37/33 23/38/22 24/30/28 146/29/29
f 144/39/34 22/40/20 23/38/22 145/37/33
f 143/41/35 21/42/18 22/40/20 144/39/34
f 142/43/36 20/44/16 21/42/18 143/41/35
f 141/45/37 19/46/14 20/44/16 142/43/36
f 140/47/38 18/48/12 19/46/14 141/45/37
f 139/49/39 17/50/10 18/48/12 140/47/38
f 138/51/40 16/52/8 17/50/10 139/49/39
f 137/36/32 15/35/6 16/52/8 138/51/40
f 50/53/41 48/54/42 73/55/43 75/56/44
f 52/24/24 50/53/41 75/56/44 77/25/25
f 48/54/42 46/57/45 71/58/46 73/55/43
f 6/59/47 5/60/47 47/61/48 49/62/49
f 44/63/50 42/64/51 67/65/52 69/66/53
f 42/64/51 38/67/54 63/68/55 67/65/52
f 46/57/45 44/63/50 69/66/53 71/58/46
f 26/69/56 25/70/56 62/71/57 65/72/58
f 2/73/47 1/74/47 40/75/59 39/76/60
f 60/77/61 58/78/62 83/79/63 85/80/64
f 58/78/62 56/81/65 81/82/66 83/79/63
f 56/81/65 54/23/23 79/26/26 81/82/66
f 36/83/67 35/84/68 131/85/69 133/86/70
f 1/74/47 12/87/47 61/88/71 40/75/59
f 41/89/72 60/77/61 85/80/64 64/90/73
f 10/91/47 9/92/47 55/93/74 57/94/75
f 7/95/47 6/59/47 49/62/49 51/96/76
f 4/97/47 3/98/47 43/99/77 45/100/78
f 11/101/47 10/91/47 57/94/75 59/102/79
f 8/103/47 7/95/47 51/96/76 53/104/80
f 5/60/47 4/97/47 45/100/78 47/61/48
f 12/87/47 11/101/47 59/102/79 61/88/71
f 3/98/47 2/73/47 39/76/60 43/99/77
f 9/92/47 8/103/47 53/104/80 55/93/74
f 25/70/56 27/105/56 66/106/81 62/71/57
f 36/107/56 26/69/56 65/72/58 84/108/82
f 28/109/56 29/110/56 70/111/83 68/112/84
f 29/110/56 30/113/56 72/114/85 70/111/83
f 30/113/56 31/115/56 74/116/86 72/114/85
f 31/115/56 32/117/56 76/118/87 74/116/86
f 32/117/56 33/119/56 78/120/88 76/118/87
f 33/119/56 34/121/56 80/122/89 78/120/88
f 34/121/56 35/123/56 82/124/90 80/122/89
f 35/123/56 36/107/56 84/108/82 82/124/90
f 86/125/91 89/126/92 148/127/93 147/128/94
f 27/105/56 28/109/56 68/112/84 66/106/81
f 98/129/95 96/130/96 152/131/97 153/132/98
f 33/133/99 32/134/100 125/135/101 127/136/102
f 30/137/103 29/138/104 119/139/105 121/140/106
f 27/141/107 25/142/108 111/143/109 115/144/110
f 34/145/111 33/133/99 127/136/102 129/146/112
f 31/147/113 30/137/103 121/140/106 123/148/114
f 28/149/115 27/141/107 115/144/110 117/150/116
f 26/151/117 36/83/67 133/86/70 112/152/118
f 35/84/68 34/145/111 129/146/112 131/85/69
f 32/134/100 31/147/113 123/148/114 125/135/101
f 29/138/104 28/149/115 117/150/116 119/139/105
f 90/153/119 86/125/91 147/128/94 149/154/120
f 88/155/121 87/156/122 110/157/123 113/158/124
f 94/159/125 92/160/126 150/161/127 151/162/128
f 95/163/129 97/164/130 120/165/131 118/166/132
f 96/130/96 94/159/125 151/162/128 152/131/97
f 100/167/133 98/129/95 153/132/98 154/168/134
f 102/169/135 100/167/133 154/168/134 155/170/136
f 104/171/137 102/169/135 155/170/136 156/172/138
f 106/173/139 104/171/137 156/172/138 157/174/140
f 108/175/141 106/173/139 157/174/140 158/176/142
f 25/142/108 26/151/117 112/152/118 111/143/109
f 92/160/126 90/153/119 149/154/120 150/161/127
f 109/177/143 88/155/121 113/158/124 132/178/144
f 89/126/92 108/175/141 158/176/142 148/127/93
f 103/179/145 105/180/146 128/181/147 126/182/148
f 97/164/130 99/183/149 122/184/150 120/165/131
f 91/185/151 93/186/152 116/187/153 114/188/154
f 105/180/146 107/189/155 130/190/156 128/181/147
f 99/183/149 101/191/157 124/192/158 122/184/150
f 93/186/152 95/163/129 118/166/132 116/187/153
f 107/189/155 109/177/143 132/178/144 130/190/156
f 87/156/122 91/185/151 114/188/154 110/157/123
f 101/191/157 103/179/145 126/182/148 124/192/158
f 39/76/60 40/75/59 41/193/72 38/194/54
f 43/99/77 39/76/60 38/194/54 42/195/51
f 45/100/78 43/99/77 42/195/51 44/196/50
f 47/61/48 45/100/78 44/196/50 46/197/45
f 49/62/49 47/61/48 46/197/45 48/198/42
f 51/96/76 49/62/49 48/198/42 50/199/41
f 53/104/80 51/96/76 50/199/41 52/200/24
f 55/93/74 53/104/80 52/200/24 54/201/23
f 57/94/75 55/93/74 54/201/23 56/202/65
f 59/102/79 57/94/75 56/202/65 58/203/62
f 61/88/71 59/102/79 58/203/62 60/204/61
f 40/75/59 61/88/71 60/204/61 41/193/72
f 63/205/55 64/206/73 65/72/58 62/71/57
f 67/207/52 63/205/55 62/71/57 66/106/81
f 69/208/53 67/207/52 66/106/81 68/112/84
f 71/209/46 69/208/53 68/112/84 70/111/83
f 73/210/43 71/209/46 70/111/83 72/114/85
f 75/211/44 73/210/43 72/114/85 74/116/86
f 77/212/25 75/211/44 74/116/86 76/118/87
f 79/213/26 77/212/25 76/118/87 78/120/88
f 81/214/66 79/213/26 78/120/88 80/122/89
f 83/215/63 81/214/66 80/122/89 82/124/90
f 85/216/64 83/215/63 82/124/90 84/108/82
f 64/206/73 85/216/64 84/108/82 65/72/58
f 111/217/109 112/218/118 113/158/124 110/157/123
f 115/219/110 111/217/109 110/157/123 114/188/154
f 117/220/116 115/219/110 114/188/154 116/187/153
f 119/221/105 117/220/116 116/187/153 118/166/132
f 121/222/106 119/221/105 118/166/132 120/165/131
f 123/223/114 121/222/106 120/165/131 122/184/150
f 125/224/101 123/223/114 122/184/150 124/192/158
f 127/225/102 125/224/101 124/192/158 126/182/148
f 129/226/112 127/225/102 126/182/148 128/181/147
f 131/227/69 129/226/112 128/181/147 130/190/156
f 133/228/70 131/227/69 130/190/156 132/178/144
f 112/218/118 133/228/70 132/178/144 113/158/124
f 87/156/122 88/155/121 89/229/92 86/230/91
f 91/185/151 87/156/122 86/230/91 90/231/119
f 93/186/152 91/185/151 90/231/119 92/232/126
f 95/163/129 93/186/152 92/232/126 94/233/125
f 97/164/130 95/163/129 94/233/125 96/234/96
f 99/183/149 97/164/130 96/234/96 98/235/95
f 101/191/157 99/183/149 98/235/95 100/236/133
f 103/179/145 101/191/157 100/236/133 102/237/135
f 105/180/146 103/179/145 102/237/135 104/238/137
f 107/189/155 105/180/146 104/238/137 106/239/139
f 109/177/143 107/189/155 106/239/139 108/240/141
f 88/155/121 109/177/143 108/240/141 89/229/92
f 38/67/54 41/89/72 64/90/73 63/68/55
f 135/241/30 136/242/31 159/243/159 160/244/160
f 136/242/31 137/245/32 161/246/161 159/243/159
f 137/245/32 138/247/40 162/248/162 161/246/161
f 138/247/40 139/249/39 163/250/163 162/248/162
f 139/249/39 140/251/38 164/252/164 163/250/163
f 140/251/38 141/253/37 165/254/165 164/252/164
f 141/253/37 142/255/36 166/256/166 165/254/165
f 142/255/36 143/257/35 167/258/167 166/256/166
f 143/257/35 144/259/34 168/260/168 167/258/167
f 144/259/34 145/261/33 169/262/169 168/260/168
f 145/261/33 146/263/29 170/264/170 169/262/169
f 146/263/29 135/241/30 160/244/160 170/264/170
f 135/32/30 13/31/1 14/34/4 136/33/31
f 37/265/56 147/266/56 148/267/56
f 37/265/56 149/268/56 147/266/56
f 37/265/56 150/269/56 149/268/56
f 37/265/56 151/270/56 150/269/56
f 37/265/56 152/271/56 151/270/56
f 37/265/56 153/272/56 152/271/56
f 37/265/56 154/273/56 153/272/56
f 37/265/56 155/274/56 154/273/56
f 37/265/56 156/275/56 155/274/56
f 37/265/56 157/276/56 156/275/56
f 37/265/56 158/277/56 157/276/56
f 37/265/56 148/267/56 158/277/56
f 134/278/47 160/244/160 159/243/159
f 134/278/47 159/243/159 161/246/161
f 134/278/47 161/246/161 162/248/162
f 134/278/47 162/248/162 163/250/163
f 134/278/47 163/250/163 164/252/164
f 134/278/47 164/252/164 165/254/165
f 134/278/47 165/254/165 166/256/166
f 134/278/47 166/256/166 167/258/167
f 134/278/47 167/258/167 168/260/168
f 134/278/47 168/260/168 169/262/169
f 134/278/47 169/262/169 170/264/170
f 134/278/47 170/264/170 160/244/160
