# Blender v3.4.1 OBJ File: 'Tiny_Treats_Bakery_Building_ASSETS_EXPORT.blend'
# www.blender.org
mtllib crate.mtl
o crate
v -0.474969 0.020000 0.349999
v -0.474969 0.120000 0.349999
v -0.474969 0.020000 -0.350001
v -0.474969 0.120000 -0.350001
v 0.525030 0.020000 0.349999
v 0.525030 0.120000 0.349999
v 0.525030 0.020000 -0.350001
v 0.525030 0.120000 -0.350001
v -0.579969 0.000000 0.479999
v -0.579969 0.020000 0.499999
v -0.599969 0.020000 0.479999
v -0.579969 0.480000 0.499999
v -0.579969 0.500000 0.479999
v -0.599969 0.480000 0.479999
v -0.579969 0.000000 0.319999
v -0.599969 0.020000 0.319999
v -0.579969 0.020000 0.299999
v -0.579969 0.500000 0.319999
v -0.579969 0.480000 0.299999
v -0.599969 0.480000 0.319999
v -0.419969 0.000000 0.479999
v -0.399970 0.020000 0.479999
v -0.419969 0.020000 0.499999
v -0.419969 0.500000 0.479999
v -0.419969 0.480000 0.499999
v -0.399970 0.480000 0.479999
v -0.419969 0.000000 0.319999
v -0.419969 0.020000 0.299999
v -0.399970 0.020000 0.319999
v -0.419969 0.500000 0.319999
v -0.399970 0.480000 0.319999
v -0.419969 0.480000 0.299999
v -0.424969 0.020000 0.454999
v -0.424969 0.040000 0.474999
v -0.424969 0.250000 0.474999
v -0.424969 0.270000 0.454999
v -0.424969 0.040000 0.324999
v -0.424969 0.020000 0.344999
v -0.424969 0.270000 0.344999
v -0.424969 0.250000 0.324999
v 0.425031 0.040000 0.474999
v 0.425031 0.020000 0.454999
v 0.425031 0.270000 0.454999
v 0.425031 0.250000 0.474999
v 0.425031 0.020000 0.344999
v 0.425031 0.040000 0.324999
v 0.425031 0.250000 0.324999
v 0.425031 0.270000 0.344999
v -0.424969 0.350000 0.454999
v -0.424969 0.370000 0.474999
v -0.424969 0.430000 0.474999
v -0.424969 0.450000 0.454999
v -0.424969 0.370000 0.324999
v -0.424969 0.350000 0.344999
v -0.424969 0.450000 0.344999
v -0.424969 0.430000 0.324999
v 0.425031 0.370000 0.474999
v 0.425031 0.350000 0.454999
v 0.425031 0.450000 0.454999
v 0.425031 0.430000 0.474999
v 0.425031 0.350000 0.344999
v 0.425031 0.370000 0.324999
v 0.425031 0.430000 0.324999
v 0.425031 0.450000 0.344999
v 0.420031 0.000000 0.479999
v 0.420031 0.020000 0.499999
v 0.400031 0.020000 0.479999
v 0.420031 0.480000 0.499999
v 0.420031 0.500000 0.479999
v 0.400031 0.480000 0.479999
v 0.420031 0.000000 0.319999
v 0.400031 0.020000 0.319999
v 0.420031 0.020000 0.299999
v 0.420031 0.500000 0.319999
v 0.420031 0.480000 0.299999
v 0.400031 0.480000 0.319999
v 0.580031 0.000000 0.479999
v 0.600030 0.020000 0.479999
v 0.580031 0.020000 0.499999
v 0.580031 0.500000 0.479999
v 0.580031 0.480000 0.499999
v 0.600030 0.480000 0.479999
v 0.580031 0.000000 0.319999
v 0.580031 0.020000 0.299999
v 0.600030 0.020000 0.319999
v 0.580031 0.500000 0.319999
v 0.600030 0.480000 0.319999
v 0.580031 0.480000 0.299999
v -0.579969 0.000000 -0.320001
v -0.579969 0.020000 -0.300001
v -0.599969 0.020000 -0.320001
v -0.579969 0.480000 -0.300001
v -0.579969 0.500000 -0.320001
v -0.599969 0.480000 -0.320001
v -0.579969 0.000000 -0.480001
v -0.599969 0.020000 -0.480001
v -0.579969 0.020000 -0.500001
v -0.579969 0.500000 -0.480001
v -0.579969 0.480000 -0.500001
v -0.599969 0.480000 -0.480001
v -0.419969 0.000000 -0.320001
v -0.399970 0.020000 -0.320001
v -0.419969 0.020000 -0.300001
v -0.419969 0.500000 -0.320001
v -0.419969 0.480000 -0.300001
v -0.399970 0.480000 -0.320001
v -0.419969 0.000000 -0.480001
v -0.419969 0.020000 -0.500001
v -0.399970 0.020000 -0.480001
v -0.419969 0.500000 -0.480001
v -0.399970 0.480000 -0.480001
v -0.419969 0.480000 -0.500001
v 0.420031 0.000000 -0.320001
v 0.420031 0.020000 -0.300001
v 0.400031 0.020000 -0.320001
v 0.420031 0.480000 -0.300001
v 0.420031 0.500000 -0.320001
v 0.400031 0.480000 -0.320001
v 0.420031 0.000000 -0.480001
v 0.400031 0.020000 -0.480001
v 0.420031 0.020000 -0.500001
v 0.420031 0.500000 -0.480001
v 0.420031 0.480000 -0.500001
v 0.400031 0.480000 -0.480001
v 0.580031 0.000000 -0.320001
v 0.600030 0.020000 -0.320001
v 0.580031 0.020000 -0.300001
v 0.580031 0.500000 -0.320001
v 0.580031 0.480000 -0.300001
v 0.600030 0.480000 -0.320001
v 0.580031 0.000000 -0.480001
v 0.580031 0.020000 -0.500001
v 0.600030 0.020000 -0.480001
v 0.580031 0.500000 -0.480001
v 0.600030 0.480000 -0.480001
v 0.580031 0.480000 -0.500001
v -0.424969 0.020000 -0.345001
v -0.424969 0.040000 -0.325001
v -0.424969 0.250000 -0.325001
v -0.424969 0.270000 -0.345001
v -0.424969 0.040000 -0.475001
v -0.424969 0.020000 -0.455001
v -0.424969 0.270000 -0.455001
v -0.424969 0.250000 -0.475001
v 0.425031 0.040000 -0.325001
v 0.425031 0.020000 -0.345001
v 0.425031 0.270000 -0.345001
v 0.425031 0.250000 -0.325001
v 0.425031 0.020000 -0.455001
v 0.425031 0.040000 -0.475001
v 0.425031 0.250000 -0.475001
v 0.425031 0.270000 -0.455001
v -0.424969 0.350000 -0.345001
v -0.424969 0.370000 -0.325001
v -0.424969 0.430000 -0.325001
v -0.424969 0.450000 -0.345001
v -0.424969 0.370000 -0.475001
v -0.424969 0.350000 -0.455001
v -0.424969 0.450000 -0.455001
v -0.424969 0.430000 -0.475001
v 0.425031 0.370000 -0.325001
v 0.425031 0.350000 -0.345001
v 0.425031 0.450000 -0.345001
v 0.425031 0.430000 -0.325001
v 0.425031 0.350000 -0.455001
v 0.425031 0.370000 -0.475001
v 0.425031 0.430000 -0.475001
v 0.425031 0.450000 -0.455001
v 0.445031 0.020000 -0.325001
v 0.425031 0.040000 -0.325001
v 0.425031 0.250000 -0.325001
v 0.445031 0.270000 -0.325001
v 0.575031 0.040000 -0.325001
v 0.555031 0.020000 -0.325001
v 0.555031 0.270000 -0.325001
v 0.575031 0.250000 -0.325001
v 0.425031 0.040000 0.324999
v 0.445031 0.020000 0.324999
v 0.445031 0.270000 0.324999
v 0.425031 0.250000 0.324999
v 0.555030 0.020000 0.324999
v 0.575030 0.040000 0.324999
v 0.575030 0.250000 0.324999
v 0.555030 0.270000 0.324999
v 0.445031 0.350000 -0.325001
v 0.425031 0.370000 -0.325001
v 0.425031 0.430000 -0.325001
v 0.445031 0.450000 -0.325001
v 0.575031 0.370000 -0.325001
v 0.555031 0.350000 -0.325001
v 0.555031 0.450000 -0.325001
v 0.575031 0.430000 -0.325001
v 0.425031 0.370000 0.324999
v 0.445031 0.350000 0.324999
v 0.445031 0.450000 0.324999
v 0.425031 0.430000 0.324999
v 0.555030 0.350000 0.324999
v 0.575030 0.370000 0.324999
v 0.575030 0.430000 0.324999
v 0.555030 0.450000 0.324999
v -0.554969 0.020000 -0.325001
v -0.574969 0.040000 -0.325001
v -0.574969 0.250000 -0.325001
v -0.554969 0.270000 -0.325001
v -0.424969 0.040000 -0.325001
v -0.444969 0.020000 -0.325001
v -0.444969 0.270000 -0.325001
v -0.424969 0.250000 -0.325001
v -0.574969 0.040000 0.324999
v -0.554969 0.020000 0.324999
v -0.554969 0.270000 0.324999
v -0.574969 0.250000 0.324999
v -0.444970 0.020000 0.324999
v -0.424969 0.040000 0.324999
v -0.424969 0.250000 0.324999
v -0.444970 0.270000 0.324999
v -0.554969 0.350000 -0.325001
v -0.574969 0.370000 -0.325001
v -0.574969 0.430000 -0.325001
v -0.554969 0.450000 -0.325001
v -0.424969 0.370000 -0.325001
v -0.444969 0.350000 -0.325001
v -0.444969 0.450000 -0.325001
v -0.424969 0.430000 -0.325001
v -0.574969 0.370000 0.324999
v -0.554969 0.350000 0.324999
v -0.554969 0.450000 0.324999
v -0.574969 0.430000 0.324999
v -0.444970 0.350000 0.324999
v -0.424969 0.370000 0.324999
v -0.424969 0.430000 0.324999
v -0.444970 0.450000 0.324999
vt 0.903550 0.605075
vt 0.971463 0.605075
vt 0.971463 0.605075
vt 0.903550 0.605075
vt 0.971463 0.614765
vt 0.903550 0.614765
vt 0.903550 0.614765
vt 0.971463 0.614765
vt 0.907107 0.605075
vt 0.907107 0.649648
vt 0.899995 0.649648
vt 0.899995 0.605075
vt 0.908400 0.605075
vt 0.908400 0.649648
vt 0.908400 0.649648
vt 0.908400 0.605075
vt 0.907107 0.682836
vt 0.899995 0.682836
vt 0.899995 0.682836
vt 0.907107 0.682836
vt 0.898700 0.605075
vt 0.898700 0.649648
vt 0.898700 0.649648
vt 0.898700 0.605075
vt 0.899995 0.605075
vt 0.899995 0.649648
vt 0.907107 0.649648
vt 0.907107 0.605075
vt 0.899995 0.571887
vt 0.899995 0.573825
vt 0.898700 0.573825
vt 0.899995 0.680898
vt 0.898700 0.680898
vt 0.899995 0.571887
vt 0.898700 0.573825
vt 0.899995 0.573825
vt 0.899995 0.680898
vt 0.898700 0.680898
vt 0.907107 0.571887
vt 0.908400 0.573825
vt 0.907107 0.573825
vt 0.907107 0.680898
vt 0.908400 0.680898
vt 0.907107 0.571887
vt 0.907107 0.573825
vt 0.908400 0.573825
vt 0.908400 0.680898
vt 0.907107 0.680898
vt 0.968229 0.677991
vt 0.906784 0.677991
vt 0.906784 0.677991
vt 0.968229 0.677991
vt 0.906784 0.605801
vt 0.968229 0.605801
vt 0.968229 0.605801
vt 0.906784 0.605801
vt 0.968229 0.660550
vt 0.906784 0.660550
vt 0.906784 0.660550
vt 0.968229 0.660550
vt 0.968229 0.607013
vt 0.968229 0.627362
vt 0.906784 0.627362
vt 0.906784 0.607013
vt 0.906784 0.607013
vt 0.906784 0.627362
vt 0.968229 0.627362
vt 0.968229 0.607013
vt 0.968229 0.638989
vt 0.968229 0.644803
vt 0.906784 0.644803
vt 0.906784 0.638989
vt 0.906784 0.638989
vt 0.906784 0.644803
vt 0.968229 0.644803
vt 0.968229 0.638989
vt 0.968229 0.573825
vt 0.906784 0.573825
vt 0.906784 0.575763
vt 0.968229 0.575763
vt 0.968229 0.658612
vt 0.906784 0.658612
vt 0.906784 0.573825
vt 0.968229 0.573825
vt 0.968229 0.575763
vt 0.906784 0.575763
vt 0.906784 0.658612
vt 0.968229 0.658612
vt 0.906784 0.607739
vt 0.968229 0.607739
vt 0.968229 0.676053
vt 0.906784 0.676053
vt 0.968229 0.607739
vt 0.906784 0.607739
vt 0.906784 0.676053
vt 0.968229 0.676053
vt 0.975018 0.605075
vt 0.975018 0.649648
vt 0.967906 0.649648
vt 0.967906 0.605075
vt 0.976313 0.605075
vt 0.976313 0.649648
vt 0.976313 0.649648
vt 0.976313 0.605075
vt 0.975018 0.682836
vt 0.967906 0.682836
vt 0.967906 0.682836
vt 0.975018 0.682836
vt 0.966613 0.605075
vt 0.966613 0.649648
vt 0.966613 0.649648
vt 0.966613 0.605075
vt 0.967906 0.605075
vt 0.967906 0.649648
vt 0.975018 0.649648
vt 0.975018 0.605075
vt 0.967906 0.571887
vt 0.967906 0.573825
vt 0.966613 0.573825
vt 0.967906 0.680898
vt 0.966613 0.680898
vt 0.967906 0.571887
vt 0.966613 0.573825
vt 0.967906 0.573825
vt 0.967906 0.680898
vt 0.966613 0.680898
vt 0.975018 0.571887
vt 0.976313 0.573825
vt 0.975018 0.573825
vt 0.975018 0.680898
vt 0.976313 0.680898
vt 0.975018 0.571887
vt 0.975018 0.573825
vt 0.976313 0.573825
vt 0.976313 0.680898
vt 0.975018 0.680898
vt 0.907107 0.605075
vt 0.907107 0.649648
vt 0.899995 0.649648
vt 0.899995 0.605075
vt 0.908400 0.605075
vt 0.908400 0.649648
vt 0.908400 0.649648
vt 0.908400 0.605075
vt 0.907107 0.682836
vt 0.899995 0.682836
vt 0.899995 0.682836
vt 0.907107 0.682836
vt 0.898700 0.605075
vt 0.898700 0.649648
vt 0.898700 0.649648
vt 0.898700 0.605075
vt 0.899995 0.605075
vt 0.899995 0.649648
vt 0.907107 0.649648
vt 0.907107 0.605075
vt 0.899995 0.571887
vt 0.899995 0.573825
vt 0.898700 0.573825
vt 0.899995 0.680898
vt 0.898700 0.680898
vt 0.899995 0.571887
vt 0.898700 0.573825
vt 0.899995 0.573825
vt 0.899995 0.680898
vt 0.898700 0.680898
vt 0.907107 0.571887
vt 0.908400 0.573825
vt 0.907107 0.573825
vt 0.907107 0.680898
vt 0.908400 0.680898
vt 0.907107 0.571887
vt 0.907107 0.573825
vt 0.908400 0.573825
vt 0.908400 0.680898
vt 0.907107 0.680898
vt 0.975018 0.605075
vt 0.975018 0.649648
vt 0.967906 0.649648
vt 0.967906 0.605075
vt 0.976313 0.605075
vt 0.976313 0.649648
vt 0.976313 0.649648
vt 0.976313 0.605075
vt 0.975018 0.682836
vt 0.967906 0.682836
vt 0.967906 0.682836
vt 0.975018 0.682836
vt 0.966613 0.605075
vt 0.966613 0.649648
vt 0.966613 0.649648
vt 0.966613 0.605075
vt 0.967906 0.605075
vt 0.967906 0.649648
vt 0.975018 0.649648
vt 0.975018 0.605075
vt 0.967906 0.571887
vt 0.967906 0.573825
vt 0.966613 0.573825
vt 0.967906 0.680898
vt 0.966613 0.680898
vt 0.967906 0.571887
vt 0.966613 0.573825
vt 0.967906 0.573825
vt 0.967906 0.680898
vt 0.966613 0.680898
vt 0.975018 0.571887
vt 0.976313 0.573825
vt 0.975018 0.573825
vt 0.975018 0.680898
vt 0.976313 0.680898
vt 0.975018 0.571887
vt 0.975018 0.573825
vt 0.976313 0.573825
vt 0.976313 0.680898
vt 0.975018 0.680898
vt 0.968229 0.677991
vt 0.906784 0.677991
vt 0.906784 0.677991
vt 0.968229 0.677991
vt 0.906784 0.605801
vt 0.968229 0.605801
vt 0.968229 0.605801
vt 0.906784 0.605801
vt 0.968229 0.660550
vt 0.906784 0.660550
vt 0.906784 0.660550
vt 0.968229 0.660550
vt 0.968229 0.607013
vt 0.968229 0.627362
vt 0.906784 0.627362
vt 0.906784 0.607013
vt 0.906784 0.607013
vt 0.906784 0.627362
vt 0.968229 0.627362
vt 0.968229 0.607013
vt 0.968229 0.638989
vt 0.968229 0.644803
vt 0.906784 0.644803
vt 0.906784 0.638989
vt 0.906784 0.638989
vt 0.906784 0.644803
vt 0.968229 0.644803
vt 0.968229 0.638989
vt 0.968229 0.573825
vt 0.906784 0.573825
vt 0.906784 0.575763
vt 0.968229 0.575763
vt 0.968229 0.658612
vt 0.906784 0.658612
vt 0.906784 0.573825
vt 0.968229 0.573825
vt 0.968229 0.575763
vt 0.906784 0.575763
vt 0.906784 0.658612
vt 0.968229 0.658612
vt 0.906784 0.607739
vt 0.968229 0.607739
vt 0.968229 0.676053
vt 0.906784 0.676053
vt 0.968229 0.607739
vt 0.906784 0.607739
vt 0.906784 0.676053
vt 0.968229 0.676053
vt 0.973401 0.677991
vt 0.973401 0.677991
vt 0.969522 0.677991
vt 0.969522 0.677991
vt 0.973401 0.605801
vt 0.973401 0.605801
vt 0.969522 0.605801
vt 0.969522 0.605801
vt 0.973401 0.660550
vt 0.973401 0.660550
vt 0.969522 0.660550
vt 0.969522 0.660550
vt 0.968229 0.607013
vt 0.968229 0.627362
vt 0.968229 0.627362
vt 0.968229 0.607013
vt 0.974696 0.607013
vt 0.974696 0.627362
vt 0.974696 0.627362
vt 0.974696 0.607013
vt 0.968229 0.638989
vt 0.968229 0.644803
vt 0.968229 0.644803
vt 0.968229 0.638989
vt 0.974696 0.638989
vt 0.974696 0.644803
vt 0.974696 0.644803
vt 0.974696 0.638989
vt 0.973401 0.573825
vt 0.973401 0.573825
vt 0.974696 0.575763
vt 0.974696 0.575763
vt 0.974696 0.658612
vt 0.974696 0.658612
vt 0.969522 0.573825
vt 0.969522 0.573825
vt 0.968229 0.575763
vt 0.968229 0.575763
vt 0.968229 0.658612
vt 0.968229 0.658612
vt 0.974696 0.607739
vt 0.974696 0.607739
vt 0.974696 0.676053
vt 0.974696 0.676053
vt 0.968229 0.607739
vt 0.968229 0.607739
vt 0.968229 0.676053
vt 0.968229 0.676053
vt 0.905491 0.677991
vt 0.905491 0.677991
vt 0.901612 0.677991
vt 0.901612 0.677991
vt 0.905491 0.605801
vt 0.905491 0.605801
vt 0.901612 0.605801
vt 0.901612 0.605801
vt 0.905491 0.660550
vt 0.905491 0.660550
vt 0.901612 0.660550
vt 0.901612 0.660550
vt 0.900317 0.607013
vt 0.900317 0.627362
vt 0.900317 0.627362
vt 0.900317 0.607013
vt 0.906784 0.607013
vt 0.906784 0.627362
vt 0.906784 0.627362
vt 0.906784 0.607013
vt 0.900317 0.638989
vt 0.900317 0.644803
vt 0.900317 0.644803
vt 0.900317 0.638989
vt 0.906784 0.638989
vt 0.906784 0.644803
vt 0.906784 0.644803
vt 0.906784 0.638989
vt 0.905491 0.573825
vt 0.905491 0.573825
vt 0.906784 0.575763
vt 0.906784 0.575763
vt 0.906784 0.658612
vt 0.906784 0.658612
vt 0.901612 0.573825
vt 0.901612 0.573825
vt 0.900317 0.575763
vt 0.900317 0.575763
vt 0.900317 0.658612
vt 0.900317 0.658612
vt 0.906784 0.607739
vt 0.906784 0.607739
vt 0.906784 0.676053
vt 0.906784 0.676053
vt 0.900317 0.607739
vt 0.900317 0.607739
vt 0.900317 0.676053
vt 0.900317 0.676053
vn 0.0000 -1.0000 0.0000
vn 0.0000 1.0000 0.0000
vn 0.3416 -0.3416 0.8756
vn 0.3416 0.3416 0.8756
vn -0.3416 0.3416 0.8756
vn -0.3416 -0.3416 0.8756
vn 0.8756 -0.3416 -0.3416
vn 0.8756 0.3416 -0.3416
vn 0.8756 0.3416 0.3416
vn 0.8756 -0.3416 0.3416
vn 0.3416 0.8756 -0.3416
vn -0.3416 0.8756 -0.3416
vn -0.3416 0.8756 0.3416
vn 0.3416 0.8756 0.3416
vn -0.8756 -0.3416 0.3416
vn -0.8756 0.3416 0.3416
vn -0.8756 0.3416 -0.3416
vn -0.8756 -0.3416 -0.3416
vn -0.3416 -0.3416 -0.8756
vn -0.3416 0.3416 -0.8756
vn 0.3416 0.3416 -0.8756
vn 0.3416 -0.3416 -0.8756
vn -0.3416 -0.8756 0.3416
vn -0.3416 -0.8756 -0.3416
vn 0.3416 -0.8756 0.3416
vn 0.3416 -0.8756 -0.3416
vn 0.0000 0.9239 -0.3827
vn 0.0000 0.9239 0.3827
vn 0.0000 -0.9239 -0.3827
vn 0.0000 -0.9239 0.3827
vn 0.0000 -0.3827 0.9239
vn 0.0000 0.3827 0.9239
vn 0.0000 -0.3827 -0.9239
vn 0.0000 0.3827 -0.9239
vn 0.3827 0.9239 0.0000
vn -0.3827 0.9239 -0.0000
vn 0.3827 -0.9239 0.0000
vn -0.3827 -0.9239 -0.0000
vn -0.9239 -0.3827 -0.0000
vn -0.9239 0.3827 -0.0000
vn 0.9239 -0.3827 0.0000
vn 0.9239 0.3827 0.0000
usemtl tiny_treats_1
s 1
f 3/1/1 7/2/1 5/3/1 1/4/1
f 8/5/2 4/6/2 2/7/2 6/8/2
f 23/9/3 25/10/4 12/11/5 10/12/6
f 29/13/7 31/14/8 26/15/9 22/16/10
f 30/17/11 18/18/12 13/19/13 24/20/14
f 11/21/15 14/22/16 20/23/17 16/24/18
f 17/25/19 19/26/20 32/27/21 28/28/22
f 9/29/23 10/30/6 11/31/15
f 12/32/5 13/19/13 14/33/16
f 15/34/24 16/35/18 17/36/19
f 18/18/12 19/37/20 20/38/17
f 21/39/25 22/40/10 23/41/3
f 24/20/14 25/42/4 26/43/9
f 27/44/26 28/45/22 29/46/7
f 30/17/11 31/47/8 32/48/21
f 15/34/24 9/29/23 11/31/15 16/35/18
f 10/12/6 12/11/5 14/22/16 11/21/15
f 13/19/13 18/18/12 20/38/17 14/33/16
f 19/26/20 17/25/19 16/24/18 20/23/17
f 27/44/26 15/34/24 17/36/19 28/45/22
f 18/18/12 30/17/11 32/48/21 19/37/20
f 31/14/8 29/13/7 28/28/22 32/27/21
f 21/39/25 27/44/26 29/46/7 22/40/10
f 30/17/11 24/20/14 26/43/9 31/47/8
f 25/10/4 23/9/3 22/16/10 26/15/9
f 9/29/23 21/39/25 23/41/3 10/30/6
f 24/20/14 13/19/13 12/32/5 25/42/4
f 15/34/24 27/44/26 21/39/25 9/29/23
f 64/49/27 55/50/27 52/51/28 59/52/28
f 54/53/29 61/54/29 58/55/30 49/56/30
f 48/57/27 39/58/27 36/59/28 43/60/28
f 41/61/31 44/62/32 35/63/32 34/64/31
f 37/65/33 40/66/34 47/67/34 46/68/33
f 57/69/31 60/70/32 51/71/32 50/72/31
f 53/73/33 56/74/34 63/75/34 62/76/33
f 45/77/29 38/78/29 37/79/33 46/80/33
f 39/58/27 48/57/27 47/81/34 40/82/34
f 33/83/30 42/84/30 41/85/31 34/86/31
f 43/60/28 36/59/28 35/87/32 44/88/32
f 61/54/29 54/53/29 53/89/33 62/90/33
f 55/50/27 64/49/27 63/91/34 56/92/34
f 49/56/30 58/55/30 57/93/31 50/94/31
f 59/52/28 52/51/28 51/95/32 60/96/32
f 38/78/29 45/77/29 42/84/30 33/83/30
f 79/97/3 81/98/4 68/99/5 66/100/6
f 85/101/7 87/102/8 82/103/9 78/104/10
f 86/105/11 74/106/12 69/107/13 80/108/14
f 67/109/15 70/110/16 76/111/17 72/112/18
f 73/113/19 75/114/20 88/115/21 84/116/22
f 65/117/23 66/118/6 67/119/15
f 68/120/5 69/107/13 70/121/16
f 71/122/24 72/123/18 73/124/19
f 74/106/12 75/125/20 76/126/17
f 77/127/25 78/128/10 79/129/3
f 80/108/14 81/130/4 82/131/9
f 83/132/26 84/133/22 85/134/7
f 86/105/11 87/135/8 88/136/21
f 71/122/24 65/117/23 67/119/15 72/123/18
f 66/100/6 68/99/5 70/110/16 67/109/15
f 69/107/13 74/106/12 76/126/17 70/121/16
f 75/114/20 73/113/19 72/112/18 76/111/17
f 83/132/26 71/122/24 73/124/19 84/133/22
f 74/106/12 86/105/11 88/136/21 75/125/20
f 87/102/8 85/101/7 84/116/22 88/115/21
f 77/127/25 83/132/26 85/134/7 78/128/10
f 86/105/11 80/108/14 82/131/9 87/135/8
f 81/98/4 79/97/3 78/104/10 82/103/9
f 65/117/23 77/127/25 79/129/3 66/118/6
f 80/108/14 69/107/13 68/120/5 81/130/4
f 71/122/24 83/132/26 77/127/25 65/117/23
f 103/137/3 105/138/4 92/139/5 90/140/6
f 109/141/7 111/142/8 106/143/9 102/144/10
f 110/145/11 98/146/12 93/147/13 104/148/14
f 91/149/15 94/150/16 100/151/17 96/152/18
f 97/153/19 99/154/20 112/155/21 108/156/22
f 89/157/23 90/158/6 91/159/15
f 92/160/5 93/147/13 94/161/16
f 95/162/24 96/163/18 97/164/19
f 98/146/12 99/165/20 100/166/17
f 101/167/25 102/168/10 103/169/3
f 104/148/14 105/170/4 106/171/9
f 107/172/26 108/173/22 109/174/7
f 110/145/11 111/175/8 112/176/21
f 95/162/24 89/157/23 91/159/15 96/163/18
f 90/140/6 92/139/5 94/150/16 91/149/15
f 93/147/13 98/146/12 100/166/17 94/161/16
f 99/154/20 97/153/19 96/152/18 100/151/17
f 107/172/26 95/162/24 97/164/19 108/173/22
f 98/146/12 110/145/11 112/176/21 99/165/20
f 111/142/8 109/141/7 108/156/22 112/155/21
f 101/167/25 107/172/26 109/174/7 102/168/10
f 110/145/11 104/148/14 106/171/9 111/175/8
f 105/138/4 103/137/3 102/144/10 106/143/9
f 89/157/23 101/167/25 103/169/3 90/158/6
f 104/148/14 93/147/13 92/160/5 105/170/4
f 95/162/24 107/172/26 101/167/25 89/157/23
f 127/177/3 129/178/4 116/179/5 114/180/6
f 133/181/7 135/182/8 130/183/9 126/184/10
f 134/185/11 122/186/12 117/187/13 128/188/14
f 115/189/15 118/190/16 124/191/17 120/192/18
f 121/193/19 123/194/20 136/195/21 132/196/22
f 113/197/23 114/198/6 115/199/15
f 116/200/5 117/187/13 118/201/16
f 119/202/24 120/203/18 121/204/19
f 122/186/12 123/205/20 124/206/17
f 125/207/25 126/208/10 127/209/3
f 128/188/14 129/210/4 130/211/9
f 131/212/26 132/213/22 133/214/7
f 134/185/11 135/215/8 136/216/21
f 119/202/24 113/197/23 115/199/15 120/203/18
f 114/180/6 116/179/5 118/190/16 115/189/15
f 117/187/13 122/186/12 124/206/17 118/201/16
f 123/194/20 121/193/19 120/192/18 124/191/17
f 131/212/26 119/202/24 121/204/19 132/213/22
f 122/186/12 134/185/11 136/216/21 123/205/20
f 135/182/8 133/181/7 132/196/22 136/195/21
f 125/207/25 131/212/26 133/214/7 126/208/10
f 134/185/11 128/188/14 130/211/9 135/215/8
f 129/178/4 127/177/3 126/184/10 130/183/9
f 113/197/23 125/207/25 127/209/3 114/198/6
f 128/188/14 117/187/13 116/200/5 129/210/4
f 119/202/24 131/212/26 125/207/25 113/197/23
f 168/217/27 159/218/27 156/219/28 163/220/28
f 158/221/29 165/222/29 162/223/30 153/224/30
f 152/225/27 143/226/27 140/227/28 147/228/28
f 145/229/31 148/230/32 139/231/32 138/232/31
f 141/233/33 144/234/34 151/235/34 150/236/33
f 161/237/31 164/238/32 155/239/32 154/240/31
f 157/241/33 160/242/34 167/243/34 166/244/33
f 149/245/29 142/246/29 141/247/33 150/248/33
f 143/226/27 152/225/27 151/249/34 144/250/34
f 137/251/30 146/252/30 145/253/31 138/254/31
f 147/228/28 140/227/28 139/255/32 148/256/32
f 165/222/29 158/221/29 157/257/33 166/258/33
f 159/218/27 168/217/27 167/259/34 160/260/34
f 153/224/30 162/223/30 161/261/31 154/262/31
f 163/220/28 156/219/28 155/263/32 164/264/32
f 142/246/29 149/245/29 146/252/30 137/251/30
f 200/265/35 191/266/35 188/267/36 195/268/36
f 190/269/37 197/270/37 194/271/38 185/272/38
f 184/273/35 175/274/35 172/275/36 179/276/36
f 177/277/39 180/278/40 171/279/40 170/280/39
f 173/281/41 176/282/42 183/283/42 182/284/41
f 193/285/39 196/286/40 187/287/40 186/288/39
f 189/289/41 192/290/42 199/291/42 198/292/41
f 181/293/37 174/294/37 173/295/41 182/296/41
f 175/274/35 184/273/35 183/297/42 176/298/42
f 169/299/38 178/300/38 177/301/39 170/302/39
f 179/276/36 172/275/36 171/303/40 180/304/40
f 197/270/37 190/269/37 189/305/41 198/306/41
f 191/266/35 200/265/35 199/307/42 192/308/42
f 185/272/38 194/271/38 193/309/39 186/310/39
f 195/268/36 188/267/36 187/311/40 196/312/40
f 174/294/37 181/293/37 178/300/38 169/299/38
f 232/313/35 223/314/35 220/315/36 227/316/36
f 222/317/37 229/318/37 226/319/38 217/320/38
f 216/321/35 207/322/35 204/323/36 211/324/36
f 209/325/39 212/326/40 203/327/40 202/328/39
f 205/329/41 208/330/42 215/331/42 214/332/41
f 225/333/39 228/334/40 219/335/40 218/336/39
f 221/337/41 224/338/42 231/339/42 230/340/41
f 213/341/37 206/342/37 205/343/41 214/344/41
f 207/322/35 216/321/35 215/345/42 208/346/42
f 201/347/38 210/348/38 209/349/39 202/350/39
f 211/324/36 204/323/36 203/351/40 212/352/40
f 229/318/37 222/317/37 221/353/41 230/354/41
f 223/314/35 232/313/35 231/355/42 224/356/42
f 217/320/38 226/319/38 225/357/39 218/358/39
f 227/316/36 220/315/36 219/359/40 228/360/40
f 206/342/37 213/341/37 210/348/38 201/347/38
