# Blender v3.4.1 OBJ File: 'Tiny_Treats_Bakery_Building_ASSETS_EXPORT.blend'
# www.blender.org
mtllib crate_cabinet.mtl
o crate_cabinet
v -0.800012 -0.000000 -0.300000
v -0.800012 0.050000 -0.250000
v -0.850012 0.050000 -0.300000
v -0.800012 1.950000 0.000000
v -0.800012 2.000000 -0.050000
v -0.850012 1.950000 -0.050000
v -0.800012 0.000000 -0.500000
v -0.850012 0.050000 -0.500000
v -0.800012 0.050000 -0.550000
v -0.800012 2.000000 -0.250000
v -0.800012 1.950000 -0.300000
v -0.850012 1.950000 -0.250000
v -0.600012 -0.000000 -0.300000
v -0.550012 0.050000 -0.300000
v -0.600012 0.050000 -0.250000
v -0.600012 2.000000 -0.050000
v -0.600012 1.950000 0.000000
v -0.550012 1.950000 -0.050000
v -0.600012 0.000000 -0.500000
v -0.600012 0.050000 -0.550000
v -0.550012 0.050000 -0.500000
v -0.600012 2.000000 -0.250000
v -0.550012 1.950000 -0.250000
v -0.600012 1.950000 -0.300000
v 0.600012 -0.000000 -0.300000
v 0.600012 0.050000 -0.250000
v 0.550012 0.050000 -0.300000
v 0.600012 1.950000 0.000000
v 0.600012 2.000000 -0.050000
v 0.550012 1.950000 -0.050000
v 0.600012 0.000000 -0.500000
v 0.550012 0.050000 -0.500000
v 0.600012 0.050000 -0.550000
v 0.600012 2.000000 -0.250000
v 0.600012 1.950000 -0.300000
v 0.550012 1.950000 -0.250000
v 0.800012 -0.000000 -0.300000
v 0.850012 0.050000 -0.300000
v 0.800012 0.050000 -0.250000
v 0.800012 2.000000 -0.050000
v 0.800012 1.950000 0.000000
v 0.850012 1.950000 -0.050000
v 0.800012 0.000000 -0.500000
v 0.800012 0.050000 -0.550000
v 0.850012 0.050000 -0.500000
v 0.800012 2.000000 -0.250000
v 0.850012 1.950000 -0.250000
v 0.800012 1.950000 -0.300000
v -0.800012 0.000000 0.500000
v -0.800012 0.050000 0.550000
v -0.850012 0.050000 0.500000
v -0.800012 1.950000 0.300000
v -0.800012 2.000000 0.250000
v -0.850012 1.950000 0.250000
v -0.800012 0.000000 0.300000
v -0.850012 0.050000 0.300000
v -0.800012 0.050000 0.250000
v -0.800012 2.000000 0.050000
v -0.800012 1.950000 -0.000000
v -0.850012 1.950000 0.050000
v -0.600012 0.000000 0.500000
v -0.550012 0.050000 0.500000
v -0.600012 0.050000 0.550000
v -0.600012 2.000000 0.250000
v -0.600012 1.950000 0.300000
v -0.550012 1.950000 0.250000
v -0.600012 0.000000 0.300000
v -0.600012 0.050000 0.250000
v -0.550012 0.050000 0.300000
v -0.600012 2.000000 0.050000
v -0.550012 1.950000 0.050000
v -0.600012 1.950000 -0.000000
v 0.600012 0.000000 0.500000
v 0.600012 0.050000 0.550000
v 0.550012 0.050000 0.500000
v 0.600012 1.950000 0.300000
v 0.600012 2.000000 0.250000
v 0.550012 1.950000 0.250000
v 0.600012 0.000000 0.300000
v 0.550012 0.050000 0.300000
v 0.600012 0.050000 0.250000
v 0.600012 2.000000 0.050000
v 0.600012 1.950000 -0.000000
v 0.550012 1.950000 0.050000
v 0.800012 0.000000 0.500000
v 0.850012 0.050000 0.500000
v 0.800012 0.050000 0.550000
v 0.800012 2.000000 0.250000
v 0.800012 1.950000 0.300000
v 0.850012 1.950000 0.250000
v 0.800012 0.000000 0.300000
v 0.800012 0.050000 0.250000
v 0.850012 0.050000 0.300000
v 0.800012 2.000000 0.050000
v 0.850012 1.950000 0.050000
v 0.800012 1.950000 -0.000000
v -0.599939 1.186939 0.408785
v -0.599939 1.222294 0.470022
v -0.649939 1.235235 0.421726
v -0.599939 1.318887 0.495904
v -0.599939 1.380124 0.460549
v -0.649939 1.331828 0.447608
v -0.599939 1.419876 -0.460549
v -0.649939 1.468172 -0.447608
v -0.599939 1.481113 -0.495904
v -0.599939 1.613061 -0.408785
v -0.599939 1.577706 -0.470022
v -0.649939 1.564765 -0.421726
v 0.600061 1.186939 0.408785
v 0.650061 1.235235 0.421726
v 0.600061 1.222294 0.470022
v 0.600061 1.380124 0.460549
v 0.600061 1.318887 0.495904
v 0.650061 1.331828 0.447608
v 0.600061 1.419876 -0.460549
v 0.600061 1.481113 -0.495904
v 0.650061 1.468172 -0.447608
v 0.600061 1.613061 -0.408785
v 0.650061 1.564765 -0.421726
v 0.600061 1.577706 -0.470022
v -0.600000 0.186939 0.408785
v -0.600000 0.222294 0.470022
v -0.600000 0.318887 0.495904
v -0.600000 0.380124 0.460549
v -0.600000 0.419876 -0.460549
v -0.600000 0.481113 -0.495904
v -0.600000 0.613061 -0.408785
v -0.600000 0.577706 -0.470022
v 0.600000 0.186939 0.408785
v 0.600000 0.222294 0.470022
v 0.600000 0.380124 0.460549
v 0.600000 0.318887 0.495904
v 0.600000 0.419876 -0.460549
v 0.600000 0.481113 -0.495904
v 0.600000 0.613061 -0.408785
v 0.600000 0.577706 -0.470022
v -0.759817 1.028267 0.283796
v -0.802204 0.985893 0.282742
v -0.759817 1.025977 -0.227467
v -0.802204 0.983603 -0.228522
v -0.802204 0.866397 0.278522
v -0.759817 0.824023 0.277467
v -0.759817 0.821734 -0.233796
v -0.802204 0.864108 -0.232742
v -0.597882 0.985893 0.282742
v -0.640269 1.028267 0.283796
v -0.640269 1.025977 -0.227467
v -0.597882 0.983603 -0.228522
v -0.640269 0.824023 0.277467
v -0.597882 0.866397 0.278522
v -0.597882 0.864108 -0.232742
v -0.640269 0.821734 -0.233796
v 0.640208 1.028267 0.283796
v 0.597821 0.985893 0.282742
v 0.640208 1.025977 -0.227467
v 0.597821 0.983603 -0.228522
v 0.597821 0.866397 0.278522
v 0.640208 0.824023 0.277467
v 0.640208 0.821734 -0.233796
v 0.597821 0.864108 -0.232742
v 0.802143 0.985893 0.282742
v 0.759756 1.028267 0.283796
v 0.759756 1.025977 -0.227467
v 0.802143 0.983603 -0.228522
v 0.759756 0.824023 0.277467
v 0.802143 0.866397 0.278522
v 0.802143 0.864108 -0.232742
v 0.759756 0.821734 -0.233796
vt 0.845412 0.874154
vt 0.845412 0.877665
vt 0.779594 0.877665
vt 0.779594 0.874154
vt 0.848153 0.903799
vt 0.848153 0.907310
vt 0.848153 0.898844
vt 0.848153 0.895333
vt 0.779591 0.824282
vt 0.845409 0.824282
vt 0.845409 0.815816
vt 0.779591 0.815816
vt 0.845412 0.909065
vt 0.779594 0.909065
vt 0.779594 0.900599
vt 0.845412 0.900599
vt 0.776853 0.895333
vt 0.776853 0.898844
vt 0.776853 0.907310
vt 0.776853 0.903799
vt 0.779594 0.904269
vt 0.779594 0.907780
vt 0.845412 0.907780
vt 0.845412 0.904269
vt 0.779591 0.831547
vt 0.779591 0.900603
vt 0.768621 0.900603
vt 0.768621 0.831547
vt 0.782334 0.831547
vt 0.782334 0.900603
vt 0.782334 0.900603
vt 0.782334 0.831547
vt 0.779591 0.923128
vt 0.768621 0.923128
vt 0.768621 0.923128
vt 0.779591 0.923128
vt 0.765880 0.831547
vt 0.765880 0.900603
vt 0.765880 0.900603
vt 0.765880 0.831547
vt 0.768621 0.831547
vt 0.768621 0.900603
vt 0.779591 0.900603
vt 0.779591 0.831547
vt 0.768621 0.809021
vt 0.768621 0.810839
vt 0.765880 0.810839
vt 0.768621 0.921311
vt 0.765880 0.921311
vt 0.768621 0.809021
vt 0.765880 0.810839
vt 0.768621 0.810839
vt 0.768621 0.921311
vt 0.765880 0.921311
vt 0.779591 0.809021
vt 0.782334 0.810839
vt 0.779591 0.810839
vt 0.779591 0.921311
vt 0.782334 0.921311
vt 0.779591 0.809021
vt 0.779591 0.810839
vt 0.782334 0.810839
vt 0.782334 0.921311
vt 0.779591 0.921311
vt 0.856377 0.831547
vt 0.856377 0.900603
vt 0.845409 0.900603
vt 0.845409 0.831547
vt 0.859120 0.831547
vt 0.859120 0.900603
vt 0.859120 0.900603
vt 0.859120 0.831547
vt 0.856377 0.923128
vt 0.845409 0.923128
vt 0.845409 0.923128
vt 0.856377 0.923128
vt 0.842666 0.831547
vt 0.842666 0.900603
vt 0.842666 0.900603
vt 0.842666 0.831547
vt 0.845409 0.831547
vt 0.845409 0.900603
vt 0.856377 0.900603
vt 0.856377 0.831547
vt 0.845409 0.809021
vt 0.845409 0.810839
vt 0.842666 0.810839
vt 0.845409 0.921311
vt 0.842666 0.921311
vt 0.845409 0.809021
vt 0.842666 0.810839
vt 0.845409 0.810839
vt 0.845409 0.921311
vt 0.842666 0.921311
vt 0.856377 0.809021
vt 0.859120 0.810839
vt 0.856377 0.810839
vt 0.856377 0.921311
vt 0.859120 0.921311
vt 0.856377 0.809021
vt 0.856377 0.810839
vt 0.859120 0.810839
vt 0.859120 0.921311
vt 0.856377 0.921311
vt 0.779591 0.831547
vt 0.779591 0.900603
vt 0.768621 0.900603
vt 0.768621 0.831547
vt 0.782334 0.831547
vt 0.782334 0.900603
vt 0.782334 0.900603
vt 0.782334 0.831547
vt 0.779591 0.923128
vt 0.768621 0.923128
vt 0.768621 0.923128
vt 0.779591 0.923128
vt 0.765880 0.831547
vt 0.765880 0.900603
vt 0.765880 0.900603
vt 0.765880 0.831547
vt 0.768621 0.831547
vt 0.768621 0.900603
vt 0.779591 0.900603
vt 0.779591 0.831547
vt 0.768621 0.809021
vt 0.768621 0.810839
vt 0.765880 0.810839
vt 0.768621 0.921311
vt 0.765880 0.921311
vt 0.768621 0.809021
vt 0.765880 0.810839
vt 0.768621 0.810839
vt 0.768621 0.921311
vt 0.765880 0.921311
vt 0.779591 0.809021
vt 0.782334 0.810839
vt 0.779591 0.810839
vt 0.779591 0.921311
vt 0.782334 0.921311
vt 0.779591 0.809021
vt 0.779591 0.810839
vt 0.782334 0.810839
vt 0.782334 0.921311
vt 0.779591 0.921311
vt 0.856377 0.831547
vt 0.856377 0.900603
vt 0.845409 0.900603
vt 0.845409 0.831547
vt 0.859120 0.831547
vt 0.859120 0.900603
vt 0.859120 0.900603
vt 0.859120 0.831547
vt 0.856377 0.923128
vt 0.845409 0.923128
vt 0.845409 0.923128
vt 0.856377 0.923128
vt 0.842666 0.831547
vt 0.842666 0.900603
vt 0.842666 0.900603
vt 0.842666 0.831547
vt 0.845409 0.831547
vt 0.845409 0.900603
vt 0.856377 0.900603
vt 0.856377 0.831547
vt 0.845409 0.809021
vt 0.845409 0.810839
vt 0.842666 0.810839
vt 0.845409 0.921311
vt 0.842666 0.921311
vt 0.845409 0.809021
vt 0.842666 0.810839
vt 0.845409 0.810839
vt 0.845409 0.921311
vt 0.842666 0.921311
vt 0.856377 0.809021
vt 0.859120 0.810839
vt 0.856377 0.810839
vt 0.856377 0.921311
vt 0.859120 0.921311
vt 0.856377 0.809021
vt 0.856377 0.810839
vt 0.859120 0.810839
vt 0.859120 0.921311
vt 0.856377 0.921311
vt 0.845409 0.837809
vt 0.845409 0.841320
vt 0.779591 0.841320
vt 0.779591 0.837809
vt 0.845409 0.872720
vt 0.779591 0.872720
vt 0.779591 0.864254
vt 0.845409 0.864254
vt 0.779591 0.867924
vt 0.779591 0.871435
vt 0.845409 0.871435
vt 0.845409 0.867924
vt 0.779594 0.852161
vt 0.779594 0.853446
vt 0.776853 0.853916
vt 0.779594 0.898373
vt 0.779594 0.881335
vt 0.776853 0.883091
vt 0.779594 0.883561
vt 0.845412 0.852161
vt 0.848153 0.853916
vt 0.845412 0.853446
vt 0.845412 0.898373
vt 0.845412 0.881335
vt 0.845412 0.883561
vt 0.848153 0.883091
vt 0.779594 0.872869
vt 0.776853 0.874624
vt 0.776853 0.878135
vt 0.845412 0.872869
vt 0.848153 0.874624
vt 0.848153 0.878135
vt 0.845409 0.844990
vt 0.779591 0.844990
vt 0.779591 0.847216
vt 0.845409 0.847216
vt 0.845409 0.817101
vt 0.779591 0.817101
vt 0.779591 0.862028
vt 0.845409 0.862028
vt 0.779594 0.860627
vt 0.845412 0.860627
vt 0.777384 0.887811
vt 0.777384 0.887727
vt 0.770826 0.887727
vt 0.770826 0.887811
vt 0.779709 0.861219
vt 0.779709 0.861136
vt 0.779709 0.865479
vt 0.779709 0.865562
vt 0.768501 0.865562
vt 0.768501 0.865479
vt 0.768501 0.861136
vt 0.768501 0.861219
vt 0.770826 0.838971
vt 0.770826 0.838887
vt 0.777384 0.838887
vt 0.777384 0.838971
vt 0.768501 0.886187
vt 0.768501 0.886270
vt 0.768501 0.840511
vt 0.768501 0.840427
vt 0.779709 0.840427
vt 0.779709 0.840511
vt 0.779709 0.886270
vt 0.779709 0.886187
vt 0.854170 0.887811
vt 0.854170 0.887727
vt 0.847612 0.887727
vt 0.847612 0.887811
vt 0.856495 0.861219
vt 0.856495 0.861136
vt 0.856495 0.865479
vt 0.856495 0.865562
vt 0.845288 0.865562
vt 0.845288 0.865479
vt 0.845288 0.861136
vt 0.845288 0.861219
vt 0.847612 0.838971
vt 0.847612 0.838887
vt 0.854170 0.838887
vt 0.854170 0.838971
vt 0.845288 0.886187
vt 0.845288 0.886270
vt 0.845288 0.840511
vt 0.845288 0.840427
vt 0.856495 0.840427
vt 0.856495 0.840511
vt 0.856495 0.886270
vt 0.856495 0.886187
vn 0.3416 -0.5566 0.7573
vn 0.3416 0.1033 0.9342
vn -0.3416 0.1033 0.9342
vn -0.3416 -0.5566 0.7573
vn 0.8756 -0.2415 -0.4184
vn 0.8756 0.4184 -0.2415
vn 0.8756 0.2415 0.4184
vn 0.8756 -0.4184 0.2415
vn 0.0000 -0.7934 -0.6088
vn 0.0000 -0.9914 0.1305
vn 0.3416 0.9342 -0.1033
vn -0.3416 0.9342 -0.1033
vn -0.3416 0.7573 0.5566
vn 0.3416 0.7573 0.5566
vn -0.8756 -0.4184 0.2415
vn -0.8756 0.2415 0.4184
vn -0.8756 0.4184 -0.2415
vn -0.8756 -0.2415 -0.4184
vn -0.3416 -0.1033 -0.9342
vn -0.3416 0.5566 -0.7573
vn 0.3416 0.5566 -0.7573
vn 0.3416 -0.1033 -0.9342
vn 0.3404 -0.3977 0.8520
vn 0.3416 0.2851 0.8955
vn -0.3416 0.2851 0.8955
vn -0.3404 -0.3977 0.8520
vn 0.8775 -0.3167 -0.3601
vn 0.8741 0.3632 -0.3226
vn 0.8775 0.3167 0.3601
vn 0.8741 -0.3632 0.3226
vn 0.3416 0.8756 -0.3416
vn -0.3416 0.8756 -0.3416
vn -0.3416 0.8756 0.3416
vn 0.3416 0.8756 0.3416
vn -0.8741 -0.3632 0.3226
vn -0.8775 0.3167 0.3601
vn -0.8741 0.3632 -0.3226
vn -0.8775 -0.3167 -0.3601
vn -0.3416 -0.2851 -0.8955
vn -0.3404 0.3977 -0.8520
vn 0.3404 0.3977 -0.8520
vn 0.3416 -0.2851 -0.8955
vn -0.3416 -0.8756 0.3416
vn -0.3416 -0.8756 -0.3416
vn 0.3416 -0.8756 0.3416
vn 0.3416 -0.8756 -0.3416
vn 0.3416 -0.2851 0.8955
vn 0.3404 0.3977 0.8520
vn -0.3404 0.3977 0.8520
vn -0.3416 -0.2851 0.8955
vn 0.8741 -0.3632 -0.3226
vn 0.8775 0.3167 -0.3601
vn 0.8741 0.3632 0.3226
vn 0.8775 -0.3167 0.3601
vn -0.8775 -0.3167 0.3601
vn -0.8741 0.3632 0.3226
vn -0.8775 0.3167 -0.3601
vn -0.8741 -0.3632 -0.3226
vn -0.3404 -0.3977 -0.8520
vn -0.3416 0.2851 -0.8955
vn 0.3416 0.2851 -0.8955
vn 0.3404 -0.3977 -0.8520
vn 0.0000 -0.6088 0.7934
vn 0.0000 0.1305 0.9914
vn 0.0000 0.9914 -0.1305
vn 0.0000 0.7934 0.6088
vn 0.0000 -0.1305 -0.9914
vn 0.0000 0.6088 -0.7934
vn -0.3416 -0.9342 0.1033
vn -0.3416 -0.7573 -0.5566
vn 0.3416 -0.9342 0.1033
vn 0.3416 -0.7573 -0.5566
vn 0.3800 0.9250 -0.0041
vn 0.3851 0.9229 -0.0041
vn -0.3851 0.9229 -0.0041
vn -0.3800 0.9250 -0.0041
vn 0.9268 -0.3754 0.0017
vn 0.9207 -0.3902 0.0017
vn 0.9268 0.3754 -0.0017
vn 0.9207 0.3902 -0.0017
vn -0.9207 0.3902 -0.0017
vn -0.9268 0.3754 -0.0017
vn -0.9207 -0.3902 0.0017
vn -0.9268 -0.3754 0.0017
vn -0.3851 -0.9229 0.0041
vn -0.3800 -0.9250 0.0041
vn 0.3800 -0.9250 0.0041
vn 0.3851 -0.9229 0.0041
usemtl tiny_treats_1
s 1
f 111/1/1 113/2/2 100/3/3 98/4/4
f 117/5/5 119/6/6 114/7/7 110/8/8
f 125/9/9 133/10/9 129/11/10 121/12/10
f 118/13/11 106/14/12 101/15/13 112/16/14
f 99/17/15 102/18/16 108/19/17 104/20/18
f 105/21/19 107/22/20 120/23/21 116/24/22
f 15/25/23 17/26/24 4/27/25 2/28/26
f 21/29/27 23/30/28 18/31/29 14/32/30
f 22/33/31 10/34/32 5/35/33 16/36/34
f 3/37/35 6/38/36 12/39/37 8/40/38
f 9/41/39 11/42/40 24/43/41 20/44/42
f 1/45/43 2/46/26 3/47/35
f 4/48/25 5/35/33 6/49/36
f 7/50/44 8/51/38 9/52/39
f 10/34/32 11/53/40 12/54/37
f 13/55/45 14/56/30 15/57/23
f 16/36/34 17/58/24 18/59/29
f 19/60/46 20/61/42 21/62/27
f 22/33/31 23/63/28 24/64/41
f 7/50/44 1/45/43 3/47/35 8/51/38
f 2/28/26 4/27/25 6/38/36 3/37/35
f 5/35/33 10/34/32 12/54/37 6/49/36
f 11/42/40 9/41/39 8/40/38 12/39/37
f 19/60/46 7/50/44 9/52/39 20/61/42
f 10/34/32 22/33/31 24/64/41 11/53/40
f 23/30/28 21/29/27 20/44/42 24/43/41
f 13/55/45 19/60/46 21/62/27 14/56/30
f 22/33/31 16/36/34 18/59/29 23/63/28
f 17/26/24 15/25/23 14/32/30 18/31/29
f 1/45/43 13/55/45 15/57/23 2/46/26
f 16/36/34 5/35/33 4/48/25 17/58/24
f 7/50/44 19/60/46 13/55/45 1/45/43
f 39/65/23 41/66/24 28/67/25 26/68/26
f 45/69/27 47/70/28 42/71/29 38/72/30
f 46/73/31 34/74/32 29/75/33 40/76/34
f 27/77/35 30/78/36 36/79/37 32/80/38
f 33/81/39 35/82/40 48/83/41 44/84/42
f 25/85/43 26/86/26 27/87/35
f 28/88/25 29/75/33 30/89/36
f 31/90/44 32/91/38 33/92/39
f 34/74/32 35/93/40 36/94/37
f 37/95/45 38/96/30 39/97/23
f 40/76/34 41/98/24 42/99/29
f 43/100/46 44/101/42 45/102/27
f 46/73/31 47/103/28 48/104/41
f 31/90/44 25/85/43 27/87/35 32/91/38
f 26/68/26 28/67/25 30/78/36 27/77/35
f 29/75/33 34/74/32 36/94/37 30/89/36
f 35/82/40 33/81/39 32/80/38 36/79/37
f 43/100/46 31/90/44 33/92/39 44/101/42
f 34/74/32 46/73/31 48/104/41 35/93/40
f 47/70/28 45/69/27 44/84/42 48/83/41
f 37/95/45 43/100/46 45/102/27 38/96/30
f 46/73/31 40/76/34 42/99/29 47/103/28
f 41/66/24 39/65/23 38/72/30 42/71/29
f 25/85/43 37/95/45 39/97/23 26/86/26
f 40/76/34 29/75/33 28/88/25 41/98/24
f 31/90/44 43/100/46 37/95/45 25/85/43
f 63/105/47 65/106/48 52/107/49 50/108/50
f 69/109/51 71/110/52 66/111/53 62/112/54
f 70/113/31 58/114/32 53/115/33 64/116/34
f 51/117/55 54/118/56 60/119/57 56/120/58
f 57/121/59 59/122/60 72/123/61 68/124/62
f 49/125/43 50/126/50 51/127/55
f 52/128/49 53/115/33 54/129/56
f 55/130/44 56/131/58 57/132/59
f 58/114/32 59/133/60 60/134/57
f 61/135/45 62/136/54 63/137/47
f 64/116/34 65/138/48 66/139/53
f 67/140/46 68/141/62 69/142/51
f 70/113/31 71/143/52 72/144/61
f 55/130/44 49/125/43 51/127/55 56/131/58
f 50/108/50 52/107/49 54/118/56 51/117/55
f 53/115/33 58/114/32 60/134/57 54/129/56
f 59/122/60 57/121/59 56/120/58 60/119/57
f 67/140/46 55/130/44 57/132/59 68/141/62
f 58/114/32 70/113/31 72/144/61 59/133/60
f 71/110/52 69/109/51 68/124/62 72/123/61
f 61/135/45 67/140/46 69/142/51 62/136/54
f 70/113/31 64/116/34 66/139/53 71/143/52
f 65/106/48 63/105/47 62/112/54 66/111/53
f 49/125/43 61/135/45 63/137/47 50/126/50
f 64/116/34 53/115/33 52/128/49 65/138/48
f 55/130/44 67/140/46 61/135/45 49/125/43
f 87/145/47 89/146/48 76/147/49 74/148/50
f 93/149/51 95/150/52 90/151/53 86/152/54
f 94/153/31 82/154/32 77/155/33 88/156/34
f 75/157/55 78/158/56 84/159/57 80/160/58
f 81/161/59 83/162/60 96/163/61 92/164/62
f 73/165/43 74/166/50 75/167/55
f 76/168/49 77/155/33 78/169/56
f 79/170/44 80/171/58 81/172/59
f 82/154/32 83/173/60 84/174/57
f 85/175/45 86/176/54 87/177/47
f 88/156/34 89/178/48 90/179/53
f 91/180/46 92/181/62 93/182/51
f 94/153/31 95/183/52 96/184/61
f 79/170/44 73/165/43 75/167/55 80/171/58
f 74/148/50 76/147/49 78/158/56 75/157/55
f 77/155/33 82/154/32 84/174/57 78/169/56
f 83/162/60 81/161/59 80/160/58 84/159/57
f 91/180/46 79/170/44 81/172/59 92/181/62
f 82/154/32 94/153/31 96/184/61 83/173/60
f 95/150/52 93/149/51 92/164/62 96/163/61
f 85/175/45 91/180/46 93/182/51 86/176/54
f 94/153/31 88/156/34 90/179/53 95/183/52
f 89/146/48 87/145/47 86/152/54 90/151/53
f 73/165/43 85/175/45 87/177/47 74/166/50
f 88/156/34 77/155/33 76/168/49 89/178/48
f 79/170/44 91/180/46 85/175/45 73/165/43
f 130/185/63 132/186/64 123/187/64 122/188/63
f 135/189/65 127/190/65 124/191/66 131/192/66
f 126/193/67 128/194/68 136/195/68 134/196/67
f 97/197/69 98/198/4 99/199/15
f 100/200/3 101/15/13 102/18/16
f 103/201/70 104/202/18 105/203/19
f 106/14/12 107/22/20 108/19/17
f 109/204/71 110/205/8 111/206/1
f 112/16/14 113/207/2 114/7/7
f 115/208/72 116/209/22 117/210/5
f 118/13/11 119/6/6 120/23/21
f 103/201/70 97/211/69 99/212/15 104/202/18
f 98/4/4 100/3/3 102/213/16 99/212/15
f 101/15/13 106/14/12 108/19/17 102/18/16
f 107/22/20 105/21/19 104/20/18 108/19/17
f 115/208/72 103/201/70 105/203/19 116/209/22
f 106/14/12 118/13/11 120/23/21 107/22/20
f 119/6/6 117/5/5 116/24/22 120/23/21
f 109/214/71 115/208/72 117/210/5 110/215/8
f 118/13/11 112/16/14 114/7/7 119/6/6
f 113/2/2 111/1/1 110/215/8 114/216/7
f 97/197/69 109/204/71 111/206/1 98/198/4
f 112/16/14 101/15/13 100/200/3 113/207/2
f 133/217/9 125/218/9 126/219/67 134/220/67
f 127/190/65 135/189/65 136/195/68 128/194/68
f 121/12/10 129/11/10 130/221/63 122/222/63
f 131/192/66 124/191/66 123/223/64 132/224/64
f 103/225/70 115/226/72 109/204/71 97/197/69
f 146/227/73 147/228/74 139/229/75 137/230/76
f 150/231/77 151/232/78 148/233/79 145/234/80
f 138/235/81 140/236/82 144/237/83 141/238/84
f 142/239/85 143/240/86 152/241/87 149/242/88
f 137/230/76 139/229/75 140/243/82 138/244/81
f 143/240/86 142/239/85 141/245/84 144/246/83
f 151/247/78 150/248/77 149/242/88 152/241/87
f 147/228/74 146/227/73 145/249/80 148/250/79
f 162/251/73 163/252/74 155/253/75 153/254/76
f 166/255/77 167/256/78 164/257/79 161/258/80
f 154/259/81 156/260/82 160/261/83 157/262/84
f 158/263/85 159/264/86 168/265/87 165/266/88
f 153/254/76 155/253/75 156/267/82 154/268/81
f 159/264/86 158/263/85 157/269/84 160/270/83
f 167/271/78 166/272/77 165/266/88 168/265/87
f 163/252/74 162/251/73 161/273/80 164/274/79
