# Blender v3.4.1 OBJ File: 'Tiny_Treats_Bakery_Building_ASSETS_EXPORT.blend'
# www.blender.org
mtllib doormat.mtl
o doormat
v -0.600000 0.070000 0.250000
v -0.500000 0.070000 0.350000
v -0.586602 0.070000 0.300000
v -0.550000 0.070000 0.336603
v -0.500000 0.070000 -0.350000
v -0.600000 0.070000 -0.250000
v -0.550000 0.070000 -0.336603
v -0.586602 0.070000 -0.300000
v 0.500000 0.070000 0.350000
v 0.600000 0.070000 0.250000
v 0.550000 0.070000 0.336603
v 0.586602 0.070000 0.300000
v 0.600000 0.070000 -0.250000
v 0.500000 0.070000 -0.350000
v 0.586602 0.070000 -0.300000
v 0.550000 0.070000 -0.336603
v -0.452263 0.100000 0.204871
v -0.452263 0.100000 -0.204871
v 0.452263 0.100000 -0.204871
v 0.452263 0.100000 0.204871
v -0.600000 -0.000000 0.250000
v -0.500000 -0.000000 0.350000
v -0.586602 -0.000000 0.300000
v -0.550000 -0.000000 0.336603
v -0.500000 -0.000000 -0.350000
v -0.600000 -0.000000 -0.250000
v -0.550000 -0.000000 -0.336603
v -0.586602 -0.000000 -0.300000
v 0.500000 -0.000000 0.350000
v 0.600000 -0.000000 0.250000
v 0.550000 -0.000000 0.336603
v 0.586602 -0.000000 0.300000
v 0.600000 -0.000000 -0.250000
v 0.500000 -0.000000 -0.350000
v 0.586602 -0.000000 -0.300000
v 0.550000 -0.000000 -0.336603
v -0.496050 0.100000 0.320000
v -0.534471 0.100000 0.309705
v -0.559705 0.100000 0.284471
v -0.570000 0.100000 0.246050
v -0.534471 0.100000 -0.309705
v -0.496050 0.100000 -0.320000
v -0.559705 0.100000 -0.284471
v -0.570000 0.100000 -0.246050
v 0.559705 0.100000 -0.284471
v 0.570000 0.100000 -0.246050
v 0.534471 0.100000 -0.309705
v 0.496050 0.100000 -0.320000
v 0.534471 0.100000 0.309705
v 0.496050 0.100000 0.320000
v 0.559705 0.100000 0.284471
v 0.570000 0.100000 0.246050
v -0.489468 0.100000 0.270000
v -0.511733 0.100000 0.261733
v -0.511733 0.100000 -0.261733
v -0.489468 0.100000 -0.270000
v 0.511733 0.100000 -0.261733
v 0.520000 0.100000 -0.239468
v 0.511733 0.100000 0.261733
v 0.489468 0.100000 0.270000
v -0.520000 0.100000 0.239468
v -0.520000 0.100000 -0.239468
v 0.520000 0.100000 0.239468
v 0.489468 0.100000 -0.270000
vt 0.642357 0.846010
vt 0.642357 0.840637
vt 0.643385 0.840637
vt 0.643385 0.846010
vt 0.733417 0.840637
vt 0.734445 0.840637
vt 0.734445 0.846010
vt 0.733417 0.846010
vt 0.646194 0.840637
vt 0.646194 0.846010
vt 0.734445 0.840637
vt 0.733417 0.840637
vt 0.733417 0.846010
vt 0.734445 0.846010
vt 0.646194 0.840637
vt 0.643385 0.840637
vt 0.643385 0.846010
vt 0.646194 0.846010
vt 0.730608 0.840637
vt 0.730608 0.846010
vt 0.642357 0.840637
vt 0.642357 0.846010
vt 0.726771 0.840637
vt 0.726771 0.846010
vt 0.730608 0.840637
vt 0.726771 0.840637
vt 0.726771 0.846010
vt 0.730608 0.846010
vt 0.650335 0.879561
vt 0.647386 0.879561
vt 0.646194 0.877260
vt 0.650031 0.877260
vt 0.645450 0.879561
vt 0.643385 0.877260
vt 0.644660 0.879561
vt 0.642357 0.877260
vt 0.647386 0.879561
vt 0.650335 0.879561
vt 0.650031 0.877260
vt 0.646194 0.877260
vt 0.645450 0.879561
vt 0.643385 0.877260
vt 0.644660 0.879561
vt 0.642357 0.877260
vt 0.731353 0.879561
vt 0.732143 0.879561
vt 0.734445 0.877260
vt 0.733417 0.877260
vt 0.729416 0.879561
vt 0.730608 0.877260
vt 0.726468 0.879561
vt 0.726771 0.877260
vt 0.729416 0.879561
vt 0.726468 0.879561
vt 0.726771 0.877260
vt 0.730608 0.877260
vt 0.731353 0.879561
vt 0.733417 0.877260
vt 0.732143 0.879561
vt 0.734445 0.877260
vt 0.650031 0.840637
vt 0.650031 0.846010
vt 0.643385 0.809387
vt 0.643385 0.809387
vt 0.642357 0.809387
vt 0.642357 0.809387
vt 0.733417 0.809387
vt 0.733417 0.809387
vt 0.730608 0.809387
vt 0.730608 0.809387
vt 0.734445 0.809387
vt 0.734445 0.809387
vt 0.726771 0.809387
vt 0.726771 0.809387
vt 0.650031 0.809387
vt 0.650031 0.809387
vt 0.646194 0.809387
vt 0.646194 0.809387
vt 0.650031 0.840637
vt 0.650031 0.846010
vt 0.650840 0.879561
vt 0.649131 0.879561
vt 0.648497 0.879561
vt 0.649131 0.879561
vt 0.650840 0.879561
vt 0.648497 0.879561
vt 0.727671 0.879561
vt 0.728306 0.879561
vt 0.725963 0.879561
vt 0.727671 0.879561
vt 0.725963 0.879561
vt 0.728306 0.879561
vt 0.528695 0.879561
vt 0.524131 0.879561
vt 0.525840 0.879561
vt 0.528695 0.879561
vt 0.525840 0.879561
vt 0.524131 0.879561
vt 0.598108 0.879561
vt 0.603306 0.879561
vt 0.602671 0.879561
vt 0.598108 0.879561
vt 0.600963 0.879561
vt 0.602671 0.879561
vt 0.523497 0.879561
vt 0.523497 0.879561
vt 0.603306 0.879561
vt 0.600963 0.879561
vt 0.653695 0.879561
vt 0.653695 0.879561
vt 0.723108 0.879561
vt 0.723108 0.879561
vn -0.9196 0.3738 0.1211
vn -0.9914 0.0000 0.1305
vn -0.8660 0.0000 0.5000
vn -0.8048 0.3692 0.4647
vn 0.8660 0.0000 0.5000
vn 0.9914 0.0000 0.1305
vn 0.9196 0.3738 0.1211
vn 0.8048 0.3692 0.4647
vn -0.5000 0.0000 0.8660
vn -0.4647 0.3692 0.8048
vn 0.9914 0.0000 -0.1305
vn 0.8660 0.0000 -0.5000
vn 0.8048 0.3692 -0.4647
vn 0.9196 0.3738 -0.1211
vn -0.5000 0.0000 -0.8660
vn -0.8660 0.0000 -0.5000
vn -0.8048 0.3692 -0.4647
vn -0.4647 0.3692 -0.8048
vn 0.5000 0.0000 0.8660
vn 0.4647 0.3692 0.8048
vn -0.9914 0.0000 -0.1305
vn -0.9196 0.3738 -0.1211
vn 0.1305 0.0000 0.9914
vn 0.1211 0.3738 0.9196
vn 0.5000 0.0000 -0.8660
vn 0.1305 0.0000 -0.9914
vn 0.1211 0.3738 -0.9196
vn 0.4647 0.3692 -0.8048
vn -0.0531 0.9134 0.4037
vn -0.2129 0.9049 0.3687
vn -0.1211 0.3738 0.9196
vn -0.3687 0.9049 0.2129
vn -0.4037 0.9134 0.0531
vn -0.2129 0.9049 -0.3687
vn -0.0531 0.9134 -0.4037
vn -0.1211 0.3738 -0.9196
vn -0.3687 0.9049 -0.2129
vn -0.4037 0.9134 -0.0531
vn 0.3687 0.9049 -0.2129
vn 0.4037 0.9134 -0.0531
vn 0.2129 0.9049 -0.3687
vn 0.0531 0.9134 -0.4037
vn 0.2129 0.9049 0.3687
vn 0.0531 0.9134 0.4037
vn 0.3687 0.9049 0.2129
vn 0.4037 0.9134 0.0531
vn -0.1305 0.0000 -0.9914
vn 0.0000 -1.0000 0.0000
vn -0.1305 0.0000 0.9914
vn 0.0000 1.0000 0.0000
usemtl tiny_treats_1
s 1
f 1/1/1 21/2/2 23/3/3 3/4/4
f 32/5/5 30/6/6 10/7/7 12/8/8
f 3/4/4 23/3/3 24/9/9 4/10/10
f 33/11/11 35/12/12 15/13/13 13/14/14
f 27/15/15 28/16/16 8/17/17 7/18/18
f 10/7/7 30/6/6 33/11/11 13/14/14
f 31/19/19 32/5/5 12/8/8 11/20/20
f 28/16/16 26/21/21 6/22/22 8/17/17
f 29/23/23 31/19/19 11/20/20 9/24/24
f 36/25/25 34/26/26 14/27/27 16/28/28
f 6/22/22 26/21/21 21/2/2 1/1/1
f 35/12/12 36/25/25 16/28/28 15/13/13
f 37/29/29 38/30/30 4/31/10 2/32/31
f 38/30/30 39/33/32 3/34/4 4/31/10
f 39/33/32 40/35/33 1/36/1 3/34/4
f 41/37/34 42/38/35 5/39/36 7/40/18
f 43/41/37 41/37/34 7/40/18 8/42/17
f 44/43/38 43/41/37 8/42/17 6/44/22
f 45/45/39 46/46/40 13/47/14 15/48/13
f 47/49/41 45/45/39 15/48/13 16/50/28
f 48/51/42 47/49/41 16/50/28 14/52/27
f 49/53/43 50/54/44 9/55/24 11/56/20
f 51/57/45 49/53/43 11/56/20 12/58/8
f 52/59/46 51/57/45 12/58/8 10/60/7
f 40/35/33 44/43/38 6/44/22 1/36/1
f 10/60/7 13/47/14 46/46/40 52/59/46
f 25/61/47 27/15/15 7/18/18 5/62/36
f 28/63/48 23/64/48 21/65/48 26/66/48
f 35/67/48 32/68/48 31/69/48 36/70/48
f 33/71/48 30/72/48 32/68/48 35/67/48
f 36/70/48 31/69/48 29/73/48 34/74/48
f 25/75/48 22/76/48 24/77/48 27/78/48
f 27/78/48 24/77/48 23/64/48 28/63/48
f 4/10/10 24/9/9 22/79/49 2/80/31
f 29/73/48 22/76/48 25/75/48 34/74/48
f 14/52/27 5/39/36 42/38/35 48/51/42
f 50/54/44 37/29/29 2/32/31 9/55/24
f 22/79/49 29/23/23 9/24/24 2/80/31
f 34/26/26 25/61/47 5/62/36 14/27/27
f 53/81/50 54/82/50 38/30/30 37/29/29
f 54/82/50 39/33/32 38/30/30
f 54/82/50 61/83/50 40/35/33 39/33/32
f 55/84/50 56/85/50 42/38/35 41/37/34
f 55/84/50 41/37/34 43/41/37
f 62/86/50 55/84/50 43/41/37 44/43/38
f 57/87/50 58/88/50 46/46/40 45/45/39
f 57/87/50 45/45/39 47/49/41
f 64/89/50 57/87/50 47/49/41 48/51/42
f 59/90/50 60/91/50 50/54/44 49/53/43
f 59/90/50 49/53/43 51/57/45
f 63/92/50 59/90/50 51/57/45 52/59/46
f 61/83/50 62/86/50 44/43/38 40/35/33
f 58/88/50 63/92/50 52/59/46 46/46/40
f 60/91/50 53/81/50 37/29/29 50/54/44
f 56/85/50 64/89/50 48/51/42 42/38/35
f 17/93/50 54/94/50 53/95/50
f 18/96/50 56/97/50 55/98/50
f 19/99/50 58/100/50 57/101/50
f 20/102/50 60/103/50 59/104/50
f 17/93/50 18/96/50 62/105/50 61/106/50
f 19/99/50 20/102/50 63/107/50 58/100/50
f 20/102/50 17/93/50 53/95/50 60/103/50
f 18/96/50 19/99/50 64/108/50 56/97/50
f 18/96/50 55/98/50 62/105/50
f 19/99/50 57/101/50 64/108/50
f 20/102/50 59/104/50 63/107/50
f 17/93/50 61/106/50 54/94/50
f 18/109/50 17/110/50 20/111/50 19/112/50
