# Blender v3.4.1 OBJ File: 'Tiny_Treats_Bakery_Building_ASSETS_EXPORT.blend'
# www.blender.org
mtllib floor_base.mtl
o floor_base
v -5.000000 -0.500000 5.000000
v -6.000000 -0.500000 4.000000
v -5.382683 -0.500000 4.923880
v -5.707107 -0.500000 4.707107
v -5.923880 -0.500000 4.382684
v -6.000000 -0.500000 -4.000000
v -5.000000 -0.500000 -5.000000
v -5.923880 -0.500000 -4.382684
v -5.707107 -0.500000 -4.707107
v -5.382683 -0.500000 -4.923880
v 6.000000 -0.500000 4.000000
v 5.000000 -0.500000 5.000000
v 5.923880 -0.500000 4.382684
v 5.707107 -0.500000 4.707107
v 5.382683 -0.500000 4.923880
v 5.000000 -0.500000 -5.000000
v 6.000000 -0.500000 -4.000000
v 5.382683 -0.500000 -4.923880
v 5.707107 -0.500000 -4.707107
v 5.923880 -0.500000 -4.382684
v -5.900000 0.000000 3.990149
v -6.000000 -0.100000 4.000000
v -5.950000 -0.013397 3.995075
v -5.986602 -0.050000 3.998680
v -4.990150 0.000000 4.900000
v -5.000000 -0.100000 5.000000
v -4.995075 -0.013397 4.950000
v -4.998680 -0.050000 4.986603
v -5.829681 0.000000 4.343666
v -5.923880 -0.100000 4.382684
v -5.876781 -0.013397 4.363174
v -5.911259 -0.050000 4.377456
v -5.635011 0.000000 4.635011
v -5.707107 -0.100000 4.707107
v -5.671059 -0.013397 4.671059
v -5.697448 -0.050000 4.697448
v -5.343665 0.000000 4.829682
v -5.382683 -0.100000 4.923880
v -5.363174 -0.013397 4.876781
v -5.377456 -0.050000 4.911260
v -4.990150 0.000000 -4.900000
v -5.000000 -0.100000 -5.000000
v -4.995075 -0.013397 -4.950000
v -4.998680 -0.050000 -4.986603
v -5.900000 0.000000 -3.990149
v -6.000000 -0.100000 -4.000000
v -5.950000 -0.013397 -3.995074
v -5.986602 -0.050000 -3.998680
v -5.343665 0.000000 -4.829682
v -5.382683 -0.100000 -4.923880
v -5.363174 -0.013397 -4.876781
v -5.377456 -0.050000 -4.911260
v -5.635011 0.000000 -4.635011
v -5.707107 -0.100000 -4.707107
v -5.671059 -0.013397 -4.671059
v -5.697448 -0.050000 -4.697448
v -5.829681 0.000000 -4.343666
v -5.923880 -0.100000 -4.382684
v -5.876781 -0.013397 -4.363174
v -5.911259 -0.050000 -4.377456
v 4.990150 0.000000 4.900000
v 5.000000 -0.100000 5.000000
v 4.995075 -0.013397 4.950000
v 4.998680 -0.050000 4.986603
v 5.900000 0.000000 3.990149
v 6.000000 -0.100000 4.000000
v 5.950000 -0.013397 3.995075
v 5.986602 -0.050000 3.998680
v 5.343665 0.000000 4.829682
v 5.382683 -0.100000 4.923880
v 5.363174 -0.013397 4.876781
v 5.377456 -0.050000 4.911260
v 5.635011 0.000000 4.635011
v 5.707107 -0.100000 4.707107
v 5.671059 -0.013397 4.671059
v 5.697448 -0.050000 4.697448
v 5.829681 0.000000 4.343666
v 5.923880 -0.100000 4.382684
v 5.876781 -0.013397 4.363174
v 5.911259 -0.050000 4.377456
v 5.900000 0.000000 -3.990149
v 6.000000 -0.100000 -4.000000
v 5.950000 -0.013397 -3.995074
v 5.986602 -0.050000 -3.998680
v 4.990150 0.000000 -4.900000
v 5.000000 -0.100000 -5.000000
v 4.995075 -0.013397 -4.950000
v 4.998680 -0.050000 -4.986603
v 5.829681 0.000000 -4.343666
v 5.923880 -0.100000 -4.382684
v 5.876781 -0.013397 -4.363174
v 5.911259 -0.050000 -4.377456
v 5.635011 0.000000 -4.635011
v 5.707107 -0.100000 -4.707107
v 5.671059 -0.013397 -4.671059
v 5.697448 -0.050000 -4.697448
v 5.343665 0.000000 -4.829682
v 5.382683 -0.100000 -4.923880
v 5.363174 -0.013397 -4.876781
v 5.377456 -0.050000 -4.911260
vt 0.278042 0.852657
vt 0.278042 0.860281
vt 0.276455 0.860281
vt 0.276455 0.852657
vt 0.344583 0.860281
vt 0.344583 0.852657
vt 0.346958 0.852657
vt 0.346958 0.860281
vt 0.283218 0.852657
vt 0.283218 0.860281
vt 0.280417 0.860281
vt 0.280417 0.852657
vt 0.277145 0.893436
vt 0.277145 0.893436
vt 0.276630 0.893436
vt 0.276630 0.893436
vt 0.276455 0.860281
vt 0.276455 0.852657
vt 0.275898 0.852657
vt 0.275898 0.860281
vt 0.341781 0.852657
vt 0.341781 0.860281
vt 0.283218 0.860281
vt 0.283218 0.852657
vt 0.280417 0.852657
vt 0.280417 0.860281
vt 0.275898 0.852657
vt 0.275898 0.860281
vt 0.341781 0.860281
vt 0.341781 0.852657
vt 0.278042 0.860281
vt 0.278042 0.852657
vt 0.344583 0.860281
vt 0.344583 0.852657
vt 0.346958 0.860281
vt 0.346958 0.852657
vt 0.348545 0.860281
vt 0.348545 0.852657
vt 0.348545 0.860281
vt 0.348545 0.852657
vt 0.349102 0.852657
vt 0.349102 0.860281
vt 0.349102 0.860281
vt 0.349102 0.852657
vt 0.349102 0.821407
vt 0.349102 0.821407
vt 0.348545 0.821407
vt 0.348545 0.821407
vt 0.283291 0.909061
vt 0.280703 0.909061
vt 0.280560 0.908806
vt 0.283255 0.908806
vt 0.280455 0.908109
vt 0.283228 0.908109
vt 0.280417 0.907156
vt 0.283218 0.907156
vt 0.278570 0.909061
vt 0.278306 0.908806
vt 0.278113 0.908109
vt 0.278042 0.907156
vt 0.277145 0.909061
vt 0.276800 0.908806
vt 0.276548 0.908109
vt 0.276455 0.907156
vt 0.276630 0.909061
vt 0.276264 0.908806
vt 0.275996 0.908109
vt 0.275898 0.907156
vt 0.280703 0.909061
vt 0.283291 0.909061
vt 0.283255 0.908806
vt 0.280560 0.908806
vt 0.283228 0.908109
vt 0.280455 0.908109
vt 0.283218 0.907156
vt 0.280417 0.907156
vt 0.278570 0.909061
vt 0.278306 0.908806
vt 0.278113 0.908109
vt 0.278042 0.907156
vt 0.277145 0.909061
vt 0.276800 0.908806
vt 0.276548 0.908109
vt 0.276455 0.907156
vt 0.276630 0.909061
vt 0.276264 0.908806
vt 0.275996 0.908109
vt 0.275898 0.907156
vt 0.347855 0.909061
vt 0.348370 0.909061
vt 0.348736 0.908806
vt 0.348200 0.908806
vt 0.349004 0.908109
vt 0.348452 0.908109
vt 0.349102 0.907156
vt 0.348545 0.907156
vt 0.346430 0.909061
vt 0.346694 0.908806
vt 0.346887 0.908109
vt 0.346958 0.907156
vt 0.344297 0.909061
vt 0.344440 0.908806
vt 0.344545 0.908109
vt 0.344583 0.907156
vt 0.341709 0.909061
vt 0.341745 0.908806
vt 0.341772 0.908109
vt 0.341781 0.907156
vt 0.344297 0.909061
vt 0.341709 0.909061
vt 0.341745 0.908806
vt 0.344440 0.908806
vt 0.341772 0.908109
vt 0.344545 0.908109
vt 0.341781 0.907156
vt 0.344583 0.907156
vt 0.346430 0.909061
vt 0.346694 0.908806
vt 0.346887 0.908109
vt 0.346958 0.907156
vt 0.347855 0.909061
vt 0.348200 0.908806
vt 0.348452 0.908109
vt 0.348545 0.907156
vt 0.348370 0.909061
vt 0.348736 0.908806
vt 0.349004 0.908109
vt 0.349102 0.907156
vt 0.278570 0.893436
vt 0.278570 0.893436
vt 0.280703 0.893436
vt 0.280703 0.893436
vt 0.283291 0.893436
vt 0.283291 0.893436
vt 0.341709 0.893436
vt 0.341709 0.893436
vt 0.344297 0.893436
vt 0.344297 0.893436
vt 0.346430 0.893436
vt 0.346430 0.893436
vt 0.347855 0.893436
vt 0.347855 0.893436
vt 0.348370 0.893436
vt 0.348370 0.893436
vt 0.346958 0.821407
vt 0.346958 0.821407
vt 0.344583 0.821407
vt 0.344583 0.821407
vt 0.341781 0.821407
vt 0.341781 0.821407
vt 0.283218 0.821407
vt 0.283218 0.821407
vt 0.280417 0.821407
vt 0.280417 0.821407
vt 0.278042 0.821407
vt 0.278042 0.821407
vt 0.276455 0.821407
vt 0.276455 0.821407
vt 0.275898 0.821407
vt 0.275898 0.821407
vn -0.7071 0.0000 0.7071
vn -0.7010 0.1308 0.7010
vn -0.9159 0.1308 0.3794
vn -0.9239 0.0000 0.3827
vn 0.3794 0.1308 0.9159
vn 0.3827 0.0000 0.9239
vn 0.7071 0.0000 0.7071
vn 0.7010 0.1308 0.7010
vn -0.0980 0.0000 0.9952
vn -0.0972 0.1301 0.9867
vn -0.3794 0.1308 0.9159
vn -0.3827 0.0000 0.9239
vn -0.1329 0.9896 0.0550
vn -0.1329 0.9896 -0.0550
vn -0.1372 0.9904 -0.0135
vn -0.1372 0.9904 0.0135
vn -0.9159 0.1308 -0.3794
vn -0.9239 0.0000 -0.3827
vn -0.9952 0.0000 -0.0980
vn -0.9867 0.1301 -0.0972
vn 0.0980 0.0000 0.9952
vn 0.0972 0.1301 0.9867
vn -0.0972 0.1301 -0.9867
vn -0.0980 0.0000 -0.9952
vn -0.3827 0.0000 -0.9239
vn -0.3794 0.1308 -0.9159
vn -0.9952 0.0000 0.0980
vn -0.9867 0.1301 0.0972
vn 0.0972 0.1301 -0.9867
vn 0.0980 0.0000 -0.9952
vn -0.7010 0.1308 -0.7010
vn -0.7071 0.0000 -0.7071
vn 0.3794 0.1308 -0.9159
vn 0.3827 0.0000 -0.9239
vn 0.7010 0.1308 -0.7010
vn 0.7071 0.0000 -0.7071
vn 0.9159 0.1308 -0.3794
vn 0.9239 0.0000 -0.3827
vn 0.9159 0.1308 0.3794
vn 0.9239 0.0000 0.3827
vn 0.9952 0.0000 0.0980
vn 0.9867 0.1301 0.0972
vn 0.9867 0.1301 -0.0972
vn 0.9952 0.0000 -0.0980
vn 0.0000 -1.0000 0.0000
vn -0.0135 0.9904 0.1372
vn -0.0550 0.9896 0.1329
vn -0.1979 0.8559 0.4778
vn -0.0500 0.8600 0.5079
vn -0.3330 0.4926 0.8040
vn -0.0852 0.4947 0.8649
vn -0.1017 0.9896 0.1017
vn -0.3657 0.8559 0.3657
vn -0.6154 0.4926 0.6154
vn -0.4778 0.8559 0.1979
vn -0.8040 0.4926 0.3330
vn -0.5079 0.8600 0.0500
vn -0.8649 0.4947 0.0852
vn -0.0550 0.9896 -0.1329
vn -0.0135 0.9904 -0.1372
vn -0.0500 0.8600 -0.5079
vn -0.1979 0.8559 -0.4778
vn -0.0852 0.4947 -0.8649
vn -0.3330 0.4926 -0.8040
vn -0.1017 0.9896 -0.1017
vn -0.3657 0.8559 -0.3657
vn -0.6154 0.4926 -0.6154
vn -0.4778 0.8559 -0.1979
vn -0.8040 0.4926 -0.3330
vn -0.5079 0.8600 -0.0500
vn -0.8649 0.4947 -0.0852
vn 0.1329 0.9896 -0.0550
vn 0.1372 0.9904 -0.0135
vn 0.5079 0.8600 -0.0500
vn 0.4778 0.8559 -0.1979
vn 0.8649 0.4947 -0.0852
vn 0.8040 0.4926 -0.3330
vn 0.1017 0.9896 -0.1017
vn 0.3657 0.8559 -0.3657
vn 0.6154 0.4926 -0.6154
vn 0.0550 0.9896 -0.1329
vn 0.1979 0.8559 -0.4778
vn 0.3330 0.4926 -0.8040
vn 0.0135 0.9904 -0.1372
vn 0.0500 0.8600 -0.5079
vn 0.0852 0.4947 -0.8649
vn 0.0550 0.9896 0.1329
vn 0.0135 0.9904 0.1372
vn 0.0500 0.8600 0.5079
vn 0.1979 0.8559 0.4778
vn 0.0852 0.4947 0.8649
vn 0.3330 0.4926 0.8040
vn 0.1017 0.9896 0.1017
vn 0.3657 0.8559 0.3657
vn 0.6154 0.4926 0.6154
vn 0.1329 0.9896 0.0550
vn 0.4778 0.8559 0.1979
vn 0.8040 0.4926 0.3330
vn 0.1372 0.9904 0.0135
vn 0.5079 0.8600 0.0500
vn 0.8649 0.4947 0.0852
usemtl tiny_treats_1
s 1
f 4/1/1 34/2/2 30/3/3 5/4/4
f 70/5/5 15/6/6 14/7/7 74/8/8
f 1/9/9 26/10/10 38/11/11 3/12/12
f 29/13/13 57/14/14 45/15/15 21/16/16
f 58/17/17 8/18/18 6/19/19 46/20/20
f 12/21/21 62/22/22 26/10/10 1/9/9
f 42/23/23 7/24/24 10/25/25 50/26/26
f 3/12/12 38/11/11 34/2/2 4/1/1
f 2/27/27 22/28/28 46/20/20 6/19/19
f 7/24/24 42/23/23 86/29/29 16/30/30
f 54/31/31 9/32/32 8/18/18 58/17/17
f 62/22/22 12/21/21 15/6/6 70/5/5
f 50/26/26 10/25/25 9/32/32 54/31/31
f 98/33/33 18/34/34 16/30/30 86/29/29
f 94/35/35 19/36/36 18/34/34 98/33/33
f 90/37/37 20/38/38 19/36/36 94/35/35
f 78/39/39 13/40/40 11/41/41 66/42/42
f 74/8/8 14/7/7 13/40/40 78/39/39
f 82/43/43 17/44/44 20/38/38 90/37/37
f 17/44/44 82/43/43 66/42/42 11/41/41
f 17/45/45 11/46/45 13/47/45 20/48/45
f 25/49/46 37/50/47 39/51/48 27/52/49
f 27/52/49 39/51/48 40/53/50 28/54/51
f 28/54/51 40/53/50 38/55/11 26/56/10
f 37/50/47 33/57/52 35/58/53 39/51/48
f 39/51/48 35/58/53 36/59/54 40/53/50
f 40/53/50 36/59/54 34/60/2 38/55/11
f 33/57/52 29/61/13 31/62/55 35/58/53
f 35/58/53 31/62/55 32/63/56 36/59/54
f 36/59/54 32/63/56 30/64/3 34/60/2
f 29/61/13 21/65/16 23/66/57 31/62/55
f 31/62/55 23/66/57 24/67/58 32/63/56
f 32/63/56 24/67/58 22/68/28 30/64/3
f 49/69/59 41/70/60 43/71/61 51/72/62
f 51/72/62 43/71/61 44/73/63 52/74/64
f 52/74/64 44/73/63 42/75/23 50/76/26
f 53/77/65 49/69/59 51/72/62 55/78/66
f 55/78/66 51/72/62 52/74/64 56/79/67
f 56/79/67 52/74/64 50/76/26 54/80/31
f 57/81/14 53/77/65 55/78/66 59/82/68
f 59/82/68 55/78/66 56/79/67 60/83/69
f 60/83/69 56/79/67 54/80/31 58/84/17
f 45/85/15 57/81/14 59/82/68 47/86/70
f 47/86/70 59/82/68 60/83/69 48/87/71
f 48/87/71 60/83/69 58/84/17 46/88/20
f 89/89/72 81/90/73 83/91/74 91/92/75
f 91/92/75 83/91/74 84/93/76 92/94/77
f 92/94/77 84/93/76 82/95/43 90/96/37
f 93/97/78 89/89/72 91/92/75 95/98/79
f 95/98/79 91/92/75 92/94/77 96/99/80
f 96/99/80 92/94/77 90/96/37 94/100/35
f 97/101/81 93/97/78 95/98/79 99/102/82
f 99/102/82 95/98/79 96/99/80 100/103/83
f 100/103/83 96/99/80 94/100/35 98/104/33
f 85/105/84 97/101/81 99/102/82 87/106/85
f 87/106/85 99/102/82 100/103/83 88/107/86
f 88/107/86 100/103/83 98/104/33 86/108/29
f 69/109/87 61/110/88 63/111/89 71/112/90
f 71/112/90 63/111/89 64/113/91 72/114/92
f 72/114/92 64/113/91 62/115/22 70/116/5
f 73/117/93 69/109/87 71/112/90 75/118/94
f 75/118/94 71/112/90 72/114/92 76/119/95
f 76/119/95 72/114/92 70/116/5 74/120/8
f 77/121/96 73/117/93 75/118/94 79/122/97
f 79/122/97 75/118/94 76/119/95 80/123/98
f 80/123/98 76/119/95 74/120/8 78/124/39
f 65/125/99 77/121/96 79/122/97 67/126/100
f 67/126/100 79/122/97 80/123/98 68/127/101
f 68/127/101 80/123/98 78/124/39 66/128/42
f 21/65/16 45/85/15 47/86/70 23/66/57
f 23/66/57 47/86/70 48/87/71 24/67/58
f 24/67/58 48/87/71 46/88/20 22/68/28
f 61/110/88 25/49/46 27/52/49 63/111/89
f 63/111/89 27/52/49 28/54/51 64/113/91
f 64/113/91 28/54/51 26/56/10 62/115/22
f 66/128/42 82/95/43 84/93/76 68/127/101
f 68/127/101 84/93/76 83/91/74 67/126/100
f 67/126/100 83/91/74 81/90/73 65/125/99
f 86/108/29 42/75/23 44/73/63 88/107/86
f 88/107/86 44/73/63 43/71/61 87/106/85
f 87/106/85 43/71/61 41/70/60 85/105/84
f 5/4/4 30/3/3 22/28/28 2/27/27
f 33/129/52 53/130/65 57/14/14 29/13/13
f 37/131/47 49/132/59 53/130/65 33/129/52
f 25/133/46 41/134/60 49/132/59 37/131/47
f 61/135/88 85/136/84 41/134/60 25/133/46
f 85/136/84 61/135/88 69/137/87 97/138/81
f 97/138/81 69/137/87 73/139/93 93/140/78
f 93/140/78 73/139/93 77/141/96 89/142/72
f 89/142/72 77/141/96 65/143/99 81/144/73
f 20/48/45 13/47/45 14/145/45 19/146/45
f 19/146/45 14/145/45 15/147/45 18/148/45
f 18/148/45 15/147/45 12/149/45 16/150/45
f 7/151/45 16/150/45 12/149/45 1/152/45
f 3/153/45 10/154/45 7/151/45 1/152/45
f 4/155/45 9/156/45 10/154/45 3/153/45
f 5/157/45 8/158/45 9/156/45 4/155/45
f 2/159/45 6/160/45 8/158/45 5/157/45
