# Blender v3.4.1 OBJ File: 'Tiny_Treats_Bakery_Building_ASSETS_EXPORT.blend'
# www.blender.org
mtllib newspaper.mtl
o newspaper
v -0.406138 0.090336 0.030677
v -0.064675 0.090336 0.030677
v -0.406138 0.090336 -0.030980
v -0.064675 0.090336 -0.030980
v -0.395556 0.099998 0.019939
v -0.075257 0.099998 0.019939
v -0.395556 0.099998 -0.020242
v -0.075257 0.099998 -0.020242
v -0.149409 0.099998 -0.278018
v -0.395556 0.099998 -0.278018
v -0.149409 0.099998 -0.237837
v -0.395556 0.099998 -0.237837
v -0.138827 0.090336 -0.288756
v -0.406138 0.090336 -0.288756
v -0.138827 0.090336 -0.227099
v -0.406138 0.090336 -0.227099
v -0.212901 0.099998 -0.202850
v -0.395556 0.099998 -0.202850
v -0.212901 0.099998 -0.162669
v -0.395556 0.099998 -0.162669
v -0.202319 0.090336 -0.213588
v -0.406138 0.090336 -0.213588
v -0.202319 0.090336 -0.151931
v -0.406138 0.090336 -0.151931
v -0.075257 0.099998 -0.127682
v -0.395556 0.099998 -0.127682
v -0.075257 0.099998 -0.087502
v -0.395556 0.099998 -0.087502
v -0.064675 0.090336 -0.138420
v -0.406138 0.090336 -0.138420
v -0.064675 0.090336 -0.076763
v -0.406138 0.090336 -0.076763
v 0.070259 0.090336 -0.227180
v 0.305856 0.090336 -0.227180
v 0.070259 0.090336 -0.288837
v 0.305856 0.090336 -0.288837
v 0.080841 0.099998 -0.237918
v 0.295274 0.099998 -0.237918
v 0.080841 0.099998 -0.278099
v 0.295274 0.099998 -0.278099
v 0.070259 0.090336 -0.141228
v 0.411722 0.090336 -0.141228
v 0.070259 0.090336 -0.202885
v 0.411722 0.090336 -0.202885
v 0.080841 0.099998 -0.151966
v 0.401140 0.099998 -0.151966
v 0.080841 0.099998 -0.192147
v 0.401140 0.099998 -0.192147
v 0.070259 0.090336 0.030677
v 0.327029 0.090336 0.030677
v 0.070259 0.090336 -0.030980
v 0.327029 0.090336 -0.030980
v 0.080841 0.099998 0.019939
v 0.316447 0.099998 0.019939
v 0.080841 0.099998 -0.020242
v 0.316447 0.099998 -0.020242
v 0.070259 0.090336 0.116630
v 0.390549 0.090336 0.116630
v 0.070259 0.090336 0.054973
v 0.390549 0.090336 0.054973
v 0.080841 0.099998 0.105892
v 0.379967 0.099998 0.105892
v 0.080841 0.099998 0.065711
v 0.379967 0.099998 0.065711
v -0.406138 0.090336 0.127374
v -0.159954 0.090336 0.127374
v -0.406138 0.090336 0.065717
v -0.159954 0.090336 0.065717
v -0.395556 0.099998 0.116636
v -0.170536 0.099998 0.116636
v -0.395556 0.099998 0.076455
v -0.170536 0.099998 0.076455
v -0.406138 0.090336 0.320767
v -0.117608 0.090336 0.320767
v -0.406138 0.090336 0.259110
v -0.117608 0.090336 0.259110
v -0.117608 0.090336 0.151669
v -0.406138 0.090336 0.151669
v -0.117608 0.090336 0.213326
v -0.406138 0.090336 0.213326
v -0.395556 0.099998 0.202588
v -0.128190 0.099998 0.202588
v -0.395556 0.099998 0.162408
v -0.128190 0.099998 0.162408
v -0.447094 0.016523 0.400000
v -0.433726 -0.000002 0.367243
v -0.447094 0.072938 0.400000
v -0.433726 0.089370 0.367243
v -0.500004 0.072938 0.346309
v -0.467728 0.089370 0.332739
v -0.500004 0.016523 0.346309
v -0.467728 -0.000002 0.332739
v -0.447094 0.072938 -0.400000
v -0.433726 0.089370 -0.367243
v -0.447094 0.016523 -0.400000
v -0.433726 -0.000002 -0.367243
v -0.500004 0.016523 -0.346309
v -0.467728 -0.000002 -0.332739
v -0.500004 0.072938 -0.346309
v -0.467728 0.089370 -0.332739
v 0.499996 0.072938 -0.346309
v 0.467719 0.089370 -0.332739
v 0.499996 0.016523 -0.346309
v 0.467719 -0.000002 -0.332739
v 0.447086 0.016523 -0.400000
v 0.433717 -0.000002 -0.367243
v 0.447086 0.072938 -0.400000
v 0.433717 0.089370 -0.367243
v 0.447086 0.072938 0.400000
v 0.433717 0.089370 0.367243
v 0.447086 0.016523 0.400000
v 0.433717 -0.000002 0.367243
v 0.499996 0.016523 0.346309
v 0.467719 -0.000002 0.332739
v 0.499996 0.072938 0.346309
v 0.467719 0.089370 0.332739
v 0.070259 0.090336 0.213326
v 0.263510 0.090336 0.213326
v 0.070259 0.090336 0.151669
v 0.263510 0.090336 0.151669
v 0.080841 0.099998 0.202588
v 0.252928 0.099998 0.202588
v 0.080841 0.099998 0.162408
v 0.252928 0.099998 0.162408
v 0.070259 0.090336 0.299279
v 0.390549 0.090336 0.299279
v 0.070259 0.090336 0.237622
v 0.390549 0.090336 0.237622
v 0.080841 0.099998 0.288541
v 0.379967 0.099998 0.288541
v 0.080841 0.099998 0.248360
v 0.379967 0.099998 0.248360
v -0.406138 0.090336 0.310023
v -0.159954 0.090336 0.310023
v -0.406138 0.090336 0.248366
v -0.159954 0.090336 0.248366
v -0.395556 0.099998 0.299285
v -0.170536 0.099998 0.299285
v -0.395556 0.099998 0.259104
v -0.170536 0.099998 0.259104
vt 0.156973 0.862704
vt 0.156134 0.861865
vt 0.168940 0.861865
vt 0.168101 0.862704
vt 0.168940 0.861865
vt 0.168101 0.862704
vt 0.156134 0.861865
vt 0.156973 0.862704
vt 0.168101 0.893954
vt 0.156973 0.893954
vt 0.156973 0.893954
vt 0.168101 0.893954
vt 0.176492 0.893954
vt 0.156973 0.893954
vt 0.156973 0.893954
vt 0.176492 0.893954
vt 0.176492 0.862704
vt 0.177331 0.861865
vt 0.156134 0.861865
vt 0.156973 0.862704
vt 0.156134 0.861865
vt 0.156973 0.862704
vt 0.177331 0.861865
vt 0.176492 0.862704
vt 0.171458 0.893954
vt 0.156973 0.893954
vt 0.156973 0.893954
vt 0.171458 0.893954
vt 0.171458 0.862704
vt 0.172297 0.861865
vt 0.156134 0.861865
vt 0.156973 0.862704
vt 0.156134 0.861865
vt 0.156973 0.862704
vt 0.172297 0.861865
vt 0.171458 0.862704
vt 0.168101 0.893954
vt 0.156973 0.893954
vt 0.156973 0.893954
vt 0.168101 0.893954
vt 0.168101 0.862704
vt 0.168940 0.861865
vt 0.156134 0.861865
vt 0.156973 0.862704
vt 0.156134 0.861865
vt 0.156973 0.862704
vt 0.168940 0.861865
vt 0.168101 0.862704
vt 0.156973 0.862704
vt 0.156134 0.861865
vt 0.168940 0.861865
vt 0.168101 0.862704
vt 0.168940 0.861865
vt 0.168101 0.862704
vt 0.156134 0.861865
vt 0.156973 0.862704
vt 0.168101 0.893954
vt 0.156973 0.893954
vt 0.156973 0.893954
vt 0.168101 0.893954
vt 0.156973 0.862704
vt 0.156134 0.861865
vt 0.168940 0.861865
vt 0.168101 0.862704
vt 0.168940 0.861865
vt 0.168101 0.862704
vt 0.156134 0.861865
vt 0.156973 0.862704
vt 0.168101 0.893954
vt 0.156973 0.893954
vt 0.156973 0.893954
vt 0.168101 0.893954
vt 0.156973 0.862704
vt 0.156134 0.861865
vt 0.168940 0.861865
vt 0.168101 0.862704
vt 0.168940 0.861865
vt 0.168101 0.862704
vt 0.156134 0.861865
vt 0.156973 0.862704
vt 0.168101 0.893954
vt 0.156973 0.893954
vt 0.156973 0.893954
vt 0.168101 0.893954
vt 0.156973 0.862704
vt 0.156134 0.861865
vt 0.168940 0.861865
vt 0.168101 0.862704
vt 0.168940 0.861865
vt 0.168101 0.862704
vt 0.156134 0.861865
vt 0.156973 0.862704
vt 0.168101 0.893954
vt 0.156973 0.893954
vt 0.156973 0.893954
vt 0.168101 0.893954
vt 0.156973 0.862704
vt 0.156134 0.861865
vt 0.168940 0.861865
vt 0.168101 0.862704
vt 0.168940 0.861865
vt 0.168101 0.862704
vt 0.156134 0.861865
vt 0.156973 0.862704
vt 0.168101 0.893954
vt 0.156973 0.893954
vt 0.156973 0.893954
vt 0.168101 0.893954
vt 0.156973 0.862704
vt 0.156134 0.861865
vt 0.168940 0.861865
vt 0.168101 0.862704
vt 0.168940 0.861865
vt 0.168101 0.862704
vt 0.156134 0.861865
vt 0.156973 0.862704
vt 0.168101 0.893954
vt 0.156973 0.893954
vt 0.156973 0.893954
vt 0.168101 0.893954
vt 0.477148 0.805371
vt 0.472953 0.805371
vt 0.402047 0.805371
vt 0.397851 0.805371
vt 0.477148 0.875000
vt 0.472953 0.875000
vt 0.402047 0.875000
vt 0.397851 0.875000
vt 0.477148 0.842439
vt 0.477148 0.837939
vt 0.472953 0.837940
vt 0.472953 0.842439
vt 0.402047 0.837939
vt 0.402047 0.842439
vt 0.402047 0.837940
vt 0.402047 0.842439
vt 0.397851 0.842439
vt 0.397851 0.837939
vt 0.477148 0.875000
vt 0.397851 0.875000
vt 0.477148 0.842439
vt 0.477148 0.837940
vt 0.472953 0.875000
vt 0.402047 0.875000
vt 0.397851 0.837940
vt 0.397851 0.842439
vt 0.472953 0.842439
vt 0.472953 0.837939
vt 0.477148 0.806689
vt 0.477148 0.806690
vt 0.477148 0.805371
vt 0.397851 0.873689
vt 0.397851 0.873689
vt 0.397851 0.805371
vt 0.477148 0.873689
vt 0.477148 0.873689
vt 0.472953 0.806689
vt 0.402047 0.806690
vt 0.472953 0.805371
vt 0.402047 0.805371
vt 0.402047 0.806689
vt 0.472953 0.806690
vt 0.472953 0.873689
vt 0.472953 0.873689
vt 0.397851 0.806689
vt 0.397851 0.806690
vt 0.402047 0.873689
vt 0.402047 0.873689
vt 0.156973 0.862704
vt 0.156134 0.861865
vt 0.168940 0.861865
vt 0.168101 0.862704
vt 0.168940 0.861865
vt 0.168101 0.862704
vt 0.156134 0.861865
vt 0.156973 0.862704
vt 0.168101 0.893954
vt 0.156973 0.893954
vt 0.156973 0.893954
vt 0.168101 0.893954
vt 0.156973 0.862704
vt 0.156134 0.861865
vt 0.168940 0.861865
vt 0.168101 0.862704
vt 0.168940 0.861865
vt 0.168101 0.862704
vt 0.156134 0.861865
vt 0.156973 0.862704
vt 0.168101 0.893954
vt 0.156973 0.893954
vt 0.156973 0.893954
vt 0.168101 0.893954
vt 0.156973 0.862704
vt 0.156134 0.861865
vt 0.168940 0.861865
vt 0.168101 0.862704
vt 0.168940 0.861865
vt 0.168101 0.862704
vt 0.156134 0.861865
vt 0.156973 0.862704
vt 0.168101 0.893954
vt 0.156973 0.893954
vt 0.156973 0.893954
vt 0.168101 0.893954
vn -0.2828 0.9176 0.2792
vn 0.0000 0.7434 0.6689
vn 0.2828 0.9176 0.2792
vn 0.6743 0.7385 0.0000
vn 0.2828 0.9176 -0.2792
vn 0.0000 0.7434 -0.6689
vn -0.2828 0.9176 -0.2792
vn -0.6743 0.7385 0.0000
vn 0.2491 -0.9632 0.1013
vn 0.1040 -0.9636 0.2464
vn -0.1040 -0.9636 0.2464
vn -0.2491 -0.9632 0.1013
vn 0.2479 0.9635 -0.1008
vn 0.1035 0.9639 -0.2453
vn -0.1035 0.9639 -0.2453
vn -0.2479 0.9635 -0.1008
vn 0.9253 0.0000 -0.3793
vn 0.3861 0.0000 -0.9225
vn -0.3861 0.0000 -0.9225
vn -0.3861 0.0000 0.9225
vn -0.9253 0.0000 0.3793
vn 0.2479 0.9635 0.1008
vn -0.2479 0.9635 0.1008
vn 0.9253 0.0000 0.3793
vn 0.1035 0.9639 0.2453
vn -0.1035 0.9639 0.2453
vn -0.9253 0.0000 -0.3793
vn 0.3861 0.0000 0.9225
vn 0.3947 -0.9043 -0.1625
vn 0.3947 -0.9043 0.1625
vn 0.2491 -0.9632 -0.1013
vn -0.3929 0.9053 -0.1617
vn -0.3929 0.9053 0.1617
vn -0.2491 -0.9632 -0.1013
vn 0.3929 0.9053 0.1617
vn 0.3929 0.9053 -0.1617
vn 0.1628 -0.9060 0.3906
vn -0.1628 -0.9060 0.3906
vn 0.1040 -0.9636 -0.2464
vn -0.1040 -0.9636 -0.2464
vn -0.1628 -0.9060 -0.3906
vn 0.1628 -0.9060 -0.3906
vn 0.1620 0.9070 0.3888
vn 0.1620 0.9070 -0.3888
vn -0.3947 -0.9043 0.1625
vn -0.3947 -0.9043 -0.1625
vn -0.1620 0.9070 -0.3888
vn -0.1620 0.9070 0.3888
usemtl tiny_treats_1
s 1
f 5/1/1 1/2/2 2/3/2 6/4/3
f 6/4/3 2/3/4 4/5/4 8/6/5
f 8/6/5 4/5/6 3/7/6 7/8/7
f 8/9/5 7/10/7 5/11/1 6/12/3
f 7/8/7 3/7/8 1/2/8 5/1/1
f 9/13/5 10/14/7 12/15/1 11/16/3
f 9/17/5 13/18/6 14/19/6 10/20/7
f 10/20/7 14/19/8 16/21/8 12/22/1
f 12/22/1 16/21/2 15/23/2 11/24/3
f 11/24/3 15/23/4 13/18/4 9/17/5
f 17/25/5 18/26/7 20/27/1 19/28/3
f 17/29/5 21/30/6 22/31/6 18/32/7
f 18/32/7 22/31/8 24/33/8 20/34/1
f 20/34/1 24/33/2 23/35/2 19/36/3
f 19/36/3 23/35/4 21/30/4 17/29/5
f 25/37/5 26/38/7 28/39/1 27/40/3
f 25/41/5 29/42/6 30/43/6 26/44/7
f 26/44/7 30/43/8 32/45/8 28/46/1
f 28/46/1 32/45/2 31/47/2 27/48/3
f 27/48/3 31/47/4 29/42/4 25/41/5
f 37/49/1 33/50/2 34/51/2 38/52/3
f 38/52/3 34/51/4 36/53/4 40/54/5
f 40/54/5 36/53/6 35/55/6 39/56/7
f 40/57/5 39/58/7 37/59/1 38/60/3
f 39/56/7 35/55/8 33/50/8 37/49/1
f 45/61/1 41/62/2 42/63/2 46/64/3
f 46/64/3 42/63/4 44/65/4 48/66/5
f 48/66/5 44/65/6 43/67/6 47/68/7
f 48/69/5 47/70/7 45/71/1 46/72/3
f 47/68/7 43/67/8 41/62/8 45/61/1
f 53/73/1 49/74/2 50/75/2 54/76/3
f 54/76/3 50/75/4 52/77/4 56/78/5
f 56/78/5 52/77/6 51/79/6 55/80/7
f 56/81/5 55/82/7 53/83/1 54/84/3
f 55/80/7 51/79/8 49/74/8 53/73/1
f 61/85/1 57/86/2 58/87/2 62/88/3
f 62/88/3 58/87/4 60/89/4 64/90/5
f 64/90/5 60/89/6 59/91/6 63/92/7
f 64/93/5 63/94/7 61/95/1 62/96/3
f 63/92/7 59/91/8 57/86/8 61/85/1
f 69/97/1 65/98/2 66/99/2 70/100/3
f 70/100/3 66/99/4 68/101/4 72/102/5
f 72/102/5 68/101/6 67/103/6 71/104/7
f 72/105/5 71/106/7 69/107/1 70/108/3
f 71/104/7 67/103/8 65/98/8 69/97/1
f 81/109/1 80/110/2 79/111/2 82/112/3
f 82/112/3 79/111/4 77/113/4 84/114/5
f 84/114/5 77/113/6 78/115/6 83/116/7
f 84/117/5 83/118/7 81/119/1 82/120/3
f 83/116/7 78/115/8 80/110/8 81/109/1
f 114/121/9 112/122/10 86/123/11 92/124/12
f 102/125/13 108/126/14 94/127/15 100/128/16
f 101/129/17 103/130/17 105/131/18 107/132/18
f 105/131/18 95/133/19 93/134/19 107/132/18
f 85/135/20 87/136/20 89/137/21 91/138/21
f 116/139/22 102/125/13 100/128/16 90/140/23
f 101/129/17 115/141/24 113/142/24 103/130/17
f 110/143/25 116/139/22 90/140/23 88/144/26
f 97/145/27 91/138/21 89/137/21 99/146/27
f 109/147/28 87/136/20 85/135/20 111/148/28
f 93/134/19 95/133/19 97/145/27 99/146/27
f 109/147/28 111/148/28 113/142/24 115/141/24
f 103/149/29 113/150/30 114/121/9 104/151/31
f 99/152/32 89/153/33 90/140/23 100/128/16
f 104/151/31 114/121/9 92/124/12 98/154/34
f 102/125/13 116/139/22 115/155/35 101/156/36
f 111/157/37 85/158/38 86/123/11 112/122/10
f 106/159/39 96/160/40 95/161/41 105/162/42
f 109/163/43 115/155/35 116/139/22 110/143/25
f 112/122/10 114/121/9 113/150/30 111/157/37
f 101/156/36 107/164/44 108/126/14 102/125/13
f 104/151/31 106/159/39 105/162/42 103/149/29
f 98/154/34 92/124/12 91/165/45 97/166/46
f 93/167/47 99/152/32 100/128/16 94/127/15
f 96/160/40 98/154/34 97/166/46 95/161/41
f 85/158/38 91/165/45 92/124/12 86/123/11
f 88/144/26 90/140/23 89/153/33 87/168/48
f 107/164/44 93/167/47 94/127/15 108/126/14
f 110/143/25 88/144/26 87/168/48 109/163/43
f 106/159/39 104/151/31 98/154/34 96/160/40
f 121/169/1 117/170/2 118/171/2 122/172/3
f 122/172/3 118/171/4 120/173/4 124/174/5
f 124/174/5 120/173/6 119/175/6 123/176/7
f 124/177/5 123/178/7 121/179/1 122/180/3
f 123/176/7 119/175/8 117/170/8 121/169/1
f 129/181/1 125/182/2 126/183/2 130/184/3
f 130/184/3 126/183/4 128/185/4 132/186/5
f 132/186/5 128/185/6 127/187/6 131/188/7
f 132/189/5 131/190/7 129/191/1 130/192/3
f 131/188/7 127/187/8 125/182/8 129/181/1
f 137/193/1 133/194/2 134/195/2 138/196/3
f 138/196/3 134/195/4 136/197/4 140/198/5
f 140/198/5 136/197/6 135/199/6 139/200/7
f 140/201/5 139/202/7 137/203/1 138/204/3
f 139/200/7 135/199/8 133/194/8 137/193/1
