# Blender v3.4.1 OBJ File: 'Tiny_Treats_Bakery_Building_ASSETS_EXPORT.blend'
# www.blender.org
mtllib open_close_sign.mtl
o open_close_sign
v -0.280015 -0.490000 0.029999
v -0.300015 -0.470000 0.029999
v -0.280015 -0.090000 0.029999
v -0.300015 -0.110000 0.029999
v -0.280015 -0.490000 -0.030001
v -0.300015 -0.470000 -0.030001
v -0.280015 -0.090000 -0.030001
v -0.300015 -0.110000 -0.030001
v 0.279985 -0.490000 0.029999
v 0.299985 -0.470000 0.029999
v 0.279985 -0.090000 0.029999
v 0.299985 -0.110000 0.029999
v 0.279985 -0.490000 -0.030001
v 0.299985 -0.470000 -0.030001
v 0.279985 -0.090000 -0.030001
v 0.299985 -0.110000 -0.030001
v -0.000030 -0.000000 -0.043985
v 0.016802 0.040636 -0.036565
v -0.000030 -0.000000 0.043984
v 0.016802 0.040636 0.036564
v 0.040607 0.016832 -0.036565
v 0.040607 0.016832 0.036564
v 0.040607 -0.016832 -0.036565
v 0.040607 -0.016832 0.036564
v 0.016802 -0.040637 -0.036565
v 0.016802 -0.040637 0.036564
v -0.016862 -0.040637 -0.036565
v -0.016862 -0.040637 0.036564
v -0.040666 -0.016832 -0.036565
v -0.040666 -0.016832 0.036564
v -0.040666 0.016832 -0.036565
v -0.040666 0.016832 0.036564
v -0.016862 0.040636 -0.036565
v -0.016862 0.040636 0.036564
v 0.013729 0.033216 0.043984
v 0.033187 0.013759 0.043984
v 0.033187 -0.013759 0.043984
v 0.013729 -0.033217 0.043984
v -0.013789 -0.033217 0.043984
v -0.033246 -0.013759 0.043984
v -0.033246 0.013759 0.043984
v -0.013789 0.033216 0.043984
v 0.033187 0.013759 -0.043985
v 0.013729 0.033216 -0.043985
v 0.033187 -0.013759 -0.043985
v 0.013729 -0.033217 -0.043985
v -0.013789 -0.033217 -0.043985
v -0.033246 -0.013759 -0.043985
v -0.033246 0.013759 -0.043985
v -0.013789 0.033216 -0.043985
v -0.280015 -0.470000 0.049999
v -0.280015 -0.110000 0.049999
v -0.280015 -0.110000 -0.050001
v -0.280015 -0.470000 -0.050001
v 0.279985 -0.470000 -0.050001
v 0.279985 -0.110000 -0.050001
v 0.279985 -0.110000 0.049999
v 0.279985 -0.470000 0.049999
v -0.280015 -0.490000 -0.000001
v -0.300015 -0.470000 -0.000001
v -0.280015 -0.090000 -0.000001
v -0.300015 -0.110000 -0.000001
v 0.279985 -0.490000 -0.000001
v 0.299985 -0.470000 -0.000001
v 0.279985 -0.090000 -0.000001
v 0.299985 -0.110000 -0.000001
v -0.207622 -0.388773 0.045522
v -0.185146 -0.406561 0.045522
v -0.201039 -0.401351 0.045522
v -0.185146 -0.173439 0.045522
v -0.207622 -0.191227 0.045522
v -0.201039 -0.178649 0.045522
v -0.185146 -0.406561 -0.045524
v -0.207622 -0.388773 -0.045524
v -0.201039 -0.401351 -0.045524
v -0.207622 -0.191227 -0.045524
v -0.185146 -0.173439 -0.045524
v -0.201039 -0.178649 -0.045524
v 0.185115 -0.406561 0.045522
v 0.207592 -0.388773 0.045522
v 0.201009 -0.401351 0.045522
v 0.207592 -0.191227 0.045522
v 0.185115 -0.173439 0.045522
v 0.201009 -0.178649 0.045522
v 0.207592 -0.388773 -0.045524
v 0.185115 -0.406561 -0.045524
v 0.201009 -0.401351 -0.045524
v 0.185115 -0.173439 -0.045524
v 0.207592 -0.191227 -0.045524
v 0.201009 -0.178649 -0.045524
v -0.227539 -0.440000 0.049999
v -0.250015 -0.422212 0.049999
v -0.259912 -0.449897 0.049999
v -0.243432 -0.434790 0.049999
v -0.250015 -0.157789 0.049999
v -0.227539 -0.140000 0.049999
v -0.243432 -0.145210 0.049999
v -0.227539 -0.140000 -0.050001
v -0.250015 -0.157789 -0.050001
v -0.243432 -0.145210 -0.050001
v -0.250015 -0.422212 -0.050001
v -0.227539 -0.440000 -0.050001
v -0.243432 -0.434790 -0.050001
v 0.227508 -0.440000 -0.050001
v 0.249985 -0.422212 -0.050001
v 0.243402 -0.434790 -0.050001
v 0.249985 -0.157789 -0.050001
v 0.227508 -0.140000 -0.050001
v 0.243402 -0.145210 -0.050001
v 0.227508 -0.140000 0.049999
v 0.249985 -0.157789 0.049999
v 0.243402 -0.145210 0.049999
v 0.249985 -0.422212 0.049999
v 0.227508 -0.440000 0.049999
v 0.259881 -0.449897 0.049999
v 0.243402 -0.434790 0.049999
v -0.170015 -0.090000 0.013816
v -0.177253 -0.090000 0.019999
v -0.212255 -0.090000 0.019999
v -0.220015 -0.090000 0.013816
v -0.177253 -0.090000 -0.020001
v -0.170015 -0.090000 -0.013818
v -0.220015 -0.090000 -0.013818
v -0.212255 -0.090000 -0.020001
v 0.177222 -0.090000 0.019999
v 0.169985 -0.090000 0.013816
v 0.219985 -0.090000 0.013816
v 0.212224 -0.090000 0.019999
v 0.169985 -0.090000 -0.013818
v 0.177222 -0.090000 -0.020001
v 0.212224 -0.090000 -0.020001
v 0.219985 -0.090000 -0.013818
v 0.059292 -0.020000 -0.013818
v 0.059292 -0.012886 -0.020001
v 0.133208 -0.046046 -0.020001
v 0.133198 -0.053214 -0.013818
v -0.133229 -0.053214 -0.013818
v -0.133238 -0.046046 -0.020001
v -0.059323 -0.012886 -0.020001
v -0.059323 -0.020000 -0.013818
v -0.059323 0.020000 -0.013818
v -0.059323 0.012993 -0.020001
v -0.133275 -0.017551 -0.020001
v -0.133285 -0.010497 -0.013818
v 0.133254 -0.010497 -0.013818
v 0.133245 -0.017551 -0.020001
v 0.059292 0.012993 -0.020001
v 0.059292 0.020000 -0.013818
v -0.059323 -0.020000 0.013816
v -0.059323 -0.012886 0.019999
v -0.133238 -0.046046 0.019999
v -0.133229 -0.053214 0.013816
v 0.133198 -0.053214 0.013816
v 0.133208 -0.046046 0.019999
v 0.059292 -0.012886 0.019999
v 0.059292 -0.020000 0.013816
v 0.059292 0.020000 0.013816
v 0.059292 0.012993 0.019999
v 0.133245 -0.017551 0.019999
v 0.133254 -0.010497 0.013816
v -0.133285 -0.010497 0.013816
v -0.133275 -0.017551 0.019999
v -0.059323 0.012993 0.019999
v -0.059323 0.020000 0.013816
v -0.045340 -0.378131 0.055000
v -0.006000 -0.347585 0.055000
v -0.134949 -0.265603 0.055000
v -0.095609 -0.235057 0.055000
v -0.079222 -0.337373 0.055000
v -0.039882 -0.306827 0.055000
v 0.124000 -0.237585 0.055000
v 0.090118 -0.196827 0.055000
v -0.079222 -0.337373 0.045000
v -0.045340 -0.378131 0.045000
v -0.006000 -0.347585 0.045000
v -0.039882 -0.306827 0.045000
v -0.095609 -0.235057 0.045000
v -0.134949 -0.265603 0.045000
v 0.124000 -0.237585 0.045000
v 0.090118 -0.196827 0.045000
v 0.106066 -0.223289 -0.045000
v 0.070711 -0.187934 -0.045000
v -0.070711 -0.400066 -0.045000
v -0.106066 -0.364711 -0.045000
v -0.070711 -0.187934 -0.045000
v -0.106066 -0.223289 -0.045000
v 0.106066 -0.364711 -0.045000
v 0.070711 -0.400066 -0.045000
v 0.035355 -0.294000 -0.045000
v 0.106066 -0.223289 -0.055000
v -0.000000 -0.258645 -0.045000
v -0.000000 -0.329355 -0.045000
v -0.035355 -0.294000 -0.045000
v 0.070711 -0.187934 -0.055000
v -0.070711 -0.400066 -0.055000
v -0.106066 -0.364711 -0.055000
v -0.070711 -0.187934 -0.055000
v -0.106066 -0.223289 -0.055000
v 0.106066 -0.364711 -0.055000
v 0.070711 -0.400066 -0.055000
v 0.035355 -0.294000 -0.055000
v -0.000000 -0.258645 -0.055000
v -0.000000 -0.329355 -0.055000
v -0.035355 -0.294000 -0.055000
vt 0.468079 0.861288
vt 0.406921 0.861288
vt 0.399921 0.855765
vt 0.475079 0.855765
vt 0.112050 0.584340
vt 0.112050 0.677754
vt 0.112050 0.677754
vt 0.112050 0.584340
vt 0.108747 0.682944
vt 0.016253 0.682944
vt 0.016253 0.682944
vt 0.108747 0.682944
vt 0.262950 0.333833
vt 0.262950 0.427247
vt 0.262950 0.427247
vt 0.262950 0.333833
vt 0.406921 0.861288
vt 0.468079 0.861288
vt 0.475079 0.855765
vt 0.399921 0.855765
vt 0.016253 0.579150
vt 0.016253 0.584340
vt 0.012950 0.584340
vt 0.016253 0.677754
vt 0.012950 0.677754
vt 0.266253 0.328643
vt 0.266253 0.333833
vt 0.266253 0.432437
vt 0.266253 0.427247
vt 0.108747 0.579150
vt 0.108747 0.584340
vt 0.108747 0.677754
vt 0.358747 0.328643
vt 0.358747 0.333833
vt 0.362050 0.333833
vt 0.358747 0.432437
vt 0.362050 0.427247
vt 0.358747 0.427247
vt 0.016253 0.579150
vt 0.012950 0.584340
vt 0.266253 0.432437
vt 0.358747 0.328643
vt 0.362050 0.333833
vt 0.108747 0.579150
vt 0.290788 0.935354
vt 0.290781 0.939996
vt 0.277914 0.928193
vt 0.283617 0.928193
vt 0.334195 0.934186
vt 0.340188 0.928193
vt 0.340188 0.928193
vt 0.334195 0.934186
vt 0.341367 0.928193
vt 0.347071 0.928193
vt 0.334204 0.939996
vt 0.334197 0.935354
vt 0.322157 0.944972
vt 0.322157 0.940756
vt 0.322157 0.939597
vt 0.322157 0.939597
vt 0.322157 0.946114
vt 0.322157 0.946114
vt 0.334205 0.941145
vt 0.334205 0.941145
vt 0.290779 0.941145
vt 0.276649 0.928193
vt 0.276649 0.928193
vt 0.290779 0.941145
vt 0.334197 0.935354
vt 0.334204 0.939996
vt 0.347071 0.928193
vt 0.341367 0.928193
vt 0.283617 0.928193
vt 0.277914 0.928193
vt 0.290781 0.939996
vt 0.290788 0.935354
vt 0.322157 0.940756
vt 0.322157 0.944972
vt 0.348336 0.928193
vt 0.348336 0.928193
vt 0.302828 0.944972
vt 0.302828 0.940756
vt 0.302828 0.940756
vt 0.302828 0.944972
vt 0.302828 0.946114
vt 0.302828 0.946114
vt 0.302828 0.939597
vt 0.302828 0.939597
vt 0.290789 0.934186
vt 0.290789 0.934186
vt 0.309747 0.949476
vt 0.309747 0.949476
vt 0.315232 0.949476
vt 0.315232 0.949476
vt 0.319111 0.940113
vt 0.319111 0.940113
vt 0.315232 0.936235
vt 0.315232 0.936235
vt 0.309747 0.936235
vt 0.309747 0.936235
vt 0.305869 0.940113
vt 0.305869 0.940113
vt 0.305869 0.945598
vt 0.305869 0.945598
vt 0.319111 0.945598
vt 0.319111 0.945598
vt 0.317903 0.945097
vt 0.314732 0.948267
vt 0.314732 0.948267
vt 0.317903 0.945097
vt 0.317903 0.940614
vt 0.317903 0.940614
vt 0.314732 0.937444
vt 0.314732 0.937444
vt 0.310247 0.937444
vt 0.310247 0.937444
vt 0.307077 0.940614
vt 0.307077 0.940614
vt 0.307077 0.945097
vt 0.307077 0.945097
vt 0.310247 0.948267
vt 0.310247 0.948267
vt 0.312491 0.942855
vt 0.312491 0.942855
vt 0.105427 0.589556
vt 0.100079 0.592124
vt 0.024921 0.592124
vt 0.019573 0.589556
vt 0.350079 0.419463
vt 0.274921 0.419463
vt 0.353791 0.346233
vt 0.353791 0.414847
vt 0.274921 0.341617
vt 0.350079 0.341617
vt 0.103791 0.665354
vt 0.103791 0.596740
vt 0.024921 0.669970
vt 0.100079 0.669970
vt 0.271208 0.414847
vt 0.271208 0.346233
vt 0.093079 0.600294
vt 0.095702 0.601646
vt 0.096791 0.604910
vt 0.096791 0.656170
vt 0.095702 0.659434
vt 0.093079 0.660786
vt 0.031921 0.660786
vt 0.029298 0.659434
vt 0.028209 0.656170
vt 0.028209 0.604910
vt 0.029298 0.601646
vt 0.031921 0.600294
vt 0.345702 0.351646
vt 0.345702 0.409434
vt 0.346791 0.406170
vt 0.346791 0.354910
vt 0.468079 0.899792
vt 0.406921 0.899792
vt 0.399921 0.905315
vt 0.475079 0.905315
vt 0.471791 0.896854
vt 0.471791 0.864226
vt 0.478791 0.858703
vt 0.478791 0.902377
vt 0.021208 0.596740
vt 0.021208 0.665354
vt 0.471791 0.864226
vt 0.471791 0.896854
vt 0.478791 0.902377
vt 0.478791 0.858703
vt 0.406921 0.899792
vt 0.468079 0.899792
vt 0.475079 0.905315
vt 0.399921 0.905315
vt 0.403209 0.896854
vt 0.403209 0.864226
vt 0.396208 0.858703
vt 0.396208 0.902377
vt 0.266253 0.328643
vt 0.358747 0.432437
vt 0.362050 0.427247
vt 0.012950 0.677754
vt 0.022295 0.593476
vt 0.022295 0.668618
vt 0.272295 0.418111
vt 0.272295 0.342969
vt 0.352705 0.342969
vt 0.352705 0.418111
vt 0.102705 0.668618
vt 0.102705 0.593476
vt 0.404298 0.862149
vt 0.397295 0.856626
vt 0.403209 0.864226
vt 0.396208 0.858703
vt 0.397295 0.904454
vt 0.404298 0.898932
vt 0.396208 0.902377
vt 0.403209 0.896854
vt 0.404298 0.898932
vt 0.397295 0.904454
vt 0.397295 0.856626
vt 0.404298 0.862149
vt 0.477705 0.856626
vt 0.470702 0.862149
vt 0.470702 0.898932
vt 0.477705 0.904454
vt 0.470702 0.898932
vt 0.477705 0.904454
vt 0.477705 0.856626
vt 0.470702 0.862149
vt 0.343079 0.350294
vt 0.343079 0.410786
vt 0.279298 0.351646
vt 0.278209 0.354910
vt 0.278209 0.406170
vt 0.279298 0.409434
vt 0.281921 0.350294
vt 0.281921 0.410786
vt 0.284797 0.928193
vt 0.284797 0.928193
vt 0.410063 0.867072
vt 0.422407 0.876656
vt 0.404919 0.899175
vt 0.392580 0.889591
vt 0.420697 0.854283
vt 0.433041 0.863868
vt 0.473826 0.898382
vt 0.463197 0.911171
vt 0.420697 0.854283
vt 0.433041 0.863868
vt 0.463197 0.911171
vt 0.422407 0.876656
vt 0.392580 0.889591
vt 0.410063 0.867072
vt 0.404919 0.899175
vt 0.473826 0.898382
vt 0.443965 0.878621
vt 0.443965 0.878621
vt 0.421778 0.856434
vt 0.421778 0.856434
vt 0.477247 0.911901
vt 0.488338 0.900808
vt 0.488338 0.900808
vt 0.477247 0.911901
vt 0.432874 0.911901
vt 0.455060 0.889715
vt 0.455060 0.889715
vt 0.432874 0.911901
vt 0.466151 0.878621
vt 0.488338 0.856434
vt 0.488338 0.856434
vt 0.466151 0.878621
vt 0.432874 0.845341
vt 0.432874 0.845341
vt 0.421778 0.900808
vt 0.421778 0.900808
vt 0.477247 0.845341
vt 0.455060 0.867528
vt 0.455060 0.867528
vt 0.477247 0.845341
vn -0.0049 0.0671 0.9977
vn 0.0049 0.0671 0.9977
vn 0.0106 0.0465 0.9989
vn -0.0106 0.0465 0.9989
vn 0.9239 -0.3827 0.0000
vn 0.9239 0.3827 0.0000
vn 0.8756 0.3416 0.3416
vn 0.8756 -0.3416 0.3416
vn 0.3827 0.9239 0.0000
vn -0.3827 0.9239 0.0000
vn -0.3416 0.8756 0.3416
vn 0.3416 0.8756 0.3416
vn -0.9239 -0.3827 0.0000
vn -0.9239 0.3827 0.0000
vn -0.8756 0.3416 -0.3416
vn -0.8756 -0.3416 -0.3416
vn 0.0049 0.0671 -0.9977
vn -0.0049 0.0671 -0.9977
vn -0.0106 0.0465 -0.9989
vn 0.0106 0.0465 -0.9989
vn -0.3416 -0.8756 0.3416
vn -0.3416 -0.3416 0.8756
vn -0.8756 -0.3416 0.3416
vn -0.3416 0.3416 0.8756
vn -0.8756 0.3416 0.3416
vn -0.3416 -0.8756 -0.3416
vn -0.3416 -0.3416 -0.8756
vn -0.3416 0.8756 -0.3416
vn -0.3416 0.3416 -0.8756
vn 0.3416 -0.8756 0.3416
vn 0.3416 -0.3416 0.8756
vn 0.3416 0.3416 0.8756
vn 0.3416 -0.8756 -0.3416
vn 0.3416 -0.3416 -0.8756
vn 0.8756 -0.3416 -0.3416
vn 0.3416 0.8756 -0.3416
vn 0.8756 0.3416 -0.3416
vn 0.3416 0.3416 -0.8756
vn -0.3827 -0.9239 0.0000
vn 0.3827 -0.9239 0.0000
vn 0.1838 -0.2948 0.9377
vn -0.2523 0.3547 0.9003
vn -0.4141 0.4516 0.7903
vn 0.1768 -0.1770 0.9682
vn -0.5448 -0.7486 -0.3777
vn -0.6513 -0.6515 -0.3890
vn -0.6513 -0.6515 0.3890
vn -0.5448 -0.7486 0.3777
vn -0.1768 -0.1770 0.9682
vn 0.4141 0.4516 0.7903
vn 0.2523 0.3547 0.9003
vn -0.1838 -0.2948 0.9377
vn 0.0851 0.3871 0.9181
vn -0.0595 -0.3055 0.9503
vn -0.1983 -0.8804 0.4308
vn -0.1983 -0.8804 -0.4308
vn 0.1734 0.9042 -0.3903
vn 0.1734 0.9042 0.3903
vn 0.4865 0.7935 0.3657
vn 0.4865 0.7935 -0.3657
vn -0.4865 0.7935 -0.3657
vn -0.6527 0.7119 -0.2591
vn -0.6527 0.7120 0.2591
vn -0.4865 0.7935 0.3657
vn -0.1838 -0.2948 -0.9377
vn 0.2523 0.3547 -0.9003
vn 0.4141 0.4516 -0.7903
vn -0.1768 -0.1770 -0.9682
vn 0.1768 -0.1770 -0.9682
vn -0.4141 0.4516 -0.7903
vn -0.2523 0.3547 -0.9003
vn 0.1838 -0.2948 -0.9377
vn -0.0595 -0.3055 -0.9503
vn 0.0851 0.3871 -0.9181
vn 0.6527 0.7120 -0.2591
vn 0.6527 0.7120 0.2591
vn -0.0851 0.3871 -0.9181
vn 0.0595 -0.3055 -0.9503
vn 0.0595 -0.3055 0.9503
vn -0.0851 0.3871 0.9181
vn -0.1734 0.9042 -0.3903
vn -0.1734 0.9042 0.3903
vn 0.1983 -0.8804 -0.4308
vn 0.1983 -0.8804 0.4308
vn 0.5448 -0.7486 0.3777
vn 0.5448 -0.7486 -0.3777
vn -0.3557 0.8587 -0.3689
vn -0.3557 0.8587 0.3689
vn 0.3557 0.8587 0.3689
vn 0.3557 0.8587 -0.3689
vn 0.8587 -0.3557 -0.3689
vn 0.8587 -0.3557 0.3689
vn 0.3557 -0.8587 0.3689
vn 0.3557 -0.8587 -0.3689
vn -0.3557 -0.8587 0.3689
vn -0.3557 -0.8587 -0.3689
vn -0.8587 -0.3557 0.3689
vn -0.8587 -0.3557 -0.3689
vn -0.8587 0.3557 0.3689
vn -0.8587 0.3557 -0.3689
vn 0.8587 0.3557 -0.3689
vn 0.8587 0.3557 0.3689
vn 0.4044 0.1675 -0.8991
vn 0.1675 0.4044 -0.8991
vn 0.1675 0.4044 0.8991
vn 0.4044 0.1675 0.8991
vn 0.4044 -0.1675 -0.8991
vn 0.4044 -0.1675 0.8991
vn 0.1675 -0.4044 -0.8991
vn 0.1675 -0.4044 0.8991
vn -0.1675 -0.4044 -0.8991
vn -0.1675 -0.4044 0.8991
vn -0.4044 -0.1675 -0.8991
vn -0.4044 -0.1675 0.8991
vn -0.4044 0.1675 -0.8991
vn -0.4044 0.1675 0.8991
vn -0.1675 0.4044 -0.8991
vn -0.1675 0.4044 0.8991
vn 0.0000 -0.0000 1.0000
vn 0.0000 0.0000 -1.0000
vn -0.0106 -0.0465 -0.9989
vn 0.0106 -0.0465 -0.9989
vn -0.0360 0.0109 -0.9993
vn -0.0360 -0.0109 -0.9993
vn -0.0360 -0.0109 0.9993
vn -0.0360 0.0109 0.9993
vn 0.0106 -0.0465 0.9989
vn -0.0106 -0.0465 0.9989
vn 0.0360 -0.0109 -0.9993
vn 0.0360 0.0109 -0.9993
vn -0.0314 0.0432 0.9986
vn -0.0539 0.0086 0.9985
vn -0.0539 -0.0086 0.9985
vn -0.0314 -0.0432 0.9986
vn -0.0049 -0.0671 0.9977
vn 0.0049 -0.0671 0.9977
vn 0.0314 -0.0432 0.9986
vn 0.0539 -0.0086 0.9985
vn 0.0539 0.0086 0.9985
vn 0.0314 0.0432 0.9986
vn -0.0314 0.0432 -0.9986
vn -0.0314 -0.0432 -0.9986
vn -0.0539 -0.0086 -0.9985
vn -0.0539 0.0086 -0.9985
vn -0.0049 -0.0671 -0.9977
vn 0.0049 -0.0671 -0.9977
vn 0.0360 0.0109 0.9993
vn 0.0360 -0.0109 0.9993
vn 0.0539 -0.0086 -0.9985
vn 0.0539 0.0086 -0.9985
vn 0.0213 0.0234 0.9995
vn 0.0213 -0.0234 0.9995
vn 0.0213 -0.0234 -0.9995
vn 0.0213 0.0234 -0.9995
vn -0.0213 0.0234 -0.9995
vn -0.0213 -0.0234 -0.9995
vn -0.0213 -0.0234 0.9995
vn -0.0213 0.0234 0.9995
vn 0.0314 -0.0432 -0.9986
vn 0.0314 0.0432 -0.9986
vn 0.6513 -0.6515 -0.3890
vn 0.6513 -0.6515 0.3890
vn 0.6133 -0.7899 0.0000
vn 0.6298 -0.7768 0.0000
vn -0.6459 0.7634 0.0000
vn -0.7899 -0.6133 0.0000
vn -0.7795 -0.6264 0.0000
vn 0.7899 0.6133 0.0000
vn -0.7690 -0.6393 0.0000
vn 0.6459 -0.7634 0.0000
vn 0.7690 0.6393 0.0000
vn -0.6133 0.7899 0.0000
vn -0.7071 0.7071 -0.0000
vn 0.7071 0.7071 -0.0000
vn -0.7071 -0.7071 0.0000
vn 0.7071 -0.7071 0.0000
usemtl tiny_treats_1
s 1
f 79/1/1 68/2/2 91/3/3 114/4/4
f 64/5/5 66/6/6 12/7/7 10/8/8
f 65/9/9 61/10/10 3/11/11 11/12/12
f 60/13/13 62/14/14 8/15/15 6/16/16
f 73/17/17 86/18/18 104/19/19 102/20/20
f 1/21/21 51/22/22 2/23/23
f 52/24/24 3/11/11 4/25/25
f 5/26/26 6/16/16 54/27/27
f 7/28/28 53/29/29 8/15/15
f 9/30/30 10/8/8 58/31/31
f 11/12/12 57/32/32 12/7/7
f 13/33/33 55/34/34 14/35/35
f 15/36/36 16/37/37 56/38/38
f 59/39/39 1/21/21 2/23/23 60/40/13
f 51/22/22 52/24/24 4/25/25 2/23/23
f 61/41/10 7/28/28 8/15/15 62/14/14
f 53/29/29 54/27/27 6/16/16 8/15/15
f 13/33/33 5/26/26 54/27/27 55/34/34
f 7/28/28 15/36/36 56/38/38 53/29/29
f 16/37/37 14/35/35 55/34/34 56/38/38
f 63/42/40 13/33/33 14/35/35 64/43/5
f 65/9/9 11/12/12 12/7/7 66/6/6
f 57/32/32 58/31/31 10/8/8 12/7/7
f 1/21/21 9/30/30 58/31/31 51/22/22
f 11/12/12 3/11/11 52/24/24 57/32/32
f 59/39/39 63/44/40 9/30/30 1/21/21
f 151/45/41 162/46/42 119/47/43 118/48/44
f 136/49/45 129/50/46 126/51/47 153/52/48
f 125/53/49 128/54/50 159/55/51 154/56/52
f 158/57/53 155/58/54 154/56/52 159/55/51
f 136/49/45 153/52/48 156/59/55 133/60/56
f 148/61/57 157/62/58 160/63/59 145/64/60
f 144/65/61 123/66/62 120/67/63 161/68/64
f 135/69/65 146/70/66 131/71/67 130/72/68
f 121/73/69 124/74/70 143/75/71 138/76/72
f 146/70/66 135/69/65 134/77/73 147/78/74
f 132/79/75 145/64/60 160/63/59 127/80/76
f 142/81/77 139/82/78 138/76/72 143/75/71
f 162/46/42 151/45/41 150/83/79 163/84/80
f 148/61/57 141/85/81 164/86/82 157/62/58
f 144/65/61 161/68/64 164/86/82 141/85/81
f 140/87/83 133/60/56 156/59/55 149/88/84
f 155/58/54 158/57/53 163/84/80 150/83/79
f 140/87/83 149/88/84 152/89/85 137/90/86
f 139/82/78 142/81/77 147/78/74 134/77/73
f 33/91/87 34/92/88 20/93/89 18/94/90
f 23/95/91 24/96/92 26/97/93 25/98/94
f 25/98/94 26/97/93 28/99/95 27/100/96
f 27/100/96 28/99/95 30/101/97 29/102/98
f 29/102/98 30/101/97 32/103/99 31/104/100
f 31/104/100 32/103/99 34/92/88 33/91/87
f 21/105/101 22/106/102 24/96/92 23/95/91
f 18/94/90 20/93/89 22/106/102 21/105/101
f 18/94/90 21/105/101 43/107/103 44/108/104
f 22/106/102 20/93/89 35/109/105 36/110/106
f 21/105/101 23/95/91 45/111/107 43/107/103
f 24/96/92 22/106/102 36/110/106 37/112/108
f 23/95/91 25/98/94 46/113/109 45/111/107
f 26/97/93 24/96/92 37/112/108 38/114/110
f 25/98/94 27/100/96 47/115/111 46/113/109
f 28/99/95 26/97/93 38/114/110 39/116/112
f 27/100/96 29/102/98 48/117/113 47/115/111
f 30/101/97 28/99/95 39/116/112 40/118/114
f 29/102/98 31/104/100 49/119/115 48/117/113
f 32/103/99 30/101/97 40/118/114 41/120/116
f 31/104/100 33/91/87 50/121/117 49/119/115
f 34/92/88 32/103/99 41/120/116 42/122/118
f 33/91/87 18/94/90 44/108/104 50/121/117
f 20/93/89 34/92/88 42/122/118 35/109/105
f 19/123/119 36/110/106 35/109/105
f 19/123/119 37/112/108 36/110/106
f 19/123/119 38/114/110 37/112/108
f 19/123/119 39/116/112 38/114/110
f 19/123/119 40/118/114 39/116/112
f 19/123/119 41/120/116 40/118/114
f 19/123/119 42/122/118 41/120/116
f 19/123/119 35/109/105 42/122/118
f 17/124/120 44/108/104 43/107/103
f 17/124/120 43/107/103 45/111/107
f 17/124/120 45/111/107 46/113/109
f 17/124/120 46/113/109 47/115/111
f 17/124/120 47/115/111 48/117/113
f 17/124/120 48/117/113 49/119/115
f 17/124/120 49/119/115 50/121/117
f 17/124/120 50/121/117 44/108/104
f 115/125/119 114/126/4 91/127/3 93/128/119 51/22/22 58/31/31
f 56/38/38 108/129/121 98/130/122 53/29/29
f 55/34/34 105/131/123 107/132/124 56/38/38
f 54/27/27 102/133/20 104/134/19 55/34/34
f 57/32/32 111/135/125 113/136/126 115/125/119 58/31/31
f 52/24/24 96/137/127 110/138/128 57/32/32
f 53/29/29 99/139/129 101/140/130 54/27/27
f 79/141/1 81/142/131 80/143/132 82/144/133 84/145/134 83/146/135 70/147/136 72/148/137 71/149/138 67/150/139 69/151/140 68/152/2
f 87/153/141 90/154/142 89/155/143 85/156/144
f 88/157/145 77/158/146 98/159/122 108/160/121
f 82/161/133 80/162/132 113/163/126 111/164/125
f 93/128/119 92/165/147 95/166/148 52/24/24 51/22/22
f 85/167/144 89/168/143 107/169/124 105/170/123
f 70/171/136 83/172/135 110/173/128 96/174/127
f 76/175/149 74/176/150 101/177/130 99/178/129
f 5/26/26 13/33/33 63/42/40 59/179/39
f 15/36/36 65/180/9 66/181/6 16/37/37
f 9/30/30 63/44/40 64/5/5 10/8/8
f 3/11/11 61/10/10 62/182/14 4/25/25
f 5/26/26 59/179/39 60/13/13 6/16/16
f 2/23/23 4/25/25 62/182/14 60/40/13
f 15/36/36 7/28/28 61/41/10 65/180/9
f 14/35/35 16/37/37 66/181/6 64/43/5
f 91/127/3 94/183/151 93/128/119
f 94/183/151 92/165/147 93/128/119
f 95/166/148 97/184/152 52/24/24
f 97/184/152 96/137/127 52/24/24
f 98/130/122 100/185/153 53/29/29
f 100/185/153 99/139/129 53/29/29
f 101/140/130 103/186/154 54/27/27
f 103/186/154 102/133/20 54/27/27
f 104/134/19 106/187/155 55/34/34
f 106/187/155 105/131/123 55/34/34
f 107/132/124 109/188/156 56/38/38
f 109/188/156 108/129/121 56/38/38
f 110/138/128 112/189/157 57/32/32
f 112/189/157 111/135/125 57/32/32
f 113/136/126 116/190/158 115/125/119
f 116/190/158 114/126/4 115/125/119
f 91/3/3 68/2/2 69/191/140 94/192/151
f 94/192/151 69/191/140 67/193/139 92/194/147
f 70/171/136 96/174/127 97/195/152 72/196/137
f 72/196/137 97/195/152 95/197/148 71/198/138
f 98/159/122 77/158/146 78/199/159 100/200/153
f 100/200/153 78/199/159 76/175/149 99/178/129
f 73/17/17 102/20/20 103/201/154 75/202/160
f 75/202/160 103/201/154 101/177/130 74/176/150
f 85/167/144 105/170/123 106/203/155 87/204/141
f 87/204/141 106/203/155 104/19/19 86/18/18
f 107/169/124 89/168/143 90/205/142 109/206/156
f 109/206/156 90/205/142 88/157/145 108/160/121
f 110/173/128 83/172/135 84/207/134 112/208/157
f 112/208/157 84/207/134 82/161/133 111/164/125
f 79/1/1 114/4/4 116/209/158 81/210/131
f 81/210/131 116/209/158 113/163/126 80/162/132
f 67/193/139 71/198/138 95/197/148 92/194/147
f 86/211/18 88/212/145 90/154/142 87/153/141
f 75/213/160 74/214/150 76/215/149 78/216/159
f 86/211/18 73/217/17 77/218/146 88/212/145
f 73/217/17 75/213/160 78/216/159 77/218/146
f 146/70/66 147/78/74 148/61/57 145/64/60
f 158/57/53 159/55/51 160/63/59 157/62/58
f 142/81/77 143/75/71 144/65/61 141/85/81
f 162/46/42 163/84/80 164/86/82 161/68/64
f 138/76/72 139/82/78 140/87/83 137/90/86
f 150/83/79 151/45/41 152/89/85 149/88/84
f 134/77/73 135/69/65 136/49/45 133/60/56
f 154/56/52 155/58/54 156/59/55 153/52/48
f 135/69/65 130/72/68 129/50/46 136/49/45
f 125/53/49 154/56/52 153/52/48 126/51/47
f 133/60/56 140/87/83 139/82/78 134/77/73
f 141/85/81 148/61/57 147/78/74 142/81/77
f 155/58/54 150/83/79 149/88/84 156/59/55
f 145/64/60 132/79/75 131/71/67 146/70/66
f 137/90/86 122/219/161 121/73/69 138/76/72
f 123/66/62 144/65/61 143/75/71 124/74/70
f 151/45/41 118/48/44 117/220/162 152/89/85
f 119/47/43 162/46/42 161/68/64 120/67/63
f 163/84/80 158/57/53 157/62/58 164/86/82
f 159/55/51 128/54/50 127/80/76 160/63/59
f 122/219/161 137/90/86 152/89/85 117/220/162
f 169/221/119 170/222/119 168/223/119 167/224/119
f 165/225/119 166/226/119 170/222/119 169/221/119
f 170/222/119 166/226/119 171/227/119 172/228/119
f 165/225/163 174/229/163 175/230/164 166/226/164
f 172/228/165 180/231/165 176/232/165 170/222/165
f 167/224/166 178/233/166 173/234/167 169/221/167
f 170/222/168 176/232/168 177/235/168 168/223/168
f 169/221/167 173/234/167 174/229/169 165/225/169
f 166/226/164 175/230/164 179/236/170 171/227/170
f 171/227/171 179/236/171 180/231/171 172/228/171
f 168/223/172 177/235/172 178/233/172 167/224/172
f 193/237/173 204/238/173 196/239/173 184/240/173
f 182/241/174 181/242/174 190/243/174 194/244/174
f 185/245/174 191/246/174 202/247/174 197/248/174
f 189/249/174 187/250/174 199/251/174 201/252/174
f 183/253/175 184/240/175 196/239/175 195/254/175
f 193/237/175 186/255/175 198/256/175 204/238/175
f 188/257/175 192/258/175 203/259/175 200/260/175
f 186/255/173 185/245/173 197/248/173 198/256/173
f 187/250/176 188/257/176 200/260/176 199/251/176
f 192/258/176 183/253/176 195/254/176 203/259/176
f 181/242/176 189/249/176 201/252/176 190/243/176
f 194/244/173 202/247/173 191/246/173 182/241/173
f 194/244/120 190/243/120 201/252/120 202/247/120
f 200/260/120 203/259/120 201/252/120 199/251/120
f 204/238/120 198/256/120 197/248/120 202/247/120
f 196/239/120 204/238/120 203/259/120 195/254/120
f 202/247/120 201/252/120 203/259/120 204/238/120
