# Blender v3.4.1 OBJ File: 'Tiny_Treats_Bakery_Building_ASSETS_EXPORT.blend'
# www.blender.org
mtllib sign_ground.mtl
o sign_ground
v -0.500000 1.380000 0.000000
v -0.450000 1.338579 -0.100000
v 0.500000 1.380000 -0.000000
v 0.450000 1.338579 -0.100000
v -0.450000 1.280000 -0.041421
v 0.450000 1.280000 -0.041421
v -0.450000 1.280000 0.041421
v 0.450000 1.280000 0.041421
v -0.450000 1.338579 0.100000
v 0.450000 1.338579 0.100000
v -0.450000 1.421421 0.100000
v 0.450000 1.421421 0.100000
v -0.450000 1.480000 0.041421
v 0.450000 1.480000 0.041421
v -0.450000 1.480000 -0.041421
v 0.450000 1.480000 -0.041421
v -0.450000 1.421421 -0.100000
v 0.450000 1.421421 -0.100000
v 0.500000 1.359289 -0.050000
v 0.500000 1.330000 -0.020711
v 0.500000 1.330000 0.020711
v 0.500000 1.359289 0.050000
v 0.500000 1.400711 0.050000
v 0.500000 1.430000 0.020711
v 0.500000 1.430000 -0.020711
v 0.500000 1.400711 -0.050000
v -0.500000 1.330000 -0.020711
v -0.500000 1.359289 -0.050000
v -0.500000 1.330000 0.020711
v -0.500000 1.359289 0.050000
v -0.500000 1.400711 0.050000
v -0.500000 1.430000 0.020711
v -0.500000 1.430000 -0.020711
v -0.500000 1.400711 -0.050000
v -0.449996 0.017446 0.495929
v 0.450004 0.017446 0.495929
v 0.225004 0.252369 0.410424
v -0.224996 0.252369 0.410424
v -0.299996 0.458307 0.537663
v 0.300004 0.458307 0.537663
v -0.449996 0.082429 0.674471
v 0.450004 0.082429 0.674471
v 0.225004 0.317353 0.588966
v -0.224996 0.317353 0.588966
v -0.269995 0.452295 0.433433
v 0.270005 0.452295 0.433433
v -0.449996 1.316759 0.023018
v -0.385096 1.380000 -0.000000
v -0.430987 1.361477 0.006742
v 0.385103 1.380000 -0.000000
v 0.450004 1.316759 0.023017
v 0.430995 1.361477 0.006742
v -0.299996 1.239882 0.253192
v -0.234717 1.304030 0.229845
v -0.280877 1.285242 0.236683
v 0.234725 1.304030 0.229845
v 0.300004 1.239882 0.253192
v 0.280884 1.285241 0.236683
v -0.449996 1.381444 0.201668
v -0.384873 1.444984 0.178542
v -0.430922 1.426374 0.185315
v 0.384880 1.444984 0.178542
v 0.450004 1.381444 0.201668
v 0.430929 1.426374 0.185315
v -0.204870 1.213446 0.156397
v -0.269995 1.149292 0.179747
v -0.250921 1.194656 0.163236
v 0.270005 1.149292 0.179747
v 0.204880 1.213446 0.156397
v 0.250930 1.194656 0.163236
v -0.399996 -0.012438 0.560015
v -0.399996 0.018344 0.644587
v -0.224996 0.017446 0.495929
v -0.274996 -0.012438 0.560015
v 0.400004 0.018344 0.644587
v 0.400004 -0.012438 0.560015
v 0.225004 0.082429 0.674471
v 0.275004 0.018344 0.644587
v 0.275004 -0.012438 0.560015
v 0.225004 0.017446 0.495929
v -0.274996 0.018344 0.644587
v -0.224996 0.082429 0.674471
v 0.449996 0.017446 -0.495929
v -0.450004 0.017446 -0.495929
v -0.225004 0.252369 -0.410424
v 0.224996 0.252369 -0.410424
v 0.299996 0.458306 -0.537663
v -0.300004 0.458306 -0.537662
v 0.449996 0.082429 -0.674471
v -0.450004 0.082429 -0.674470
v -0.225004 0.317353 -0.588966
v 0.224996 0.317353 -0.588966
v 0.269995 0.452295 -0.433433
v -0.270005 0.452295 -0.433433
v 0.449996 1.316759 -0.023018
v 0.385096 1.380000 -0.000000
v 0.430987 1.361477 -0.006742
v -0.385103 1.380000 0.000000
v -0.450004 1.316759 -0.023017
v -0.430995 1.361477 -0.006741
v 0.299996 1.239882 -0.253192
v 0.234717 1.304030 -0.229845
v 0.280877 1.285242 -0.236683
v -0.234725 1.304030 -0.229844
v -0.300004 1.239882 -0.253192
v -0.280884 1.285241 -0.236683
v 0.449996 1.381444 -0.201668
v 0.384873 1.444984 -0.178542
v 0.430922 1.426374 -0.185315
v -0.384881 1.444984 -0.178541
v -0.450004 1.381444 -0.201668
v -0.430930 1.426374 -0.185315
v 0.204870 1.213446 -0.156397
v 0.269995 1.149292 -0.179747
v 0.250921 1.194656 -0.163236
v -0.270005 1.149292 -0.179747
v -0.204880 1.213446 -0.156396
v -0.250930 1.194656 -0.163235
v 0.399996 -0.012438 -0.560015
v 0.399996 0.018344 -0.644587
v 0.224996 0.017446 -0.495929
v 0.274996 -0.012438 -0.560015
v -0.400004 0.018344 -0.644587
v -0.400004 -0.012438 -0.560014
v -0.225004 0.082429 -0.674470
v -0.275004 0.018344 -0.644587
v -0.275004 -0.012438 -0.560014
v -0.225004 0.017446 -0.495929
v 0.274996 0.018344 -0.644587
v 0.224996 0.082429 -0.674471
v -0.476790 0.039508 0.588996
v 0.476797 0.039508 0.588996
v -0.224996 0.284861 0.499695
v 0.225004 0.284861 0.499695
v -0.390830 1.439188 0.079563
v -0.451728 1.412948 0.089123
v -0.478477 1.354249 0.110478
v 0.390838 1.439188 0.079562
v 0.451735 1.412948 0.089123
v 0.478484 1.354249 0.110478
v -0.399996 0.002953 0.602301
v 0.400004 0.002953 0.602301
v -0.224996 0.049938 0.585200
v -0.274996 0.002953 0.602301
v 0.275004 0.002953 0.602301
v 0.225004 0.049938 0.585200
v 0.476790 0.039508 -0.588996
v -0.476798 0.039508 -0.588995
v 0.224996 0.284861 -0.499695
v -0.225004 0.284861 -0.499695
v 0.390830 1.439188 -0.079563
v 0.451728 1.412948 -0.089123
v 0.478477 1.354249 -0.110478
v -0.390838 1.439188 -0.079562
v -0.451735 1.412948 -0.089123
v -0.478484 1.354249 -0.110478
v 0.399996 0.002953 -0.602301
v -0.400004 0.002953 -0.602301
v 0.224996 0.049938 -0.585200
v 0.274996 0.002953 -0.602301
v -0.275004 0.002953 -0.602301
v -0.225004 0.049938 -0.585200
vt 0.285930 0.877446
vt 0.339069 0.877446
vt 0.339069 0.872554
vt 0.285930 0.872554
vt 0.285930 0.869096
vt 0.339069 0.869096
vt 0.339069 0.872554
vt 0.285930 0.872554
vt 0.339069 0.877446
vt 0.285930 0.877446
vt 0.339069 0.880904
vt 0.285930 0.880904
vt 0.339069 0.880904
vt 0.285930 0.880904
vt 0.285930 0.869096
vt 0.339069 0.869096
vt 0.285930 0.903804
vt 0.285930 0.900346
vt 0.282977 0.903298
vt 0.282977 0.905027
vt 0.339069 0.900346
vt 0.339069 0.903804
vt 0.342021 0.905027
vt 0.342021 0.903298
vt 0.285930 0.900346
vt 0.282977 0.903298
vt 0.339069 0.900346
vt 0.342021 0.903298
vt 0.285930 0.903804
vt 0.282977 0.905027
vt 0.339069 0.903804
vt 0.342021 0.905027
vt 0.285930 0.908696
vt 0.282977 0.907473
vt 0.339069 0.908696
vt 0.342021 0.907473
vt 0.285930 0.912154
vt 0.282977 0.909202
vt 0.339069 0.912154
vt 0.342021 0.909202
vt 0.285930 0.912154
vt 0.282977 0.909202
vt 0.339069 0.912154
vt 0.342021 0.909202
vt 0.285930 0.908696
vt 0.282977 0.907473
vt 0.339069 0.908696
vt 0.342021 0.907473
vt 0.342021 0.906250
vt 0.282977 0.906250
vt 0.913965 0.910110
vt 0.913965 0.844851
vt 0.916320 0.847205
vt 0.916320 0.905402
vt 0.919850 0.864331
vt 0.902196 0.844716
vt 0.919850 0.844716
vt 0.902196 0.813466
vt 0.902196 0.921943
vt 0.902196 0.921955
vt 0.902196 0.813466
vt 0.919850 0.864331
vt 0.955158 0.864331
vt 0.955158 0.864331
vt 0.972812 0.844716
vt 0.972812 0.953193
vt 0.972812 0.953180
vt 0.972812 0.844716
vt 0.955158 0.844716
vt 0.919850 0.833081
vt 0.919850 0.813466
vt 0.919850 0.844716
vt 0.959082 0.809543
vt 0.968889 0.809543
vt 0.968889 0.809543
vt 0.959082 0.809543
vt 0.955158 0.833081
vt 0.955158 0.833081
vt 0.955158 0.813466
vt 0.955158 0.813466
vt 0.972812 0.813466
vt 0.961043 0.844851
vt 0.958689 0.847205
vt 0.955921 0.915467
vt 0.919088 0.915467
vt 0.921430 0.910759
vt 0.953579 0.910759
vt 0.961043 0.876101
vt 0.913965 0.876101
vt 0.913965 0.941360
vt 0.902196 0.953180
vt 0.919088 0.946717
vt 0.955921 0.946717
vt 0.967703 0.958486
vt 0.907306 0.958486
vt 0.961043 0.910110
vt 0.958689 0.905402
vt 0.967720 0.927236
vt 0.971321 0.925689
vt 0.903688 0.925689
vt 0.907288 0.927236
vt 0.961043 0.941360
vt 0.972812 0.921955
vt 0.907297 0.927236
vt 0.903691 0.925686
vt 0.967712 0.958486
vt 0.971315 0.956932
vt 0.971318 0.956936
vt 0.903693 0.956932
vt 0.915466 0.945148
vt 0.959542 0.945148
vt 0.915466 0.913898
vt 0.917817 0.909190
vt 0.959542 0.913898
vt 0.957193 0.909190
vt 0.907297 0.958486
vt 0.906120 0.809543
vt 0.906120 0.809543
vt 0.902196 0.813466
vt 0.915928 0.778293
vt 0.906120 0.778293
vt 0.902196 0.782216
vt 0.919850 0.782216
vt 0.968889 0.778293
vt 0.968889 0.778293
vt 0.972812 0.782216
vt 0.972812 0.782216
vt 0.972812 0.813466
vt 0.955158 0.813466
vt 0.959082 0.778293
vt 0.955158 0.782216
vt 0.915928 0.809543
vt 0.919850 0.813466
vt 0.919850 0.813466
vt 0.915928 0.809543
vt 0.913965 0.910110
vt 0.913965 0.844851
vt 0.916320 0.847205
vt 0.916320 0.905402
vt 0.919850 0.864331
vt 0.902196 0.844716
vt 0.919850 0.844716
vt 0.902196 0.813466
vt 0.902196 0.921943
vt 0.902196 0.921955
vt 0.902196 0.813466
vt 0.919850 0.864331
vt 0.955158 0.864331
vt 0.955158 0.864331
vt 0.972812 0.844716
vt 0.972812 0.953193
vt 0.972812 0.953180
vt 0.972812 0.844716
vt 0.955158 0.844716
vt 0.919850 0.833081
vt 0.919850 0.813466
vt 0.919850 0.844716
vt 0.959082 0.809543
vt 0.968889 0.809543
vt 0.968889 0.809543
vt 0.959082 0.809543
vt 0.955158 0.833081
vt 0.955158 0.833081
vt 0.955158 0.813466
vt 0.955158 0.813466
vt 0.972812 0.813466
vt 0.961043 0.844851
vt 0.958689 0.847205
vt 0.955921 0.915467
vt 0.919088 0.915467
vt 0.921430 0.910759
vt 0.953579 0.910759
vt 0.961043 0.876101
vt 0.913965 0.876101
vt 0.913965 0.941360
vt 0.902196 0.953180
vt 0.919088 0.946717
vt 0.955921 0.946717
vt 0.967703 0.958486
vt 0.907306 0.958486
vt 0.961043 0.910110
vt 0.958689 0.905402
vt 0.967720 0.927236
vt 0.971321 0.925689
vt 0.903688 0.925689
vt 0.907288 0.927236
vt 0.961043 0.941360
vt 0.972812 0.921955
vt 0.907297 0.927236
vt 0.903691 0.925686
vt 0.967712 0.958486
vt 0.971315 0.956932
vt 0.971318 0.956936
vt 0.903693 0.956932
vt 0.915466 0.945148
vt 0.959542 0.945148
vt 0.915466 0.913898
vt 0.917817 0.909190
vt 0.959542 0.913898
vt 0.957193 0.909190
vt 0.907297 0.958486
vt 0.906120 0.809543
vt 0.906120 0.809543
vt 0.902196 0.813466
vt 0.915928 0.778293
vt 0.906120 0.778293
vt 0.902196 0.782216
vt 0.919850 0.782216
vt 0.968889 0.778293
vt 0.968889 0.778293
vt 0.972812 0.782216
vt 0.972812 0.782216
vt 0.972812 0.813466
vt 0.955158 0.813466
vt 0.959082 0.778293
vt 0.955158 0.782216
vt 0.915928 0.809543
vt 0.919850 0.813466
vt 0.919850 0.813466
vt 0.915928 0.809543
vt 0.915928 0.778293
vt 0.906120 0.778293
vt 0.959082 0.778293
vt 0.955158 0.782216
vt 0.919850 0.782216
vt 0.972812 0.813466
vt 0.902196 0.782216
vt 0.967712 0.927236
vt 0.971318 0.925686
vt 0.972812 0.921943
vt 0.903691 0.956936
vt 0.902196 0.953193
vt 0.955158 0.844716
vt 0.919850 0.833081
vt 0.902196 0.844716
vt 0.915928 0.778293
vt 0.906120 0.778293
vt 0.959082 0.778293
vt 0.955158 0.782216
vt 0.919850 0.782216
vt 0.972812 0.813466
vt 0.902196 0.782216
vt 0.967712 0.927236
vt 0.971318 0.925686
vt 0.972812 0.921943
vt 0.903691 0.956936
vt 0.902196 0.953193
vt 0.955158 0.844716
vt 0.919850 0.833081
vt 0.902196 0.844716
vt 0.154545 0.958744
vt 0.845468 0.958744
vt 0.782069 0.982522
vt 0.217945 0.982522
vt 0.871729 0.901339
vt 0.128284 0.901339
vt 0.871729 0.019334
vt 0.128284 0.019334
vt 0.154532 0.958744
vt 0.845454 0.958744
vt 0.782056 0.982522
vt 0.217932 0.982522
vt 0.871717 0.901339
vt 0.128270 0.901339
vt 0.871717 0.019334
vt 0.128270 0.019334
vn -0.3689 0.3557 -0.8587
vn 0.3689 0.3557 -0.8587
vn 0.3689 -0.3557 -0.8587
vn -0.3689 -0.3557 -0.8587
vn -0.3689 -0.8587 0.3557
vn 0.3689 -0.8587 0.3557
vn 0.3689 -0.3557 0.8587
vn -0.3689 -0.3557 0.8587
vn 0.3689 0.3557 0.8587
vn -0.3689 0.3557 0.8587
vn 0.3689 0.8587 0.3557
vn -0.3689 0.8587 0.3557
vn 0.3689 0.8587 -0.3557
vn -0.3689 0.8587 -0.3557
vn -0.3689 -0.8587 -0.3557
vn 0.3689 -0.8587 -0.3557
vn -0.8991 -0.4044 -0.1675
vn -0.8991 -0.1675 -0.4044
vn 0.8991 -0.1675 -0.4044
vn 0.8991 -0.4044 -0.1675
vn -0.8991 -0.4044 0.1675
vn 0.8991 -0.4044 0.1675
vn -0.8991 -0.1675 0.4044
vn 0.8991 -0.1675 0.4044
vn -0.8991 0.1675 0.4044
vn 0.8991 0.1675 0.4044
vn -0.8991 0.4044 0.1675
vn 0.8991 0.4044 0.1675
vn -0.8991 0.4044 -0.1675
vn 0.8991 0.4044 -0.1675
vn -0.8991 0.1675 -0.4044
vn 0.8991 0.1675 -0.4044
vn 1.0000 -0.0000 -0.0000
vn -1.0000 -0.0000 0.0000
vn 0.8912 -0.0685 0.4484
vn 0.9578 0.0983 0.2700
vn 0.9284 0.0061 0.3716
vn -0.0000 0.3420 0.9397
vn -0.1925 -0.2243 0.9553
vn 0.0000 0.0569 0.9984
vn -1.0000 -0.0006 0.0002
vn -0.9808 0.1833 -0.0664
vn -0.9402 0.0790 -0.3313
vn -0.9602 -0.0961 -0.2623
vn 0.0000 -0.9397 0.3420
vn 1.0000 -0.0006 0.0002
vn 0.9808 0.1833 -0.0664
vn 0.9401 0.2732 0.2037
vn 0.9602 0.0950 0.2627
vn 0.1925 -0.2243 0.9553
vn -0.1925 -0.7859 -0.5877
vn 0.0000 -0.3420 -0.9397
vn -0.0000 -0.5981 -0.8014
vn 0.9576 -0.2706 0.0985
vn 0.9239 -0.3596 0.1309
vn -0.3827 -0.8682 0.3160
vn 0.2730 -0.9040 0.3290
vn 0.2102 -0.7367 0.6427
vn -0.3002 -0.7481 0.5918
vn -0.9576 -0.2706 0.0985
vn -0.9239 -0.3596 0.1309
vn 0.1925 -0.7859 -0.5877
vn 0.0000 0.9983 -0.0576
vn -0.1839 -0.5817 0.7923
vn 0.1839 -0.5817 0.7923
vn 0.1539 -0.5912 0.7917
vn -0.1539 -0.5912 0.7917
vn -0.9578 0.0983 0.2700
vn -0.8912 -0.0685 0.4484
vn -0.9284 0.0061 0.3716
vn -0.2081 0.9192 -0.3343
vn -0.1998 0.7813 -0.5913
vn -0.6834 0.5240 -0.5083
vn -0.7162 0.6560 -0.2382
vn 0.2081 0.9192 -0.3343
vn 0.1995 0.9787 -0.0487
vn 0.6834 0.7281 0.0537
vn 0.7162 0.6560 -0.2382
vn 0.5823 -0.3871 0.7149
vn 0.6430 -0.3427 0.6849
vn -0.5823 -0.3871 0.7149
vn -0.6430 -0.3427 0.6849
vn -0.1995 0.9787 -0.0487
vn -0.2730 -0.9040 0.3290
vn -0.2102 -0.7367 0.6427
vn -0.5287 -0.7976 0.2903
vn 0.3002 -0.9535 0.0276
vn -0.2102 -0.9775 -0.0188
vn 0.2102 -0.9775 -0.0188
vn 0.5287 -0.7976 0.2903
vn -0.3002 -0.9535 0.0276
vn 0.3002 -0.7481 0.5918
vn 0.3827 -0.8682 0.3160
vn -0.8912 -0.0685 -0.4484
vn -0.9578 0.0983 -0.2700
vn -0.9284 0.0061 -0.3716
vn 0.0000 0.3420 -0.9397
vn 0.1925 -0.2243 -0.9553
vn -0.0000 0.0569 -0.9984
vn 1.0000 -0.0006 -0.0002
vn 0.9808 0.1833 0.0664
vn 0.9402 0.0790 0.3313
vn 0.9602 -0.0961 0.2623
vn -0.0000 -0.9397 -0.3420
vn -1.0000 -0.0006 -0.0002
vn -0.9808 0.1833 0.0664
vn -0.9401 0.2732 -0.2037
vn -0.9602 0.0950 -0.2627
vn -0.1925 -0.2243 -0.9553
vn 0.1925 -0.7859 0.5877
vn 0.0000 -0.3420 0.9397
vn 0.0000 -0.5981 0.8014
vn -0.9576 -0.2706 -0.0985
vn -0.9239 -0.3596 -0.1309
vn 0.3827 -0.8682 -0.3160
vn -0.2730 -0.9040 -0.3290
vn -0.2102 -0.7367 -0.6427
vn 0.3002 -0.7481 -0.5918
vn 0.9576 -0.2706 -0.0985
vn 0.9239 -0.3596 -0.1309
vn -0.1925 -0.7859 0.5877
vn 0.0000 0.9983 0.0576
vn 0.1839 -0.5817 -0.7923
vn -0.1839 -0.5817 -0.7923
vn -0.1539 -0.5912 -0.7917
vn 0.1539 -0.5912 -0.7917
vn 0.9578 0.0983 -0.2700
vn 0.8912 -0.0685 -0.4484
vn 0.9284 0.0061 -0.3716
vn 0.2081 0.9192 0.3343
vn 0.1998 0.7813 0.5913
vn 0.6834 0.5240 0.5083
vn 0.7162 0.6560 0.2382
vn -0.2081 0.9192 0.3343
vn -0.1995 0.9787 0.0487
vn -0.6834 0.7281 -0.0537
vn -0.7162 0.6560 0.2382
vn -0.5823 -0.3871 -0.7149
vn -0.6430 -0.3427 -0.6849
vn 0.5823 -0.3871 -0.7149
vn 0.6430 -0.3427 -0.6849
vn 0.1995 0.9787 0.0487
vn 0.2730 -0.9040 -0.3290
vn 0.2102 -0.7367 -0.6427
vn 0.5287 -0.7976 -0.2903
vn -0.3002 -0.9535 -0.0276
vn 0.2102 -0.9775 0.0188
vn -0.2102 -0.9775 0.0188
vn -0.5287 -0.7976 -0.2903
vn 0.3002 -0.9535 -0.0276
vn -0.3002 -0.7481 -0.5918
vn -0.3827 -0.8682 -0.3160
vn 0.1998 0.7813 -0.5913
vn 0.6834 0.5240 -0.5083
vn 0.9402 0.0790 -0.3313
vn -0.6834 0.7281 0.0537
vn -0.9401 0.2732 0.2037
vn 0.9602 -0.0961 -0.2623
vn -0.9602 0.0950 0.2627
vn -0.1998 0.7813 0.5913
vn -0.6834 0.5240 0.5083
vn -0.9402 0.0790 0.3313
vn 0.6834 0.7281 -0.0537
vn 0.9401 0.2732 -0.2037
vn -0.9602 -0.0961 0.2623
vn 0.9602 0.0950 -0.2627
usemtl tiny_treats_1
s 1
f 17/1/1 18/2/2 4/3/3 2/4/4
f 7/5/5 8/6/6 10/7/7 9/8/8
f 9/8/8 10/7/7 12/9/9 11/10/10
f 11/10/10 12/9/9 14/11/11 13/12/12
f 13/12/12 14/11/11 16/13/13 15/14/14
f 15/14/14 16/13/13 18/2/2 17/1/1
f 5/15/15 6/16/16 8/6/6 7/5/5
f 2/4/4 4/3/3 6/16/16 5/15/15
f 2/17/4 5/18/15 27/19/17 28/20/18
f 6/21/16 4/22/3 19/23/19 20/24/20
f 5/18/15 7/25/5 29/26/21 27/19/17
f 8/27/6 6/21/16 20/24/20 21/28/22
f 7/25/5 9/29/8 30/30/23 29/26/21
f 10/31/7 8/27/6 21/28/22 22/32/24
f 9/29/8 11/33/10 31/34/25 30/30/23
f 12/35/9 10/31/7 22/32/24 23/36/26
f 11/33/10 13/37/12 32/38/27 31/34/25
f 14/39/11 12/35/9 23/36/26 24/40/28
f 13/37/12 15/41/14 33/42/29 32/38/27
f 16/43/13 14/39/11 24/40/28 25/44/30
f 15/41/14 17/45/1 34/46/31 33/42/29
f 18/47/2 16/43/13 25/44/30 26/48/32
f 17/45/1 2/17/4 28/20/18 34/46/31
f 4/22/3 18/47/2 26/48/32 19/23/19
f 3/49/33 20/24/20 19/23/19
f 3/49/33 21/28/22 20/24/20
f 3/49/33 22/32/24 21/28/22
f 3/49/33 23/36/26 22/32/24
f 3/49/33 24/40/28 23/36/26
f 3/49/33 25/44/30 24/40/28
f 3/49/33 26/48/32 25/44/30
f 3/49/33 19/23/19 26/48/32
f 1/50/34 28/20/18 27/19/17
f 1/50/34 27/19/17 29/26/21
f 1/50/34 29/26/21 30/30/23
f 1/50/34 30/30/23 31/34/25
f 1/50/34 31/34/25 32/38/27
f 1/50/34 32/38/27 33/42/29
f 1/50/34 33/42/29 34/46/31
f 1/50/34 34/46/31 28/20/18
f 53/51/35 39/52/36 45/53/36 66/54/37
f 44/55/38 41/56/39 82/57/40
f 131/58/41 137/59/42 47/60/43 35/61/44
f 133/62/45 134/63/45 43/64/45 44/55/45
f 132/65/46 140/66/47 63/67/48 42/68/49
f 42/68/50 43/64/38 77/69/40
f 35/61/51 38/70/52 73/71/53
f 133/62/33 44/55/33 82/57/54 143/72/55
f 145/73/56 142/74/57 75/75/58 78/76/59
f 134/77/34 37/78/34 80/79/60 146/80/61
f 37/78/52 36/81/62 80/79/53
f 40/82/63 46/83/63 45/53/63 39/52/63
f 56/84/64 54/85/65 65/86/66 69/87/67
f 40/88/38 43/64/38 42/68/50
f 39/89/38 41/56/39 44/55/38
f 40/88/38 39/89/38 44/55/38 43/64/38
f 39/89/38 53/90/38 59/91/38 41/56/39
f 54/92/38 56/93/38 62/94/38 60/95/38
f 40/82/68 57/96/69 68/97/70 46/83/68
f 50/98/52 52/99/52 49/100/52 48/101/52
f 57/102/38 40/88/38 42/68/50 63/67/38
f 35/61/51 47/60/52 38/70/52
f 51/103/52 36/81/62 37/78/52
f 52/99/52 51/103/52 47/60/52 49/100/52
f 135/104/71 48/101/72 49/100/73 136/105/74
f 136/105/74 49/100/73 47/60/43 137/59/42
f 138/106/75 62/94/76 64/107/77 139/108/78
f 139/108/78 64/107/77 63/67/48 140/66/47
f 54/92/38 60/95/38 61/109/38 55/110/38
f 55/110/38 61/109/38 59/91/38 53/90/38
f 62/94/38 56/93/38 58/111/38 64/107/38
f 64/107/38 58/111/38 57/102/38 63/67/38
f 65/86/66 54/85/65 55/112/79 67/113/80
f 67/113/80 55/112/79 53/51/35 66/54/37
f 68/97/70 57/96/69 58/114/81 70/115/82
f 70/115/82 58/114/81 56/84/64 69/87/67
f 138/106/75 135/116/71 60/95/83 62/94/76
f 141/117/84 72/118/85 41/119/39 131/58/86
f 74/120/87 71/121/88 35/122/51 73/123/53
f 142/124/57 76/125/89 36/126/62 132/127/90
f 78/76/59 75/75/58 42/128/50 77/129/40
f 76/125/89 79/130/91 80/131/53 36/126/62
f 72/118/85 81/132/92 82/133/40 41/119/39
f 143/134/55 82/133/54 81/132/92 144/135/93
f 145/73/56 78/76/59 77/129/60 146/80/61
f 141/117/84 144/135/93 81/132/92 72/118/85
f 47/60/52 51/103/52 37/78/52 38/70/52
f 101/136/94 87/137/95 93/138/95 114/139/96
f 92/140/97 89/141/98 130/142/99
f 147/143/100 153/144/101 95/145/102 83/146/103
f 149/147/104 150/148/104 91/149/104 92/140/104
f 148/150/105 156/151/106 111/152/107 90/153/108
f 90/153/109 91/149/97 125/154/99
f 83/146/110 86/155/111 121/156/112
f 149/147/34 92/140/34 130/142/113 159/157/114
f 161/158/115 158/159/116 123/160/117 126/161/118
f 150/162/33 85/163/33 128/164/119 162/165/120
f 85/163/111 84/166/121 128/164/112
f 88/167/122 94/168/122 93/138/122 87/137/122
f 104/169/123 102/170/124 113/171/125 117/172/126
f 88/173/97 91/149/97 90/153/109
f 87/174/97 89/141/98 92/140/97
f 88/173/97 87/174/97 92/140/97 91/149/97
f 87/174/97 101/175/97 107/176/97 89/141/98
f 102/177/97 104/178/97 110/179/97 108/180/97
f 88/167/127 105/181/128 116/182/129 94/168/127
f 98/183/111 100/184/111 97/185/111 96/186/111
f 105/187/97 88/173/97 90/153/109 111/152/97
f 83/146/110 95/145/111 86/155/111
f 99/188/111 84/166/121 85/163/111
f 100/184/111 99/188/111 95/145/111 97/185/111
f 151/189/130 96/186/131 97/185/132 152/190/133
f 152/190/133 97/185/132 95/145/102 153/144/101
f 154/191/134 110/179/135 112/192/136 155/193/137
f 155/193/137 112/192/136 111/152/107 156/151/106
f 102/177/97 108/180/97 109/194/97 103/195/97
f 103/195/97 109/194/97 107/176/97 101/175/97
f 110/179/97 104/178/97 106/196/97 112/192/97
f 112/192/97 106/196/97 105/187/97 111/152/97
f 113/171/125 102/170/124 103/197/138 115/198/139
f 115/198/139 103/197/138 101/136/94 114/139/96
f 116/182/129 105/181/128 106/199/140 118/200/141
f 118/200/141 106/199/140 104/169/123 117/172/126
f 154/191/134 151/201/130 108/180/142 110/179/135
f 157/202/143 120/203/144 89/204/98 147/143/145
f 122/205/146 119/206/147 83/207/110 121/208/112
f 158/209/116 124/210/148 84/211/121 148/212/149
f 126/161/118 123/160/117 90/213/109 125/214/99
f 124/210/148 127/215/150 128/216/112 84/211/121
f 120/203/144 129/217/151 130/218/99 89/204/98
f 159/219/114 130/218/113 129/217/151 160/220/152
f 161/158/115 126/161/118 125/214/119 162/165/120
f 157/202/143 160/220/152 129/217/151 120/203/144
f 95/145/111 99/188/111 85/163/111 86/155/111
f 71/121/88 74/120/87 144/221/93 141/222/84
f 79/130/91 145/223/56 146/224/61 80/131/60
f 73/123/54 143/225/55 144/221/93 74/120/87
f 75/75/58 142/74/57 132/226/90 42/128/50
f 71/121/88 141/222/84 131/227/86 35/122/51
f 50/98/153 48/101/72 135/104/71 138/228/75
f 52/99/154 139/229/78 140/230/47 51/103/155
f 50/98/153 138/228/75 139/229/78 52/99/154
f 61/109/156 136/231/74 137/232/42 59/91/157
f 60/95/83 135/116/71 136/231/74 61/109/156
f 43/64/34 134/63/34 146/233/61 77/69/60
f 79/130/91 76/125/89 142/124/57 145/223/56
f 38/70/33 133/234/33 143/134/55 73/71/54
f 36/81/158 51/103/155 140/230/47 132/226/46
f 38/70/45 37/78/45 134/77/45 133/234/45
f 41/56/159 59/91/157 137/232/42 131/235/41
f 119/206/147 122/205/146 160/236/152 157/237/143
f 127/215/150 161/238/115 162/239/120 128/216/119
f 121/208/113 159/240/114 160/236/152 122/205/146
f 123/160/117 158/159/116 148/241/149 90/213/109
f 119/206/147 157/237/143 147/242/145 83/207/110
f 98/183/160 96/186/131 151/189/130 154/243/134
f 100/184/161 155/244/137 156/245/106 99/188/162
f 98/183/160 154/243/134 155/244/137 100/184/161
f 109/194/163 152/246/133 153/247/101 107/176/164
f 108/180/142 151/201/130 152/246/133 109/194/163
f 91/149/33 150/148/33 162/248/120 125/154/119
f 127/215/150 124/210/148 158/209/116 161/238/115
f 86/155/34 149/249/34 159/219/114 121/156/113
f 84/166/165 99/188/162 156/245/106 148/241/105
f 86/155/104 85/163/104 150/162/104 149/249/104
f 89/141/166 107/176/164 153/247/101 147/250/100
usemtl tiny_treats_bakery_sign
f 67/251/38 70/252/38 69/253/38 65/254/38
f 68/255/38 70/252/38 67/251/38 66/256/38
f 46/257/38 68/255/38 66/256/38 45/258/38
f 115/259/97 118/260/97 117/261/97 113/262/97
f 116/263/97 118/260/97 115/259/97 114/264/97
f 94/265/97 116/263/97 114/264/97 93/266/97
