# Blender v3.4.1 OBJ File: 'Tiny_Treats_Bakery_Building_ASSETS_EXPORT.blend'
# www.blender.org
mtllib table_square_B.mtl
o table_square_B
v -0.700000 0.800000 0.700000
v -0.700000 0.850000 0.750000
v -0.750000 0.850000 0.700000
v -0.700000 0.950000 0.750000
v -0.700000 1.000000 0.700000
v -0.750000 0.950000 0.700000
v -0.700000 0.800000 -0.700000
v -0.750000 0.850000 -0.700000
v -0.700000 0.850000 -0.750000
v -0.700000 1.000000 -0.700000
v -0.700000 0.950000 -0.750000
v -0.750000 0.950000 -0.700000
v 0.700000 0.800000 0.700000
v 0.750000 0.850000 0.700000
v 0.700000 0.850000 0.750000
v 0.700000 1.000000 0.700000
v 0.700000 0.950000 0.750000
v 0.750000 0.950000 0.700000
v 0.700000 0.800000 -0.700000
v 0.700000 0.850000 -0.750000
v 0.750000 0.850000 -0.700000
v 0.700000 1.000000 -0.700000
v 0.750000 0.950000 -0.700000
v 0.700000 0.950000 -0.750000
v 0.250000 0.800000 -0.700000
v -0.250000 0.800000 -0.700000
v -0.250000 0.850000 -0.750000
v 0.250000 0.850000 -0.750000
v -0.250000 1.000000 -0.700000
v 0.250000 1.000000 -0.700000
v 0.250000 0.950000 -0.750000
v -0.250000 0.950000 -0.750000
v -0.250000 0.800000 0.700000
v 0.250000 0.800000 0.700000
v 0.250000 0.850000 0.750000
v -0.250000 0.850000 0.750000
v 0.250000 1.000000 0.700000
v -0.250000 1.000000 0.700000
v -0.250000 0.950000 0.750000
v 0.250000 0.950000 0.750000
v 0.250000 0.000000 -0.485800
v 0.280000 0.000000 -0.528005
v 0.280000 0.800400 0.264002
v 0.250000 0.800400 0.306206
v 0.280000 0.000000 -0.264005
v 0.250000 0.000000 -0.306210
v 0.250000 0.800400 0.485797
v 0.280000 0.800400 0.528002
v 0.420000 0.000000 -0.528005
v 0.450000 0.000000 -0.485800
v 0.450000 0.800400 0.306206
v 0.420000 0.800400 0.264002
v 0.450000 0.000000 -0.306210
v 0.420000 0.000000 -0.264005
v 0.420000 0.800400 0.528002
v 0.450000 0.800400 0.485797
v 0.300000 0.000000 0.306199
v 0.330000 0.000000 0.263995
v 0.330000 0.800400 -0.528001
v 0.300000 0.800400 -0.485796
v 0.330000 0.000000 0.527995
v 0.300000 0.000000 0.485791
v 0.300000 0.800400 -0.306205
v 0.330000 0.800400 -0.264001
v 0.470000 0.000000 0.263995
v 0.500000 0.000000 0.306199
v 0.500000 0.800400 -0.485796
v 0.470000 0.800400 -0.528001
v 0.500000 0.000000 0.485791
v 0.470000 0.000000 0.527995
v 0.470000 0.800400 -0.264001
v 0.500000 0.800400 -0.306205
v -0.500000 0.000000 0.306199
v -0.470000 0.000000 0.263995
v -0.470000 0.800400 -0.528001
v -0.500000 0.800400 -0.485796
v -0.500000 0.000000 0.485791
v -0.470000 0.800400 -0.264001
v -0.300000 0.800400 -0.485796
v -0.300000 0.000000 0.485791
v -0.300000 0.800400 -0.306205
v -0.330000 0.800400 -0.264001
v -0.330000 0.000000 0.527995
v -0.330000 0.800400 -0.528001
v -0.300000 0.000000 0.306199
v -0.330000 0.000000 0.263995
v -0.500000 0.800400 -0.306205
v -0.470000 0.000000 0.527995
v -0.450000 0.800400 0.306174
v -0.420000 0.800400 0.263970
v -0.420000 0.000000 -0.528025
v -0.450000 0.000000 -0.485821
v -0.420000 0.800400 0.527970
v -0.450000 0.800400 0.485766
v -0.450000 0.000000 -0.306230
v -0.420000 0.000000 -0.264025
v -0.280000 0.800400 0.263970
v -0.250000 0.800400 0.306174
v -0.250000 0.000000 -0.485821
v -0.280000 0.000000 -0.528025
v -0.250000 0.800400 0.485766
v -0.280000 0.800400 0.527970
v -0.280000 0.000000 -0.264025
v -0.250000 0.000000 -0.306230
vt 0.674289 0.858946
vt 0.674289 0.930252
vt 0.647872 0.961502
vt 0.647872 0.890196
vt 0.731523 0.858946
vt 0.731523 0.930252
vt 0.731523 0.930252
vt 0.731523 0.858946
vt 0.674289 0.934655
vt 0.647872 0.965905
vt 0.647872 0.965905
vt 0.674289 0.934655
vt 0.643470 0.890196
vt 0.643470 0.961502
vt 0.643470 0.961502
vt 0.643470 0.890196
vt 0.700704 0.890196
vt 0.700704 0.961502
vt 0.727121 0.930252
vt 0.727121 0.858946
vt 0.647872 0.870169
vt 0.647872 0.874571
vt 0.643470 0.874571
vt 0.647872 0.870169
vt 0.643470 0.874571
vt 0.647872 0.874571
vt 0.647872 0.961502
vt 0.727121 0.838919
vt 0.731523 0.843321
vt 0.727121 0.843321
vt 0.727121 0.934655
vt 0.727121 0.930252
vt 0.727121 0.838919
vt 0.727121 0.843321
vt 0.731523 0.843321
vt 0.727121 0.934655
vt 0.647872 0.890196
vt 0.674289 0.838919
vt 0.674289 0.843321
vt 0.700704 0.965905
vt 0.727121 0.858946
vt 0.700704 0.870169
vt 0.700704 0.874571
vt 0.700704 0.870169
vt 0.674289 0.838919
vt 0.674289 0.870169
vt 0.700704 0.838919
vt 0.700704 0.838919
vt 0.674289 0.870169
vt 0.700704 0.965905
vt 0.700704 0.961502
vt 0.700704 0.934655
vt 0.674289 0.965905
vt 0.674289 0.961502
vt 0.700704 0.930252
vt 0.674289 0.843321
vt 0.700704 0.843321
vt 0.674289 0.874571
vt 0.674289 0.930252
vt 0.674289 0.965905
vt 0.700704 0.934655
vt 0.700704 0.930252
vt 0.674289 0.961502
vt 0.700704 0.874571
vt 0.674289 0.874571
vt 0.700704 0.843321
vt 0.674289 0.858946
vt 0.674289 0.890196
vt 0.700704 0.858946
vt 0.700704 0.890196
vt 0.700704 0.858946
vt 0.674289 0.890196
vt 0.459598 0.786742
vt 0.468229 0.786742
vt 0.459422 0.845738
vt 0.450794 0.845738
vt 0.461271 0.845738
vt 0.470078 0.786742
vt 0.470078 0.786742
vt 0.461271 0.845738
vt 0.468229 0.786742
vt 0.459598 0.786742
vt 0.450794 0.845738
vt 0.459422 0.845738
vt 0.410774 0.813703
vt 0.415395 0.786742
vt 0.424199 0.845738
vt 0.415571 0.845738
vt 0.457749 0.786742
vt 0.457749 0.786742
vt 0.448945 0.845738
vt 0.448945 0.845738
vt 0.459598 0.786742
vt 0.468229 0.786742
vt 0.459422 0.845738
vt 0.450794 0.845738
vt 0.461271 0.845738
vt 0.470078 0.786742
vt 0.470078 0.786742
vt 0.461271 0.845738
vt 0.468229 0.786742
vt 0.459598 0.786742
vt 0.450794 0.845738
vt 0.459422 0.845738
vt 0.415570 0.845738
vt 0.424199 0.845738
vt 0.415395 0.786742
vt 0.406765 0.786742
vt 0.457749 0.786742
vt 0.448945 0.845738
vt 0.448945 0.845738
vt 0.457749 0.786742
vt 0.426048 0.845738
vt 0.417244 0.786742
vt 0.415395 0.786742
vt 0.424199 0.845738
vt 0.404915 0.786742
vt 0.413722 0.845738
vt 0.410774 0.813703
vt 0.415395 0.786742
vt 0.424199 0.845738
vt 0.415571 0.845738
vt 0.413722 0.845738
vt 0.404915 0.786742
vt 0.417244 0.786742
vt 0.426048 0.845738
vt 0.415570 0.845738
vt 0.406765 0.786742
vt 0.426048 0.845738
vt 0.426048 0.845738
vt 0.417244 0.786742
vt 0.417244 0.786742
vt 0.413722 0.845738
vt 0.413722 0.845738
vt 0.404915 0.786742
vt 0.404915 0.786742
vn 0.0000 -0.3827 0.9239
vn 0.0000 0.3827 0.9239
vn -0.3416 0.3416 0.8756
vn -0.3416 -0.3416 0.8756
vn 0.8756 -0.3416 -0.3416
vn 0.8756 0.3416 -0.3416
vn 0.8756 0.3416 0.3416
vn 0.8756 -0.3416 0.3416
vn 0.0000 0.9239 -0.3827
vn -0.3416 0.8756 -0.3416
vn -0.3416 0.8756 0.3416
vn 0.0000 0.9239 0.3827
vn -0.8756 -0.3416 0.3416
vn -0.8756 0.3416 0.3416
vn -0.8756 0.3416 -0.3416
vn -0.8756 -0.3416 -0.3416
vn 0.0000 -0.3827 -0.9239
vn 0.0000 0.3827 -0.9239
vn 0.3416 0.3416 -0.8756
vn 0.3416 -0.3416 -0.8756
vn -0.3416 -0.8756 0.3416
vn -0.3416 -0.8756 -0.3416
vn -0.3416 -0.3416 -0.8756
vn -0.3416 0.3416 -0.8756
vn 0.3416 -0.8756 0.3416
vn 0.3416 -0.3416 0.8756
vn 0.3416 0.8756 0.3416
vn 0.3416 0.3416 0.8756
vn 0.3416 -0.8756 -0.3416
vn 0.3416 0.8756 -0.3416
vn 0.0000 -0.9239 -0.3827
vn 0.0000 -0.9239 0.3827
vn -0.2999 -0.8514 0.4303
vn 0.2999 -0.8514 0.4303
vn 0.2889 -0.6734 0.6805
vn -0.2889 -0.6734 0.6805
vn 0.8342 -0.3879 0.3920
vn 0.9758 -0.1538 0.1554
vn 0.8342 0.3879 -0.3920
vn 0.9758 0.1538 -0.1554
vn 0.2889 0.6734 -0.6805
vn -0.2889 0.6734 -0.6805
vn -0.4439 0.6303 -0.6369
vn 0.4439 0.6303 -0.6369
vn -0.2889 0.6734 0.6805
vn 0.2889 0.6734 0.6805
vn 0.4439 0.6303 0.6369
vn -0.4439 0.6303 0.6369
vn -0.9758 -0.1538 -0.1554
vn -0.8342 0.3879 0.3920
vn -0.9758 0.1538 0.1554
vn -0.8342 -0.3879 -0.3920
vn 0.9758 0.1538 0.1554
vn 0.8342 0.3879 0.3920
vn 0.9758 -0.1538 -0.1554
vn 0.8342 -0.3879 -0.3920
vn 0.2999 -0.8514 -0.4303
vn -0.2999 -0.8514 -0.4303
vn -0.2889 -0.6734 -0.6805
vn 0.2889 -0.6734 -0.6805
vn -0.8342 0.3879 -0.3920
vn -0.9758 0.1538 -0.1554
vn -0.8342 -0.3879 0.3920
vn -0.9758 -0.1538 0.1554
vn 0.0000 -1.0000 0.0000
usemtl tiny_treats_1
s 1
f 36/1/1 39/2/2 4/3/3 2/4/4
f 21/5/5 23/6/6 18/7/7 14/8/8
f 29/9/9 10/10/10 5/11/11 38/12/12
f 3/13/13 6/14/14 12/15/15 8/16/16
f 28/17/17 31/18/18 24/19/19 20/20/20
f 1/21/21 2/22/4 3/23/13
f 4/3/3 5/11/11 6/14/14
f 7/24/22 8/25/16 9/26/23
f 10/10/10 11/27/24 12/15/15
f 13/28/25 14/29/8 15/30/26
f 16/31/27 17/32/28 18/7/7
f 19/33/29 20/34/20 21/35/5
f 22/36/30 23/6/6 24/19/19
f 7/24/22 1/21/21 3/23/13 8/25/16
f 2/4/4 4/3/3 6/14/14 3/13/13
f 5/11/11 10/10/10 12/15/15 6/14/14
f 11/27/24 9/37/23 8/16/16 12/15/15
f 26/38/31 7/24/22 9/26/23 27/39/17
f 30/40/9 22/36/30 24/19/19 31/18/18
f 23/6/6 21/5/5 20/20/20 24/19/19
f 13/28/25 19/33/29 21/35/5 14/29/8
f 22/36/30 16/31/27 18/7/7 23/6/6
f 17/32/28 15/41/26 14/8/8 18/7/7
f 34/42/32 13/28/25 15/30/26 35/43/1
f 38/12/12 5/11/11 4/3/3 39/2/2
f 25/44/31 19/33/29 13/28/25 34/42/32
f 7/24/22 26/38/31 33/45/32 1/21/21
f 26/46/31 25/47/31 34/48/32 33/49/32
f 16/31/27 37/50/12 40/51/2 17/32/28
f 37/52/12 38/53/12 39/54/2 40/55/2
f 1/21/21 33/45/32 36/56/1 2/22/4
f 33/49/32 34/48/32 35/57/1 36/58/1
f 10/10/10 29/9/9 32/59/18 11/27/24
f 29/60/9 30/61/9 31/62/18 32/63/18
f 19/33/29 25/44/31 28/64/17 20/34/20
f 25/47/31 26/46/31 27/65/17 28/66/17
f 9/37/23 11/27/24 32/59/18 27/67/17
f 27/68/17 32/63/18 31/62/18 28/69/17
f 22/36/30 30/40/9 37/50/12 16/31/27
f 30/61/9 29/60/9 38/53/12 37/52/12
f 15/41/26 17/32/28 40/51/2 35/70/1
f 35/71/1 40/55/2 39/54/2 36/72/1
f 45/73/33 54/74/34 55/75/35 48/76/36
f 56/77/37 53/78/38 50/79/39 51/80/40
f 49/81/41 42/82/42 43/83/43 52/84/44
f 88/85/45 83/86/46 82/87/47 78/88/48
f 57/89/49 62/90/50 63/91/51 60/92/52
f 61/93/45 70/94/46 71/95/47 64/96/48
f 72/97/53 69/98/54 66/99/55 67/100/56
f 65/101/57 58/102/58 59/103/59 68/104/60
f 102/105/35 93/106/36 96/107/33 103/108/34
f 41/109/61 44/110/62 43/83/43 42/82/42
f 47/111/63 46/112/64 45/73/33 48/76/36
f 53/78/38 56/77/37 55/75/35 54/74/34
f 51/80/40 50/79/39 49/81/41 52/84/44
f 79/113/56 85/114/55 86/115/57 84/116/60
f 77/117/50 88/85/45 78/88/48 87/118/51
f 57/89/49 60/92/52 59/103/59 58/102/58
f 63/91/51 62/90/50 61/93/45 64/96/48
f 69/98/54 72/97/53 71/95/47 70/94/46
f 67/100/56 66/99/55 65/101/57 68/104/60
f 100/119/41 91/120/42 90/121/43 97/122/44
f 41/109/61 46/112/64 47/111/63 44/110/62
f 77/117/50 87/118/51 76/123/52 73/124/49
f 80/125/54 81/126/53 82/87/47 83/86/46
f 75/127/59 84/116/60 86/115/57 74/128/58
f 75/127/59 74/128/58 73/124/49 76/123/52
f 85/114/55 79/113/56 81/126/53 80/125/54
f 94/129/63 89/130/62 92/131/61 95/132/64
f 94/129/63 95/132/64 96/107/33 93/106/36
f 98/133/40 101/134/37 104/135/38 99/136/39
f 92/131/61 89/130/62 90/121/43 91/120/42
f 99/136/39 100/119/41 97/122/44 98/133/40
f 74/128/58 86/115/57 85/114/65 73/124/65
f 73/124/65 85/114/65 80/125/65 77/117/65
f 102/105/35 103/108/34 104/135/38 101/134/37
f 46/112/65 53/78/65 54/74/34 45/73/33
f 62/90/65 69/98/65 70/94/65 61/93/65
f 77/117/65 80/125/65 83/86/65 88/85/65
f 95/132/65 104/135/65 103/108/34 96/107/33
f 91/120/65 100/119/65 99/136/65 92/131/65
f 92/131/65 99/136/65 104/135/65 95/132/65
f 42/82/65 49/81/65 50/79/65 41/109/65
f 41/109/65 50/79/65 53/78/65 46/112/65
f 58/102/58 65/101/57 66/99/65 57/89/65
f 57/89/65 66/99/65 69/98/65 62/90/65
