# Blender v3.4.1 OBJ File: 'Tiny_Treats_Bakery_Building_ASSETS_EXPORT.blend'
# www.blender.org
mtllib wall_lantern.mtl
o wall_lantern
v -0.124075 -0.181153 0.223741
v -0.177013 -0.181153 0.348455
v -0.126260 -0.181153 0.474074
v -0.001546 -0.181153 0.527012
v 0.124074 -0.181153 0.476259
v 0.177012 -0.181153 0.351545
v 0.126258 -0.181153 0.225926
v 0.001544 -0.181153 0.172987
v -0.000001 -0.329040 0.350000
v -0.256112 -0.288694 0.347765
v -0.179518 -0.288694 0.167322
v -0.182679 -0.288694 0.529517
v -0.002236 -0.288694 0.606111
v 0.179516 -0.288694 0.532678
v 0.256110 -0.288694 0.352235
v 0.182677 -0.288694 0.170483
v 0.002234 -0.288694 0.093889
v -0.070503 -0.181153 0.278258
v -0.100583 -0.181153 0.349122
v -0.071745 -0.181153 0.420500
v -0.000881 -0.181153 0.450580
v 0.070497 -0.181153 0.421741
v 0.100577 -0.181153 0.350878
v 0.071739 -0.181153 0.279500
v 0.000875 -0.181153 0.249420
v 0.071832 -0.134841 0.279409
v 0.039849 -0.109999 0.310839
v 0.000485 -0.109999 0.294130
v 0.000876 -0.134841 0.249290
v 0.070589 -0.134841 0.421834
v 0.039159 -0.109999 0.389851
v 0.055868 -0.109999 0.350488
v 0.100707 -0.134841 0.350879
v -0.071837 -0.134841 0.420591
v -0.039853 -0.109999 0.389161
v -0.000490 -0.109999 0.405870
v -0.000882 -0.134841 0.450710
v -0.070594 -0.134841 0.278166
v -0.039164 -0.109999 0.310149
v -0.055872 -0.109999 0.349512
v -0.100713 -0.134841 0.349121
v 0.000001 -0.591139 0.195235
v 0.000001 -0.520133 0.147790
v 0.000001 -0.352617 0.147790
v -0.032052 -0.638585 0.272618
v -0.059225 -0.591139 0.207016
v -0.077381 -0.520133 0.163183
v -0.083757 -0.436375 0.147790
v -0.077381 -0.352617 0.163183
v -0.059225 -0.281376 0.207016
v -0.059225 -0.638585 0.290774
v -0.109434 -0.591139 0.240565
v -0.142983 -0.520133 0.207016
v -0.154764 -0.436375 0.195235
v -0.142983 -0.352617 0.207016
v -0.109434 -0.281376 0.240565
v -0.077381 -0.638585 0.317947
v -0.142983 -0.591139 0.290774
v -0.186816 -0.520133 0.272618
v -0.202209 -0.436375 0.266242
v -0.186816 -0.352617 0.272618
v -0.142983 -0.281376 0.290774
v -0.083757 -0.638585 0.350000
v -0.154764 -0.591139 0.350000
v -0.202209 -0.520133 0.350000
v -0.218869 -0.436375 0.350000
v -0.202209 -0.352617 0.350000
v -0.154764 -0.281376 0.350000
v -0.077381 -0.638585 0.382053
v -0.142983 -0.591139 0.409226
v -0.186816 -0.520133 0.427382
v -0.202209 -0.436375 0.433758
v -0.186816 -0.352617 0.427382
v -0.142983 -0.281376 0.409226
v -0.059225 -0.638585 0.409226
v -0.109434 -0.591139 0.459435
v -0.142983 -0.520133 0.492984
v -0.154764 -0.436375 0.504764
v -0.142983 -0.352617 0.492984
v -0.109434 -0.281376 0.459435
v -0.032052 -0.638585 0.427382
v -0.059225 -0.591139 0.492984
v -0.077381 -0.520133 0.536817
v -0.083757 -0.436375 0.552209
v -0.077381 -0.352617 0.536817
v -0.059225 -0.281376 0.492984
v 0.000001 -0.655245 0.350000
v 0.000001 -0.638585 0.433758
v 0.000001 -0.591139 0.504764
v 0.000001 -0.520133 0.552209
v 0.000001 -0.436375 0.568870
v 0.000001 -0.352617 0.552209
v 0.000001 -0.281376 0.504764
v 0.032054 -0.638585 0.427382
v 0.059227 -0.591139 0.492984
v 0.077383 -0.520133 0.536817
v 0.083759 -0.436375 0.552209
v 0.077383 -0.352617 0.536817
v 0.059227 -0.281376 0.492984
v 0.059227 -0.638585 0.409226
v 0.109436 -0.591139 0.459435
v 0.142985 -0.520133 0.492983
v 0.154765 -0.436375 0.504764
v 0.142985 -0.352617 0.492984
v 0.109436 -0.281376 0.459435
v 0.077383 -0.638585 0.382053
v 0.142984 -0.591139 0.409226
v 0.186818 -0.520133 0.427382
v 0.202210 -0.436375 0.433758
v 0.186818 -0.352617 0.427382
v 0.142985 -0.281376 0.409226
v 0.083759 -0.638585 0.350000
v 0.154765 -0.591139 0.350000
v 0.202210 -0.520133 0.350000
v 0.218871 -0.436375 0.350000
v 0.202210 -0.352617 0.350000
v 0.154765 -0.281376 0.350000
v 0.077383 -0.638585 0.317947
v 0.142984 -0.591139 0.290774
v 0.186818 -0.520133 0.272618
v 0.202210 -0.436375 0.266242
v 0.186818 -0.352617 0.272618
v 0.142985 -0.281376 0.290774
v 0.059227 -0.638585 0.290774
v 0.109436 -0.591139 0.240565
v 0.142984 -0.520133 0.207016
v 0.154765 -0.436375 0.195235
v 0.142984 -0.352617 0.207016
v 0.109436 -0.281376 0.240565
v 0.032054 -0.638585 0.272618
v 0.059227 -0.591139 0.207016
v 0.077383 -0.520133 0.163183
v 0.083759 -0.436375 0.147790
v 0.077383 -0.352617 0.163183
v 0.059227 -0.281376 0.207016
v 0.000001 -0.638585 0.266242
v 0.000001 -0.436375 0.131130
v 0.000001 -0.281376 0.195236
v -0.155173 -0.329040 0.192095
v -0.221380 -0.329040 0.348068
v -0.157905 -0.329040 0.505172
v -0.001933 -0.329040 0.571379
v 0.155172 -0.329040 0.507904
v 0.221378 -0.329040 0.351932
v 0.157904 -0.329040 0.194828
v 0.001931 -0.329040 0.128621
v -0.039853 0.035246 0.389161
v -0.055872 -0.000438 0.349512
v 0.039159 0.035866 0.389851
v -0.000490 0.050284 0.405870
v 0.039849 -0.035245 0.310839
v 0.055868 0.000439 0.350488
v -0.039164 -0.035865 0.310149
v 0.000485 -0.050283 0.294130
v -0.039853 0.035246 0.100000
v -0.055872 -0.000438 0.100000
v 0.039159 0.035866 0.100000
v -0.000490 0.050284 0.100000
v 0.039849 -0.035245 0.100000
v 0.055868 0.000439 0.100000
v -0.039164 -0.035865 0.100000
v 0.000485 -0.050283 0.100000
v -0.087083 0.084063 0.100000
v -0.122088 -0.001046 0.100000
v 0.085572 0.085543 0.100000
v -0.001068 0.119930 0.100000
v 0.087079 -0.084062 0.100000
v 0.122083 0.001047 0.100000
v -0.085576 -0.085542 0.100000
v 0.001063 -0.119929 0.100000
v -0.000002 0.000001 0.000000
v -0.087083 0.084063 0.000000
v -0.122088 -0.001046 0.000000
v 0.085572 0.085543 0.000000
v -0.001068 0.119930 0.000000
v 0.087079 -0.084062 0.000000
v 0.122083 0.001047 0.000000
v -0.085576 -0.085542 0.000000
v 0.001063 -0.119928 0.000000
v 0.146447 0.001256 0.050000
v 0.102649 0.102614 0.050000
v -0.146451 -0.001255 0.050000
v -0.102654 -0.102613 0.050000
v 0.104457 -0.100838 0.050000
v -0.104461 0.100839 0.050000
v 0.001276 -0.143862 0.050000
v -0.001280 0.143863 0.050000
vt 0.182315 0.846517
vt 0.180232 0.846517
vt 0.176984 0.823829
vt 0.179999 0.823829
vt 0.192593 0.846517
vt 0.187436 0.846517
vt 0.187407 0.823829
vt 0.194870 0.823829
vt 0.194767 0.846517
vt 0.198014 0.823829
vt 0.192683 0.846517
vt 0.194999 0.823829
vt 0.187563 0.846517
vt 0.187591 0.823829
vt 0.182405 0.846517
vt 0.180129 0.823829
vt 0.176984 0.803947
vt 0.180129 0.803947
vt 0.181128 0.802894
vt 0.178410 0.802894
vt 0.179999 0.803947
vt 0.181016 0.802894
vt 0.187407 0.803947
vt 0.187420 0.802894
vt 0.194870 0.803947
vt 0.193870 0.802894
vt 0.198014 0.803947
vt 0.196589 0.802894
vt 0.194999 0.803947
vt 0.193982 0.802894
vt 0.187591 0.803947
vt 0.187578 0.802894
vt 0.185052 0.846517
vt 0.187530 0.846517
vt 0.189990 0.846517
vt 0.190991 0.846517
vt 0.185009 0.846517
vt 0.184008 0.846517
vt 0.189946 0.846517
vt 0.187469 0.846517
vt 0.185009 0.826635
vt 0.187469 0.826635
vt 0.187469 0.828627
vt 0.185005 0.828627
vt 0.185052 0.826635
vt 0.184008 0.826635
vt 0.184003 0.828627
vt 0.185048 0.828627
vt 0.187530 0.826635
vt 0.187530 0.828627
vt 0.190991 0.826635
vt 0.189990 0.826635
vt 0.189993 0.828627
vt 0.190995 0.828627
vt 0.189946 0.826635
vt 0.189950 0.828627
vt 0.185863 0.849157
vt 0.185205 0.849157
vt 0.184003 0.848509
vt 0.185005 0.848509
vt 0.189107 0.849157
vt 0.187479 0.849157
vt 0.187469 0.848509
vt 0.189950 0.848509
vt 0.189135 0.849157
vt 0.189793 0.849157
vt 0.190995 0.848509
vt 0.189993 0.848509
vt 0.185891 0.849157
vt 0.187519 0.849157
vt 0.187530 0.848509
vt 0.185048 0.848509
vt 0.062500 0.086050
vt 0.062500 0.116657
vt 0.081055 0.116657
vt 0.079641 0.086050
vt 0.062500 0.147263
vt 0.062500 0.173211
vt 0.075619 0.173211
vt 0.079641 0.147263
vt 0.062500 0.190548
vt 0.062500 0.196636
vt 0.069600 0.190548
vt 0.062500 0.060103
vt 0.075619 0.060103
vt 0.075619 0.190548
vt 0.094177 0.086050
vt 0.086745 0.060103
vt 0.094177 0.147263
vt 0.096783 0.116657
vt 0.086745 0.173211
vt 0.103886 0.086050
vt 0.094177 0.060103
vt 0.103886 0.147263
vt 0.107293 0.116657
vt 0.079641 0.190548
vt 0.094177 0.173211
vt 0.110986 0.116657
vt 0.107293 0.086050
vt 0.096783 0.173211
vt 0.107293 0.147263
vt 0.081055 0.190548
vt 0.096783 0.060103
vt 0.107293 0.116657
vt 0.103886 0.086050
vt 0.094177 0.173211
vt 0.103886 0.147263
vt 0.079641 0.190548
vt 0.094177 0.060103
vt 0.094177 0.086050
vt 0.086745 0.060103
vt 0.094177 0.147263
vt 0.096783 0.116657
vt 0.075619 0.190548
vt 0.086745 0.173211
vt 0.079641 0.147263
vt 0.081055 0.116657
vt 0.069600 0.190548
vt 0.075619 0.173211
vt 0.079641 0.086050
vt 0.075619 0.060103
vt 0.062500 0.116657
vt 0.062500 0.086050
vt 0.062500 0.173211
vt 0.062500 0.147263
vt 0.062500 0.190548
vt 0.062500 0.060103
vt 0.049377 0.173211
vt 0.045355 0.147263
vt 0.055397 0.190548
vt 0.045355 0.086050
vt 0.049377 0.060103
vt 0.043942 0.116657
vt 0.030819 0.086050
vt 0.038252 0.060103
vt 0.030819 0.147263
vt 0.028213 0.116657
vt 0.049377 0.190548
vt 0.038252 0.173211
vt 0.045355 0.190548
vt 0.030819 0.173211
vt 0.017703 0.116657
vt 0.021110 0.086050
vt 0.021110 0.147263
vt 0.030819 0.060103
vt 0.014010 0.116657
vt 0.017703 0.086050
vt 0.028213 0.173211
vt 0.017703 0.147263
vt 0.043942 0.190548
vt 0.028213 0.060103
vt 0.045355 0.190548
vt 0.021110 0.086050
vt 0.030819 0.060103
vt 0.021110 0.147263
vt 0.017703 0.116657
vt 0.030819 0.173211
vt 0.030819 0.086050
vt 0.038252 0.060103
vt 0.030819 0.147263
vt 0.028213 0.116657
vt 0.049377 0.190548
vt 0.038252 0.173211
vt 0.043942 0.116657
vt 0.045355 0.086050
vt 0.049377 0.173211
vt 0.045355 0.147263
vt 0.055397 0.190548
vt 0.049377 0.060103
vt 0.182143 0.771644
vt 0.178410 0.771644
vt 0.181128 0.771644
vt 0.183679 0.771644
vt 0.181016 0.771644
vt 0.187452 0.771644
vt 0.187420 0.771644
vt 0.191253 0.771644
vt 0.193870 0.771644
vt 0.192855 0.771644
vt 0.196589 0.771644
vt 0.193982 0.771644
vt 0.187578 0.771644
vt 0.185891 0.849157
vt 0.187519 0.849157
vt 0.185863 0.849157
vt 0.187479 0.849157
vt 0.187479 0.849157
vt 0.185863 0.849157
vt 0.189135 0.849157
vt 0.189793 0.849157
vt 0.189107 0.849157
vt 0.185205 0.849157
vt 0.185205 0.849157
vt 0.185863 0.849157
vt 0.185205 0.849157
vt 0.185891 0.849157
vt 0.187519 0.849157
vt 0.189107 0.849157
vt 0.189793 0.849157
vt 0.189135 0.849157
vt 0.189107 0.849157
vt 0.189793 0.849157
vt 0.189793 0.849157
vt 0.189107 0.849157
vt 0.187519 0.849157
vt 0.189135 0.849157
vt 0.187479 0.849157
vt 0.185891 0.849157
vt 0.189107 0.849157
vt 0.189793 0.849157
vt 0.185891 0.849157
vt 0.185205 0.849157
vt 0.185205 0.849157
vt 0.185891 0.849157
vt 0.189135 0.849157
vt 0.189135 0.849157
vt 0.185863 0.849157
vt 0.185863 0.849157
vt 0.187519 0.849157
vt 0.187519 0.849157
vt 0.187479 0.849157
vt 0.187479 0.849157
vt 0.185997 0.849157
vt 0.187486 0.849157
vt 0.189001 0.849157
vt 0.186442 0.849157
vt 0.188557 0.849157
vn -0.5746 0.5925 0.5646
vn -0.8055 0.5925 -0.0070
vn 0.5646 0.5925 0.5746
vn -0.0070 0.5925 0.8055
vn 0.8055 0.5925 0.0070
vn 0.5746 0.5925 -0.5646
vn 0.0070 0.5925 -0.8055
vn -0.5646 0.5925 -0.5746
vn -0.7578 -0.6524 -0.0066
vn -0.5312 -0.6524 -0.5405
vn -0.5405 -0.6524 0.5312
vn -0.0066 -0.6524 0.7578
vn 0.5312 -0.6524 0.5405
vn 0.7578 -0.6524 0.0066
vn 0.5405 -0.6524 -0.5312
vn 0.0066 -0.6524 -0.7578
vn 0.0000 1.0000 0.0000
vn -0.7132 -0.0028 0.7009
vn -0.0087 -0.0028 1.0000
vn -0.7009 -0.0028 -0.7132
vn -1.0000 -0.0028 -0.0087
vn 0.0087 -0.0028 -1.0000
vn 1.0000 -0.0028 0.0087
vn 0.7132 -0.0028 -0.7009
vn 0.7009 -0.0028 0.7132
vn -0.3456 0.8747 0.3397
vn -0.4846 0.8747 -0.0042
vn 0.3397 0.8747 0.3456
vn -0.0042 0.8747 0.4846
vn 0.3456 0.8747 -0.3397
vn 0.4846 0.8747 0.0042
vn -0.3396 0.8747 -0.3456
vn 0.0042 0.8747 -0.4846
vn -0.3397 0.8747 -0.3456
vn 0.0000 0.3737 -0.9275
vn -0.0000 0.0000 -1.0000
vn -0.3827 0.0000 -0.9239
vn -0.3550 0.3737 -0.8569
vn -0.0000 -0.3744 -0.9273
vn -0.0000 -0.6952 -0.7189
vn -0.2751 -0.6952 -0.6641
vn -0.3549 -0.3744 -0.8567
vn -0.0000 -0.9152 -0.4031
vn -0.0000 -1.0000 0.0000
vn -0.1543 -0.9152 -0.3724
vn 0.0000 0.5543 -0.8323
vn -0.3185 0.5543 -0.7690
vn -0.2850 -0.9152 -0.2850
vn -0.6559 0.3737 -0.6559
vn -0.5885 0.5543 -0.5885
vn -0.6557 -0.3744 -0.6557
vn -0.7071 0.0000 -0.7071
vn -0.5083 -0.6952 -0.5083
vn -0.8569 0.3737 -0.3550
vn -0.7690 0.5543 -0.3185
vn -0.8567 -0.3744 -0.3549
vn -0.9239 0.0000 -0.3827
vn -0.3724 -0.9152 -0.1543
vn -0.6641 -0.6952 -0.2751
vn -1.0000 0.0000 0.0000
vn -0.9275 0.3737 0.0000
vn -0.7189 -0.6952 -0.0000
vn -0.9273 -0.3744 0.0000
vn -0.4031 -0.9152 -0.0000
vn -0.8323 0.5543 0.0000
vn -0.9239 0.0000 0.3827
vn -0.8569 0.3737 0.3550
vn -0.6641 -0.6952 0.2751
vn -0.8567 -0.3744 0.3549
vn -0.3724 -0.9152 0.1543
vn -0.7690 0.5543 0.3185
vn -0.6559 0.3737 0.6559
vn -0.5885 0.5543 0.5885
vn -0.6557 -0.3744 0.6557
vn -0.7071 0.0000 0.7071
vn -0.2850 -0.9152 0.2850
vn -0.5083 -0.6952 0.5083
vn -0.3549 -0.3744 0.8567
vn -0.3827 -0.0000 0.9239
vn -0.1543 -0.9152 0.3724
vn -0.2751 -0.6952 0.6641
vn -0.3550 0.3737 0.8569
vn -0.3185 0.5543 0.7690
vn 0.0000 -0.0000 1.0000
vn 0.0000 0.3737 0.9275
vn -0.0000 -0.6952 0.7189
vn 0.0000 -0.3744 0.9273
vn -0.0000 -0.9152 0.4031
vn -0.0000 0.5543 0.8323
vn 0.2751 -0.6952 0.6641
vn 0.3549 -0.3744 0.8567
vn 0.1543 -0.9152 0.3724
vn 0.3550 0.3737 0.8569
vn 0.3185 0.5543 0.7690
vn 0.3827 -0.0000 0.9239
vn 0.6559 0.3737 0.6559
vn 0.5885 0.5543 0.5885
vn 0.6557 -0.3744 0.6557
vn 0.7071 -0.0000 0.7071
vn 0.2850 -0.9152 0.2850
vn 0.5083 -0.6952 0.5083
vn 0.3724 -0.9152 0.1543
vn 0.6641 -0.6952 0.2751
vn 0.9239 -0.0000 0.3827
vn 0.8569 0.3737 0.3550
vn 0.8567 -0.3744 0.3549
vn 0.7690 0.5543 0.3185
vn 1.0000 -0.0000 -0.0000
vn 0.9275 0.3737 -0.0000
vn 0.7189 -0.6952 -0.0000
vn 0.9273 -0.3744 -0.0000
vn 0.4031 -0.9152 -0.0000
vn 0.8323 0.5543 -0.0000
vn 0.3724 -0.9152 -0.1543
vn 0.8569 0.3737 -0.3550
vn 0.7690 0.5543 -0.3185
vn 0.8567 -0.3744 -0.3549
vn 0.9239 -0.0000 -0.3827
vn 0.6641 -0.6952 -0.2751
vn 0.6559 0.3737 -0.6559
vn 0.5885 0.5543 -0.5885
vn 0.6557 -0.3744 -0.6557
vn 0.7071 -0.0000 -0.7071
vn 0.2850 -0.9152 -0.2850
vn 0.5083 -0.6952 -0.5083
vn 0.3827 0.0000 -0.9239
vn 0.3550 0.3737 -0.8569
vn 0.2751 -0.6952 -0.6641
vn 0.3549 -0.3744 -0.8567
vn 0.1543 -0.9152 -0.3724
vn 0.3185 0.5543 -0.7690
vn 0.0087 0.0000 -1.0000
vn -0.7009 0.0000 -0.7133
vn -0.8649 -0.3635 -0.3461
vn 0.0101 0.0000 -0.9999
vn -0.7043 0.5084 0.4956
vn -0.0058 1.0000 -0.0000
vn -0.0081 1.0000 -0.0000
vn -0.6867 0.7270 -0.0000
vn 0.7133 -0.0000 -0.7009
vn 0.8737 -0.3523 -0.3356
vn 0.7009 -0.0000 0.7133
vn 1.0000 -0.0000 0.0087
vn 0.9883 0.1184 0.0958
vn 0.6927 0.5159 0.5040
vn -0.7133 0.0000 0.7009
vn -0.0087 -0.0000 1.0000
vn -0.0066 -0.0000 1.0000
vn -1.0000 0.0000 -0.0087
vn -0.9903 0.1087 0.0867
vn 0.0095 -1.0000 0.0000
vn -0.6739 -0.7389 0.0000
vn 0.0081 -1.0000 0.0000
vn 0.6739 0.7389 -0.0000
vn 1.0000 0.0094 -0.0000
vn -1.0000 -0.0094 -0.0000
vn 0.6867 -0.7270 0.0000
vn 0.6974 0.7167 0.0000
vn 1.0000 0.0088 -0.0000
vn 0.8989 0.0080 -0.4380
vn 0.6259 0.6475 -0.4348
vn -0.6974 -0.7167 -0.0000
vn -1.0000 -0.0088 0.0000
vn -0.8989 -0.0080 -0.4380
vn -0.6259 -0.6475 -0.4348
vn 0.7098 -0.7044 -0.0000
vn 0.6371 -0.6364 -0.4349
vn -0.7098 0.7044 0.0000
vn -0.6371 0.6364 -0.4349
vn 0.0086 -1.0000 -0.0000
vn 0.0077 -0.9020 -0.4318
vn -0.0086 1.0000 0.0000
vn -0.0077 0.9020 -0.4318
vn -0.0077 0.9020 0.4318
vn 0.6259 0.6475 0.4348
vn 0.0077 -0.9020 0.4318
vn -0.6259 -0.6475 0.4348
vn -0.6371 0.6364 0.4349
vn 0.6371 -0.6364 0.4349
vn -0.8989 -0.0080 0.4380
vn 0.8989 0.0080 0.4380
usemtl tiny_treats_1
s 1
f 3/1/1 2/2/2 10/3/2 12/4/1
f 5/5/3 4/6/4 13/7/4 14/8/3
f 6/9/5 5/5/3 14/8/3 15/10/5
f 7/11/6 6/9/5 15/10/5 16/12/6
f 8/13/7 7/11/6 16/12/6 17/14/7
f 1/15/8 8/13/7 17/14/7 11/16/8
f 4/6/4 3/1/1 12/4/1 13/7/4
f 10/17/9 11/18/10 139/19/10 140/20/9
f 12/21/11 10/17/9 140/20/9 141/22/11
f 13/23/12 12/21/11 141/22/11 142/24/12
f 14/25/13 13/23/12 142/24/12 143/26/13
f 15/27/14 14/25/13 143/26/13 144/28/14
f 16/29/15 15/27/14 144/28/14 145/30/15
f 17/31/16 16/29/15 145/30/15 146/32/16
f 11/18/10 17/31/16 146/32/16 139/19/10
f 8/13/17 1/15/17 18/33/17 25/34/17
f 6/9/17 7/11/17 24/35/17 23/36/17
f 2/2/17 3/1/17 20/37/17 19/38/17
f 5/5/17 6/9/17 23/36/17 22/39/17
f 4/6/17 5/5/17 22/39/17 21/40/17
f 7/11/17 8/13/17 25/34/17 24/35/17
f 3/1/17 4/6/17 21/40/17 20/37/17
f 1/15/17 2/2/17 19/38/17 18/33/17
f 20/41/18 21/42/19 37/43/19 34/44/18
f 18/45/20 19/46/21 41/47/21 38/48/20
f 25/49/22 18/45/20 38/48/20 29/50/22
f 23/51/23 24/52/24 26/53/24 33/54/23
f 21/42/19 22/55/25 30/56/25 37/43/19
f 19/46/21 20/41/18 34/44/18 41/47/21
f 22/55/25 23/51/23 33/54/23 30/56/25
f 35/57/26 40/58/27 41/59/27 34/60/26
f 31/61/28 36/62/29 37/63/29 30/64/28
f 27/65/30 32/66/31 33/67/31 26/68/30
f 39/69/32 28/70/33 29/71/33 38/72/34
f 40/58/27 39/69/32 38/72/34 41/59/27
f 36/62/29 35/57/26 34/60/26 37/63/29
f 32/66/31 31/61/28 30/64/28 33/67/31
f 28/70/33 27/65/30 26/68/30 29/71/33
f 24/52/24 25/49/22 29/50/22 26/53/24
f 2/2/2 1/15/8 11/16/8 10/3/2
f 44/73/35 137/74/36 48/75/37 49/76/38
f 43/77/39 42/78/40 46/79/41 47/80/42
f 136/81/43 87/82/44 45/83/45
f 138/84/46 44/73/35 49/76/38 50/85/47
f 137/74/36 43/77/39 47/80/42 48/75/37
f 42/78/40 136/81/43 45/83/45 46/79/41
f 45/83/45 87/82/44 51/86/48
f 50/85/47 49/76/38 55/87/49 56/88/50
f 48/75/37 47/80/42 53/89/51 54/90/52
f 46/79/41 45/83/45 51/86/48 52/91/53
f 49/76/38 48/75/37 54/90/52 55/87/49
f 47/80/42 46/79/41 52/91/53 53/89/51
f 56/88/50 55/87/49 61/92/54 62/93/55
f 54/90/52 53/89/51 59/94/56 60/95/57
f 52/91/53 51/86/48 57/96/58 58/97/59
f 55/87/49 54/90/52 60/95/57 61/92/54
f 53/89/51 52/91/53 58/97/59 59/94/56
f 51/86/48 87/82/44 57/96/58
f 61/92/54 60/95/57 66/98/60 67/99/61
f 59/94/56 58/97/59 64/100/62 65/101/63
f 57/96/58 87/82/44 63/102/64
f 62/93/55 61/92/54 67/99/61 68/103/65
f 60/95/57 59/94/56 65/101/63 66/98/60
f 58/97/59 57/96/58 63/102/64 64/100/62
f 67/99/61 66/98/60 72/104/66 73/105/67
f 65/101/63 64/100/62 70/106/68 71/107/69
f 63/102/64 87/82/44 69/108/70
f 68/103/65 67/99/61 73/105/67 74/109/71
f 66/98/60 65/101/63 71/107/69 72/104/66
f 64/100/62 63/102/64 69/108/70 70/106/68
f 74/109/71 73/105/67 79/110/72 80/111/73
f 72/104/66 71/107/69 77/112/74 78/113/75
f 70/106/68 69/108/70 75/114/76 76/115/77
f 73/105/67 72/104/66 78/113/75 79/110/72
f 71/107/69 70/106/68 76/115/77 77/112/74
f 69/108/70 87/82/44 75/114/76
f 78/113/75 77/112/74 83/116/78 84/117/79
f 76/115/77 75/114/76 81/118/80 82/119/81
f 79/110/72 78/113/75 84/117/79 85/120/82
f 77/112/74 76/115/77 82/119/81 83/116/78
f 75/114/76 87/82/44 81/118/80
f 80/111/73 79/110/72 85/120/82 86/121/83
f 85/120/82 84/117/79 91/122/84 92/123/85
f 83/116/78 82/119/81 89/124/86 90/125/87
f 81/118/80 87/82/44 88/126/88
f 86/121/83 85/120/82 92/123/85 93/127/89
f 84/117/79 83/116/78 90/125/87 91/122/84
f 82/119/81 81/118/80 88/126/88 89/124/86
f 90/125/87 89/124/86 95/128/90 96/129/91
f 88/126/88 87/82/44 94/130/92
f 93/127/89 92/123/85 98/131/93 99/132/94
f 91/122/84 90/125/87 96/129/91 97/133/95
f 89/124/86 88/126/88 94/130/92 95/128/90
f 92/123/85 91/122/84 97/133/95 98/131/93
f 99/132/94 98/131/93 104/134/96 105/135/97
f 97/133/95 96/129/91 102/136/98 103/137/99
f 95/128/90 94/130/92 100/138/100 101/139/101
f 98/131/93 97/133/95 103/137/99 104/134/96
f 96/129/91 95/128/90 101/139/101 102/136/98
f 94/130/92 87/82/44 100/138/100
f 101/139/101 100/138/100 106/140/102 107/141/103
f 104/134/96 103/137/99 109/142/104 110/143/105
f 102/136/98 101/139/101 107/141/103 108/144/106
f 100/138/100 87/82/44 106/140/102
f 105/135/97 104/134/96 110/143/105 111/145/107
f 103/137/99 102/136/98 108/144/106 109/142/104
f 110/143/105 109/142/104 115/146/108 116/147/109
f 108/144/106 107/141/103 113/148/110 114/149/111
f 106/140/102 87/82/44 112/150/112
f 111/145/107 110/143/105 116/147/109 117/151/113
f 109/142/104 108/144/106 114/149/111 115/146/108
f 107/141/103 106/140/102 112/150/112 113/148/110
f 112/150/112 87/82/44 118/152/114
f 117/151/113 116/147/109 122/153/115 123/154/116
f 115/146/108 114/149/111 120/155/117 121/156/118
f 113/148/110 112/150/112 118/152/114 119/157/119
f 116/147/109 115/146/108 121/156/118 122/153/115
f 114/149/111 113/148/110 119/157/119 120/155/117
f 123/154/116 122/153/115 128/158/120 129/159/121
f 121/156/118 120/155/117 126/160/122 127/161/123
f 119/157/119 118/152/114 124/162/124 125/163/125
f 122/153/115 121/156/118 127/161/123 128/158/120
f 120/155/117 119/157/119 125/163/125 126/160/122
f 118/152/114 87/82/44 124/162/124
f 128/158/120 127/161/123 133/164/126 134/165/127
f 126/160/122 125/163/125 131/166/128 132/167/129
f 124/162/124 87/82/44 130/168/130
f 129/159/121 128/158/120 134/165/127 135/169/131
f 127/161/123 126/160/122 132/167/129 133/164/126
f 125/163/125 124/162/124 130/168/130 131/166/128
f 134/165/127 133/164/126 137/74/36 44/73/35
f 132/167/129 131/166/128 42/78/40 43/77/39
f 130/168/130 87/82/44 136/81/43
f 135/169/131 134/165/127 44/73/35 138/84/46
f 133/164/126 132/167/129 43/77/39 137/74/36
f 131/166/128 130/168/130 136/81/43 42/78/40
f 9/170/44 140/171/44 139/172/44
f 9/173/44 141/174/44 140/171/44
f 9/175/44 142/176/44 141/174/44
f 9/177/44 143/178/44 142/176/44
f 9/179/44 144/180/44 143/178/44
f 9/177/44 145/181/44 144/180/44
f 9/175/44 146/182/44 145/181/44
f 9/173/44 139/172/44 146/182/44
f 28/70/132 39/69/133 153/183/134 154/184/135
f 147/185/136 150/186/137 158/187/138 155/188/139
f 27/65/140 28/70/132 154/184/135 151/189/141
f 31/61/142 32/66/143 152/190/144 149/191/145
f 32/66/143 27/65/140 151/189/141 152/190/144
f 35/57/146 36/62/147 150/186/148 147/185/136
f 39/69/133 40/58/149 148/192/150 153/183/134
f 36/62/147 31/61/142 149/191/145 150/186/148
f 40/58/149 35/57/146 147/185/136 148/192/150
f 156/193/84 155/188/84 163/194/84 164/195/84
f 154/184/151 153/183/134 161/196/152 162/197/153
f 150/186/137 149/191/145 157/198/154 158/187/138
f 149/191/145 152/190/144 160/199/155 157/198/154
f 153/183/134 148/192/150 156/193/156 161/196/152
f 152/190/144 151/189/141 159/200/157 160/199/155
f 148/192/150 147/185/136 155/188/139 156/193/156
f 151/189/141 154/184/151 162/197/153 159/200/157
f 181/201/158 180/202/159 177/203/160 174/204/161
f 159/200/84 162/197/84 170/205/84 167/206/84
f 155/188/84 158/187/84 166/207/84 163/194/84
f 162/197/84 161/196/84 169/208/84 170/205/84
f 158/187/84 157/198/84 165/209/84 166/207/84
f 157/198/84 160/199/84 168/210/84 165/209/84
f 161/196/84 156/193/84 164/195/84 169/208/84
f 160/199/84 159/200/84 167/206/84 168/210/84
f 183/211/162 182/212/163 173/213/164 178/214/165
f 180/202/159 184/215/166 176/216/167 177/203/160
f 182/212/163 185/217/168 172/218/169 173/213/164
f 184/215/166 186/219/170 179/220/171 176/216/167
f 185/217/168 187/221/172 175/222/173 172/218/169
f 186/219/170 183/211/162 178/214/165 179/220/171
f 187/221/172 181/201/158 174/204/161 175/222/173
f 171/223/36 173/213/36 172/218/36
f 171/224/36 175/222/36 174/204/36
f 171/225/36 177/203/36 176/216/36
f 171/224/36 179/220/36 178/214/36
f 171/226/36 178/214/36 173/213/36
f 171/226/36 172/218/36 175/222/36
f 171/227/36 174/204/36 177/203/36
f 171/227/36 176/216/36 179/220/36
f 166/207/174 165/209/175 181/201/158 187/221/172
f 170/205/176 169/208/177 183/211/162 186/219/170
f 163/194/178 166/207/174 187/221/172 185/217/168
f 167/206/179 170/205/176 186/219/170 184/215/166
f 164/195/180 163/194/178 185/217/168 182/212/163
f 168/210/181 167/206/179 184/215/166 180/202/159
f 169/208/177 164/195/180 182/212/163 183/211/162
f 165/209/175 168/210/181 180/202/159 181/201/158
